<?xml version="1.0" encoding="utf-8"?>
<!-- Generator: Adobe Illustrator 19.2.0, SVG Export Plug-In . SVG Version: 6.00 Build 0)  -->
<svg version="1.1" id="Layer_1" xmlns="http://www.w3.org/2000/svg" xmlns:xlink="http://www.w3.org/1999/xlink" x="0px" y="0px"
	 viewBox="0 0 275 35" style="enable-background:new 0 0 275 35;" xml:space="preserve">
<style type="text/css">
	.st0{fill:#3F471D;}
</style>
<text transform="matrix(1 0 0 1 54.9383 -13.7376)" style="font-family:'SignPainter-HouseScript'; font-size:10.5319px;">Kawaii Developers</text>
<text transform="matrix(1 0 0 1 57.7143 -24.8414)" style="font-family:'PenguinAttack'; font-size:10.5319px;">Kawaii Developers</text>
<text transform="matrix(1 0 0 1 3.2363 -23.3377)" style="font-family:'BlessedDay'; font-size:10.5319px;">Kawaii Developers</text>
<text transform="matrix(1 0 0 1 -2.641 -31.5428)" style="font-family:'BlessedDay'; font-size:21.1382px;">Kawaii Developers</text>
<g>
	<path class="st0" d="M17.3,13.1c0.5-0.8,1-1.6,1.5-2.4C19.3,9.9,19.7,9,20,8.2c0.3-0.9,0.4-1.7,0.4-2.6c0-0.8-0.4-1.6-1-2.4
		c-0.9-0.9-1.8-1.3-2.9-1.4c-1.1-0.1-2.2,0.1-3.3,0.4c-1.1,0.4-2.2,0.9-3.2,1.6c-1,0.7-1.9,1.3-2.6,2C6.7,6.6,5.9,7.5,5.2,8.5
		c-0.7,1-1.2,2.1-1.6,3.2c-0.2,0.5-0.3,1-0.4,1.6c-0.1,0.6-0.1,1.2,0,1.8c0.1,0.6,0.2,1.1,0.5,1.6c0.3,0.5,0.7,0.9,1.2,1.2
		c0.5,0.2,1,0.4,1.6,0.3c0.5,0,1.1-0.2,1.6-0.4c0.5-0.2,1-0.5,1.4-0.8c0.5-0.3,0.9-0.7,1.2-1c0.8-0.7,1.5-1.6,2.1-2.6
		c0.6-1,1-2,1.1-3.1c0.1-0.5,0.1-0.9,0-1.3c-0.1-0.4-0.1-0.8-0.2-1.1c-0.1-0.2-0.1-0.4-0.1-0.6s0.2-0.3,0.5-0.3
		c0.2,0,0.4,0.1,0.5,0.3c0.1,0.2,0.1,0.4,0.2,0.6c0.2,0.6,0.2,1.1,0.2,1.7c0,0.6-0.2,1.2-0.3,1.8c-0.2,0.6-0.4,1.2-0.7,1.7
		c-0.3,0.6-0.6,1.1-0.9,1.5c-0.4,0.5-0.8,1-1.3,1.6c-0.5,0.5-1.1,1-1.7,1.5c-0.6,0.4-1.3,0.8-2,1.1c-0.7,0.3-1.4,0.4-2.1,0.5
		c-0.7,0-1.3-0.1-1.9-0.4c-0.6-0.3-1.1-0.8-1.6-1.6c-0.7-1.1-1-2.2-0.9-3.4c0.1-1.2,0.4-2.4,0.9-3.5c0.5-1.2,1.2-2.2,2-3.3
		c0.8-1,1.6-1.9,2.4-2.6c0.8-0.7,1.8-1.4,3-2.1C10.8,1.8,12,1.3,13.2,1c1.2-0.3,2.4-0.4,3.6-0.2s2.3,0.7,3.3,1.6
		c0.7,0.6,1.2,1.2,1.4,2c0.3,0.7,0.4,1.5,0.3,2.2c0,0.8-0.2,1.5-0.5,2.3c-0.3,0.8-0.6,1.5-0.9,2.1c-0.4,0.7-0.7,1.3-1.1,1.9
		c0.7,0,1.4,0.2,2.1,0.6c0.6-0.3,1.3-0.7,1.9-1c0.6-0.4,1.2-0.7,1.7-1c0.9-0.5,1.7-1.1,2.6-1.8c0.9-0.6,1.8-1.3,2.7-2
		C31.2,7,32,6.2,32.7,5.5c0.8-0.8,1.4-1.5,1.9-2.4c0,0,0.1-0.1,0.1-0.2c0-0.1,0.1-0.2,0.1-0.3c0.1-0.1,0.1-0.2,0.2-0.3
		c0.1-0.1,0.1-0.1,0.2-0.1c0.2,0,0.3,0.2,0.3,0.5s-0.1,0.7-0.3,1.1c-0.2,0.4-0.3,0.8-0.5,1.1c-0.2,0.3-0.3,0.6-0.4,0.6
		c-1,1.4-2.1,2.7-3.5,3.8s-2.8,2.1-4.2,3c-1.4,0.9-2.8,1.6-4.2,2.1c0.7,0.7,1.4,1.6,1.9,2.5c0.5,1,1,1.9,1.4,2.8
		c0.4,0.8,0.9,1.7,1.4,2.6c0.5,0.9,1.1,1.8,1.7,2.7s1.4,1.6,2.2,2.1c0.8,0.6,1.7,0.9,2.8,1c0.7,0.1,1.5,0,2.2-0.3
		c0.7-0.2,1.4-0.6,1.8-1.2c0.1-0.1,0.2-0.3,0.3-0.5c0.1-0.2,0.2-0.4,0.3-0.4c0.2-0.1,0.3-0.1,0.4-0.1c0.1,0.1,0.2,0.2,0.2,0.3
		c0,0.2,0,0.3,0,0.5c0,0.2-0.1,0.4-0.2,0.6c-0.3,0.5-0.7,0.9-1.1,1.2c-0.5,0.3-1,0.6-1.5,0.8c-1.1,0.5-2.2,0.6-3.3,0.3
		c-1-0.2-2-0.7-2.9-1.3c-0.9-0.6-1.7-1.4-2.4-2.3c-0.7-0.9-1.4-1.8-1.9-2.7c-0.4-0.6-0.7-1.2-1-1.8c-0.3-0.6-0.6-1.3-0.9-1.9
		c-0.3-0.6-0.6-1.3-0.9-1.9c-0.3-0.6-0.7-1.2-1-1.8c-0.2-0.2-0.3-0.4-0.5-0.6c-0.2-0.2-0.3-0.3-0.5-0.5c-0.5,0.2-1.1,0.3-1.7,0.5
		c-0.6,0.1-1.1,0.2-1.7,0.1c-0.5,0.8-1.1,1.5-1.6,2.3c-0.6,0.8-1,1.6-1.4,2.4c-0.2,0.4-0.4,0.8-0.5,1.2c-0.2,0.4-0.2,0.8-0.3,1.2
		c0,0.2,0,0.4,0.1,0.6c0.1,0.2,0.1,0.4,0.2,0.6c0,0.3,0,0.5-0.2,0.7c-0.2,0.2-0.4,0.1-0.7-0.2c-0.2-0.2-0.4-0.5-0.4-0.8
		c-0.1-0.4-0.1-0.7-0.2-0.9c0-0.4,0-0.9,0.1-1.3c0.1-0.4,0.2-0.9,0.4-1.3c0.2-0.4,0.4-0.8,0.6-1.2c0.2-0.4,0.4-0.8,0.6-1.2
		c0.3-0.5,0.6-0.9,0.9-1.4c0.3-0.4,0.6-0.9,0.9-1.3c-0.2-0.5-0.2-0.8,0.1-1.2C16.4,13.5,16.8,13.2,17.3,13.1z M19.9,14.2
		c-0.4-0.1-0.8-0.2-1.2-0.2l-0.5,0.7C18.8,14.6,19.3,14.4,19.9,14.2z"/>
	<path class="st0" d="M46.7,8.8c-1.4-0.5-2.8-0.6-4.1-0.3s-2.6,0.8-3.8,1.6c-1.2,0.8-2.2,1.7-3.2,2.8c-1,1.1-1.8,2.2-2.5,3.3
		c-0.4,0.6-0.7,1.1-1,1.7c-0.3,0.6-0.6,1.2-0.8,1.9c-0.1,0.2-0.1,0.5-0.2,0.8c-0.1,0.3-0.2,0.6-0.2,1c0,0.3,0,0.6,0,0.9
		c0.1,0.3,0.2,0.5,0.4,0.7c0.2,0.2,0.5,0.2,0.8,0.2c0.3-0.1,0.5-0.2,0.8-0.4c0.3-0.2,0.5-0.4,0.7-0.6c0.2-0.2,0.4-0.4,0.6-0.6
		c1-1.1,2.1-2.2,3.1-3.3c1.1-1.2,2.1-2.3,3.1-3.3c0.2-0.2,0.5-0.5,0.8-0.7c0.3-0.2,0.6-0.4,0.9-0.6c0.3-0.2,0.7-0.3,1-0.3
		c0.4-0.1,0.7,0,1.1,0.1c0.4,0.1,0.5,0.4,0.4,0.8c-0.2,0.5-0.4,1.1-0.8,1.6c-0.4,0.5-0.7,1-0.9,1.5c-0.4,0.8-0.8,1.5-1.2,2.3
		c-0.4,0.7-0.7,1.5-0.9,2.3c-0.1,0.4-0.1,0.6-0.1,0.8c0.1,0.2,0.2,0.4,0.3,0.5c0.2,0.1,0.4,0.1,0.6,0.1c0.2,0,0.4-0.1,0.7-0.2
		c0.3-0.1,0.6-0.3,0.9-0.5c0.3-0.2,0.6-0.4,0.9-0.7c0.3-0.2,0.6-0.5,0.8-0.7c0.3-0.2,0.5-0.5,0.7-0.7c0.8-0.8,1.6-1.6,2.3-2.5
		c0.7-0.9,1.4-1.8,2-2.7c0-0.1,0.1-0.1,0.2-0.1c0.1,0,0.1,0.1,0.2,0.1c0,0.1,0,0.2-0.1,0.4c-0.1,0.2-0.2,0.3-0.2,0.3
		c-0.3,0.6-0.7,1.1-1.1,1.7c-0.4,0.6-0.9,1.3-1.4,2c-0.6,0.8-1.2,1.5-1.9,2.2c-0.7,0.7-1.4,1.3-2.1,1.8c-0.7,0.5-1.4,0.8-2.1,0.8
		c-0.7,0-1.2-0.1-1.5-0.3c-0.3-0.3-0.5-0.6-0.5-1.1c-0.1-0.5,0-1,0.2-1.7s0.4-1.3,0.7-1.9c0.3-0.7,0.6-1.3,0.9-2
		c0.4-0.7,0.7-1.3,1-1.8c0.4-0.7,0.6-1.1,0.5-1.2c-0.1-0.1-0.5,0.2-1.2,0.8c-0.8,0.7-1.6,1.4-2.2,2.2c-0.7,0.8-1.3,1.5-2,2.3
		s-1.3,1.5-1.9,2.2c-0.7,0.7-1.3,1.4-2.1,2c-0.4,0.3-0.7,0.5-1.1,0.5c-0.4,0.1-0.8,0-1.1-0.1c-0.4-0.1-0.7-0.4-0.9-0.7
		c-0.3-0.3-0.4-0.8-0.5-1.3c-0.1-0.5-0.1-1.1,0-1.7c0.1-0.6,0.3-1.2,0.5-1.8c0.2-0.6,0.5-1.2,0.7-1.7c0.2-0.5,0.5-0.9,0.7-1.2
		c0.6-1.1,1.4-2.2,2.4-3.3c0.9-1.1,1.9-2.1,3-2.9c1.1-0.9,2.2-1.5,3.5-2.1C41.5,7.3,42.7,7,44,7.1c0.5,0,1.1,0.1,1.6,0.3
		c0.5,0.2,1,0.4,1.4,0.6c0.2,0.1,0.3,0.3,0.3,0.6C47.2,8.8,47,8.9,46.7,8.8z"/>
	<path class="st0" d="M56.9,8.3c-1,1-1.8,2-2.7,3c-0.8,1.1-1.6,2.2-2.3,3.3c-0.3,0.4-0.7,1-1.1,1.7c-0.4,0.7-0.9,1.5-1.2,2.2
		c-0.4,0.8-0.6,1.5-0.8,2.3s-0.1,1.3,0.2,1.8c0.2,0.4,0.6,0.6,1,0.6c0.4,0,0.9-0.2,1.4-0.5c0.5-0.3,1.1-0.8,1.7-1.4
		c0.6-0.6,1.2-1.2,1.8-1.9c0.6-0.7,1.2-1.4,1.7-2.1c0.6-0.7,1.1-1.4,1.5-2.1c0.5-0.6,0.9-1.2,1.2-1.7c0.3-0.5,0.6-0.8,0.7-1
		c0.7-0.9,1.3-1.8,1.9-2.7C62.4,9,63,8.1,63.7,7.4c0.1-0.2,0.3-0.2,0.5-0.2c0.2,0,0.3,0.1,0.5,0.2c0.1,0.1,0.2,0.3,0.2,0.4
		c0,0.2,0,0.3-0.1,0.5c-0.9,1.1-1.7,2.4-2.4,3.8c-0.7,1.4-1.3,2.8-1.9,4.2c-0.3,0.7-0.6,1.4-0.8,2.2c-0.2,0.7-0.4,1.5-0.5,2.2
		c-0.1,1-0.1,1.7,0,2.1c0.1,0.4,0.4,0.7,0.7,0.8c0.3,0.1,0.7,0,1.2-0.2c0.5-0.2,1-0.6,1.5-1c0.6-0.5,1.3-1.1,1.9-1.7
		c0.6-0.7,1.3-1.4,1.9-2.2c0.6-0.8,1.2-1.5,1.7-2.3c0.5-0.8,1-1.5,1.3-2.1c0.1-0.2,0.3-0.5,0.5-0.9c0.2-0.4,0.4-0.7,0.5-1.1
		s0.3-0.8,0.4-1.2c0.1-0.4,0.1-0.8,0.1-1.1c-0.3-0.1-0.6-0.4-0.8-0.7c-0.3-0.4-0.4-0.7-0.4-1c0-0.3,0.1-0.5,0.4-0.7
		c0.2-0.1,0.5-0.2,0.8-0.1c0.3,0.1,0.6,0.2,0.9,0.6C71.8,7.8,71.9,8,72,8.2c0.1,0.2,0.2,0.4,0.2,0.5C72.5,8.9,73,8.9,73.4,9
		c0.5,0,0.9,0.1,1.4,0c0.5,0,0.9,0,1.3-0.1s0.7-0.1,0.9-0.1c0.6-0.1,0.9-0.1,1,0.1c0,0.1-0.2,0.3-0.8,0.5c-0.8,0.3-1.6,0.5-2.5,0.7
		c-0.8,0.1-1.7,0.1-2.4,0c-0.1,0.8-0.3,1.5-0.6,2.2c-0.3,0.7-0.6,1.4-0.9,2c-0.7,1.3-1.6,2.6-2.6,3.9c-1,1.2-2,2.4-3.1,3.5
		c-1.5,1.4-2.9,2.3-4,2.7c-1.1,0.4-1.9,0.5-2.5,0c-0.6-0.4-0.9-1.3-0.9-2.6c0-1.3,0.3-3,1-5c0.2-0.6,0.4-1.1,0.6-1.6
		c0.2-0.5,0.4-1,0.7-1.6c-0.7,1.1-1.4,2.1-2,3c-0.6,0.9-1.1,1.7-1.6,2.4c-0.5,0.7-1,1.4-1.5,2c-0.5,0.6-1,1.2-1.5,1.7
		c-0.4,0.4-0.8,0.7-1.2,1c-0.5,0.3-1,0.6-1.5,0.7c-0.5,0.2-1,0.2-1.5,0.1c-0.5-0.1-0.9-0.4-1.3-1c-0.4-0.6-0.6-1.4-0.5-2.2
		c0.1-0.9,0.3-1.7,0.7-2.6c0.3-0.9,0.7-1.7,1.2-2.5c0.5-0.8,0.9-1.4,1.2-1.9c0.8-1.2,1.6-2.5,2.6-3.7c0.9-1.2,1.9-2.3,3-3.3
		c0.1-0.1,0.3-0.2,0.5-0.2c0.2,0,0.3,0.1,0.5,0.2C57,7.4,57,7.6,57.1,7.8C57.1,8,57,8.1,56.9,8.3z"/>
	<path class="st0" d="M88.7,8.8c-1.4-0.5-2.8-0.6-4.1-0.3c-1.3,0.3-2.6,0.8-3.8,1.6c-1.2,0.8-2.2,1.7-3.2,2.8
		c-1,1.1-1.8,2.2-2.5,3.3c-0.4,0.6-0.7,1.1-1,1.7c-0.3,0.6-0.6,1.2-0.8,1.9c-0.1,0.2-0.1,0.5-0.2,0.8c-0.1,0.3-0.2,0.6-0.2,1
		c0,0.3,0,0.6,0,0.9s0.2,0.5,0.4,0.7c0.2,0.2,0.5,0.2,0.8,0.2c0.3-0.1,0.5-0.2,0.8-0.4c0.3-0.2,0.5-0.4,0.7-0.6
		c0.2-0.2,0.4-0.4,0.6-0.6c1-1.1,2.1-2.2,3.1-3.3c1.1-1.2,2.1-2.3,3.1-3.3c0.2-0.2,0.5-0.5,0.8-0.7c0.3-0.2,0.6-0.4,0.9-0.6
		c0.3-0.2,0.7-0.3,1-0.3c0.4-0.1,0.7,0,1.1,0.1c0.4,0.1,0.5,0.4,0.4,0.8c-0.2,0.5-0.4,1.1-0.8,1.6c-0.4,0.5-0.7,1-0.9,1.5
		c-0.4,0.8-0.8,1.5-1.2,2.3c-0.4,0.7-0.7,1.5-0.9,2.3c-0.1,0.4-0.1,0.6-0.1,0.8c0.1,0.2,0.2,0.4,0.3,0.5c0.2,0.1,0.4,0.1,0.6,0.1
		c0.2,0,0.4-0.1,0.7-0.2c0.3-0.1,0.6-0.3,0.9-0.5c0.3-0.2,0.6-0.4,0.9-0.7c0.3-0.2,0.6-0.5,0.8-0.7c0.3-0.2,0.5-0.5,0.7-0.7
		c0.8-0.8,1.6-1.6,2.3-2.5c0.7-0.9,1.4-1.8,2-2.7c0-0.1,0.1-0.1,0.2-0.1c0.1,0,0.1,0.1,0.2,0.1c0,0.1,0,0.2-0.1,0.4
		c-0.1,0.2-0.2,0.3-0.2,0.3c-0.3,0.6-0.7,1.1-1.1,1.7c-0.4,0.6-0.9,1.3-1.4,2c-0.6,0.8-1.2,1.5-1.9,2.2c-0.7,0.7-1.4,1.3-2.1,1.8
		c-0.7,0.5-1.4,0.8-2.1,0.8c-0.7,0-1.2-0.1-1.5-0.3c-0.3-0.3-0.5-0.6-0.5-1.1c-0.1-0.5,0-1,0.2-1.7s0.4-1.3,0.7-1.9
		c0.3-0.7,0.6-1.3,0.9-2c0.4-0.7,0.7-1.3,1-1.8c0.4-0.7,0.6-1.1,0.5-1.2c-0.1-0.1-0.5,0.2-1.2,0.8c-0.8,0.7-1.6,1.4-2.2,2.2
		c-0.7,0.8-1.3,1.5-2,2.3c-0.6,0.7-1.3,1.5-1.9,2.2c-0.7,0.7-1.3,1.4-2.1,2c-0.4,0.3-0.7,0.5-1.1,0.5c-0.4,0.1-0.8,0-1.1-0.1
		c-0.4-0.1-0.7-0.4-0.9-0.7c-0.3-0.3-0.4-0.8-0.5-1.3c-0.1-0.5-0.1-1.1,0-1.7c0.1-0.6,0.3-1.2,0.5-1.8c0.2-0.6,0.5-1.2,0.7-1.7
		c0.2-0.5,0.5-0.9,0.7-1.2c0.6-1.1,1.4-2.2,2.4-3.3c0.9-1.1,1.9-2.1,3-2.9c1.1-0.9,2.2-1.5,3.5-2.1C83.5,7.3,84.7,7,86,7.1
		c0.5,0,1.1,0.1,1.6,0.3c0.6,0.2,1,0.4,1.4,0.6c0.2,0.1,0.3,0.3,0.3,0.6C89.2,8.8,89,8.9,88.7,8.8z"/>
	<path class="st0" d="M97.3,9.3c-0.1,0.5-0.3,0.9-0.6,1.4c-0.3,0.4-0.6,0.9-0.9,1.3c-0.4,0.7-0.8,1.3-1.3,1.9
		c-0.4,0.6-0.9,1.3-1.3,1.9c-0.2,0.3-0.4,0.6-0.7,1c-0.3,0.4-0.5,0.8-0.8,1.3s-0.5,0.9-0.7,1.4c-0.2,0.5-0.3,1-0.4,1.4
		c-0.1,1,0.1,1.7,0.5,2.1c0.4,0.4,1.1,0.5,1.9,0.2c0.3-0.1,0.7-0.3,1-0.5c0.4-0.2,0.7-0.5,1-0.8c0.3-0.3,0.6-0.6,0.9-0.8
		c0.3-0.3,0.5-0.5,0.7-0.7c0.8-0.8,1.5-1.6,2.3-2.5c0.7-0.9,1.4-1.7,2.2-2.6c0.1-0.1,0.2-0.2,0.4,0c0.1,0.1,0.1,0.3-0.1,0.5
		c-0.2,0.3-0.5,0.6-0.7,1c-0.3,0.4-0.6,0.7-0.9,1.1c-0.3,0.4-0.6,0.7-0.9,1.1c-0.3,0.4-0.6,0.7-0.9,1c-0.4,0.4-0.8,0.9-1.2,1.5
		c-0.5,0.6-0.9,1.1-1.5,1.6c-0.5,0.5-1.1,0.9-1.7,1.2c-0.6,0.3-1.2,0.4-1.9,0.3c-0.7-0.1-1.2-0.3-1.6-0.7s-0.6-0.8-0.7-1.3
		c-0.1-0.5-0.1-1.1-0.1-1.7c0.1-0.6,0.2-1.1,0.4-1.6c0.5-1.3,1.1-2.5,1.9-3.6c0.8-1.1,1.5-2.3,2.3-3.4c0.4-0.5,0.7-1,1-1.5
		c0.3-0.5,0.6-1,0.8-1.6C95.9,9,96,8.9,96,8.8c0-0.1,0.1-0.2,0.2-0.3c0.3-0.2,0.5-0.2,0.8,0S97.4,9,97.3,9.3z M97.8,4.1
		c0.3-0.3,0.5-0.4,0.8-0.4c0.3,0,0.5,0.1,0.7,0.3c0.2,0.2,0.2,0.4,0.2,0.7c0,0.3-0.2,0.6-0.5,0.8c-0.3,0.2-0.6,0.4-0.8,0.3
		c-0.3,0-0.5-0.1-0.6-0.3c-0.1-0.2-0.2-0.4-0.2-0.7C97.5,4.7,97.6,4.4,97.8,4.1z"/>
	<path class="st0" d="M106.3,9.3c-0.1,0.5-0.3,0.9-0.6,1.4c-0.3,0.4-0.6,0.9-0.9,1.3c-0.4,0.7-0.8,1.3-1.3,1.9
		c-0.4,0.6-0.9,1.3-1.3,1.9c-0.2,0.3-0.4,0.6-0.7,1c-0.3,0.4-0.5,0.8-0.8,1.3s-0.5,0.9-0.7,1.4c-0.2,0.5-0.3,1-0.4,1.4
		c-0.1,1,0.1,1.7,0.5,2.1c0.4,0.4,1.1,0.5,1.9,0.2c0.3-0.1,0.7-0.3,1-0.5c0.4-0.2,0.7-0.5,1-0.8c0.3-0.3,0.6-0.6,0.9-0.8
		c0.3-0.3,0.5-0.5,0.7-0.7c0.8-0.8,1.5-1.6,2.3-2.5s1.4-1.7,2.2-2.6c0.1-0.1,0.2-0.2,0.4,0c0.1,0.1,0.1,0.3-0.1,0.5
		c-0.2,0.3-0.5,0.6-0.7,1c-0.3,0.4-0.6,0.7-0.9,1.1c-0.3,0.4-0.6,0.7-0.9,1.1c-0.3,0.4-0.6,0.7-0.9,1c-0.4,0.4-0.8,0.9-1.2,1.5
		c-0.5,0.6-0.9,1.1-1.5,1.6c-0.5,0.5-1.1,0.9-1.7,1.2c-0.6,0.3-1.2,0.4-1.9,0.3c-0.7-0.1-1.2-0.3-1.6-0.7s-0.6-0.8-0.7-1.3
		c-0.1-0.5-0.1-1.1-0.1-1.7c0.1-0.6,0.2-1.1,0.4-1.6c0.5-1.3,1.1-2.5,1.9-3.6c0.8-1.1,1.5-2.3,2.3-3.4c0.4-0.5,0.7-1,1-1.5
		c0.3-0.5,0.6-1,0.8-1.6c0-0.1,0.1-0.2,0.1-0.3c0-0.1,0.1-0.2,0.2-0.3c0.3-0.2,0.5-0.2,0.8,0S106.4,9,106.3,9.3z M106.9,4.1
		c0.3-0.3,0.5-0.4,0.8-0.4c0.3,0,0.5,0.1,0.7,0.3c0.2,0.2,0.2,0.4,0.2,0.7c0,0.3-0.2,0.6-0.5,0.8c-0.3,0.2-0.6,0.4-0.8,0.3
		c-0.3,0-0.5-0.1-0.6-0.3c-0.1-0.2-0.2-0.4-0.2-0.7C106.5,4.7,106.6,4.4,106.9,4.1z"/>
	<path class="st0" d="M121.9,24.5c-0.5,0-0.9-0.1-1.3-0.4c-0.4-0.3-0.8-0.7-1.1-1.2c-0.3-0.5-0.6-1-0.7-1.6
		c-0.2-0.6-0.2-1.3-0.2-1.9c0-1.3,0.3-2.6,0.7-3.9c0.4-1.2,1-2.4,1.8-3.5c0.7-1.1,1.6-2.1,2.5-3c0.9-0.9,1.9-1.7,3-2.5
		c0.7-0.5,1.4-0.9,2.3-1.4c0.9-0.5,1.8-0.9,2.7-1.3c1-0.4,1.9-0.7,3-1c1-0.3,2-0.4,3-0.5c1,0,1.9,0.1,2.8,0.3s1.7,0.7,2.3,1.3
		c0.7,0.7,1.2,1.4,1.5,2.2c0.3,0.8,0.4,1.6,0.4,2.5s-0.2,1.7-0.5,2.6c-0.3,0.9-0.7,1.7-1.1,2.6c-0.4,0.8-0.9,1.6-1.5,2.3
		c-0.5,0.7-1,1.4-1.5,1.9c-1,1.1-2,2.1-3.2,3c-1.1,0.9-2.4,1.7-3.7,2.3c-0.5,0.2-1,0.4-1.5,0.6c-0.5,0.2-1.1,0.3-1.7,0.3
		c-0.6,0.1-1.1,0-1.6-0.1c-0.5-0.1-1-0.3-1.4-0.7c-0.6-0.5-0.8-1.1-0.8-1.8c0-0.7,0.2-1.4,0.4-2.2c0.3-0.7,0.6-1.5,1.1-2.1
		c0.4-0.7,0.8-1.2,1.1-1.7c0.8-1.2,1.6-2.3,2.6-3.3c0.9-1.1,1.9-2.1,2.9-3.1c0.1-0.1,0.2-0.2,0.4-0.2c0.1,0,0.2,0.1,0.3,0.1
		c0.1,0.1,0.1,0.2,0.1,0.3c0,0.1,0,0.3,0,0.4c0,0.1-0.1,0.1-0.1,0.2c-0.1,0.1-0.1,0.2-0.2,0.2c-0.3,0.4-0.7,0.9-1,1.3
		c-0.4,0.5-0.7,0.9-1.1,1.4c-0.7,1-1.5,2.1-2.3,3.1c-0.8,1.1-1.4,2.2-1.9,3.4c-0.1,0.2-0.1,0.4-0.2,0.6c-0.1,0.2-0.2,0.4-0.2,0.7
		c-0.1,0.2-0.1,0.5-0.1,0.7s0.1,0.4,0.2,0.5c0.2,0.3,0.6,0.5,1.1,0.5c0.5,0,0.9,0,1.2,0c0.6-0.1,1.2-0.2,1.8-0.5
		c0.6-0.2,1.2-0.5,1.7-0.9c0.6-0.3,1.1-0.7,1.6-1.1c0.5-0.4,1-0.8,1.4-1.2c1-0.9,1.9-1.8,2.7-2.7c0.8-1,1.5-2,2.1-3.1
		c0.3-0.5,0.5-1.1,0.7-1.7c0.2-0.6,0.4-1.2,0.5-1.8c0.1-0.6,0.1-1.2,0.1-1.8c-0.1-0.6-0.2-1.2-0.5-1.8c-0.3-0.6-0.7-1-1.1-1.3
		c-0.4-0.3-0.9-0.5-1.5-0.7C139,4.1,138.4,4,137.8,4c-0.6,0-1.1,0-1.7,0.1c-1.3,0.2-2.6,0.5-3.8,1c-1.2,0.5-2.4,1.1-3.6,1.8
		c-1.1,0.6-2.2,1.4-3.3,2.3c-1.1,0.9-2.1,1.8-3,2.9c-0.9,1-1.6,2.2-2.1,3.4c-0.6,1.2-0.8,2.5-0.8,3.9c0,0.5,0,0.9,0.1,1.3
		c0.1,0.4,0.2,0.7,0.4,1c0.2,0.3,0.4,0.6,0.7,0.9c0.3,0.3,0.6,0.6,1.1,0.8c0.1,0.1,0.2,0.2,0.3,0.2c0.1,0.1,0.2,0.2,0.2,0.3
		c0,0.1,0,0.3-0.1,0.4C122.2,24.5,122,24.5,121.9,24.5z"/>
	<path class="st0" d="M146,22c0.6,0.7,1.4,1.1,2.3,1.2c0.9,0.1,1.8,0,2.7-0.2c0.9-0.2,1.8-0.6,2.7-1.1c0.9-0.5,1.6-0.9,2.2-1.4
		c1.7-1.2,3.1-2.7,4.4-4.4c0.2-0.2,0.3-0.5,0.4-0.6c0.1-0.2,0.2-0.3,0.2-0.4c0.1-0.2,0.3-0.3,0.4-0.2c0.1,0.1,0.1,0.2,0,0.5
		c-0.1,0.3-0.3,0.6-0.5,0.9c-0.2,0.3-0.4,0.5-0.4,0.6c-0.6,0.8-1.2,1.6-1.9,2.4c-0.7,0.8-1.5,1.5-2.3,2.1c-0.8,0.7-1.7,1.2-2.6,1.7
		c-0.9,0.5-1.9,0.8-2.9,1.1c-0.9,0.2-1.8,0.3-2.7,0.1c-0.9-0.1-1.6-0.4-2.3-0.9c-0.7-0.4-1.2-1-1.5-1.8c-0.4-0.8-0.5-1.7-0.4-2.7
		c0.1-1,0.3-2,0.7-3.1c0.4-1,0.9-2,1.5-3c0.6-0.9,1.3-1.8,2-2.6c0.8-0.8,1.6-1.5,2.4-2c0.4-0.3,0.9-0.5,1.3-0.7
		c0.5-0.2,1-0.4,1.5-0.5c0.5-0.1,1-0.1,1.5,0c0.5,0.1,1,0.2,1.4,0.5c0.5,0.4,0.9,0.8,1.1,1.3c0.2,0.5,0.3,1,0.3,1.6
		c0,0.6-0.1,1.1-0.3,1.7c-0.2,0.6-0.5,1.1-0.8,1.5c-0.6,0.9-1.3,1.7-2.1,2.2c-0.8,0.6-1.7,0.9-2.6,1.2c-0.9,0.2-1.9,0.3-2.9,0.2
		c-1-0.1-1.9-0.4-2.9-0.8c-0.2,0.4-0.3,0.9-0.5,1.4c-0.1,0.5-0.2,1-0.2,1.4c0,0.5,0,1,0.1,1.4C145.5,21.3,145.7,21.7,146,22z
		 M155.5,13.1c0.2-0.3,0.4-0.7,0.5-1.2c0.2-0.4,0.2-0.9,0.2-1.3s-0.1-0.8-0.3-1.2c-0.2-0.4-0.5-0.6-1-0.8c-0.5-0.2-1-0.2-1.5-0.1
		c-0.5,0.1-1,0.3-1.4,0.6c-0.5,0.3-0.9,0.6-1.3,0.9c-0.4,0.4-0.8,0.7-1.1,1c-0.7,0.7-1.3,1.4-1.8,2.2c-0.6,0.8-1,1.6-1.5,2.5
		c0.8,0.4,1.7,0.6,2.5,0.7s1.7,0,2.6-0.2c0.8-0.2,1.6-0.6,2.3-1.1C154.4,14.6,155,13.9,155.5,13.1z"/>
	<path class="st0" d="M174.4,7.3c0.2-0.1,0.4,0,0.6,0.1c0.2,0.1,0.4,0.4,0.6,0.7c0.1,0.4,0.2,0.9,0.2,1.5c0,0.6-0.1,1.4-0.3,2.3
		c0.3,0.5,0.6,1,0.9,1.4c0.3,0.4,0.6,0.8,0.9,1.2s0.6,0.6,0.8,0.9c0.2,0.2,0.5,0.4,0.6,0.5c0.2,0.1,0.2,0.2,0.2,0.3
		c0,0.1-0.1,0.2-0.2,0.2c-0.1,0.1-0.2,0.1-0.4,0c-0.2,0-0.3-0.1-0.5-0.2c-0.6-0.4-1.1-0.8-1.6-1.3c-0.5-0.4-1-1.1-1.5-1.8
		c-0.5,1-1.1,2-1.8,2.9c-0.7,1-1.5,1.9-2.3,2.8c-0.8,0.9-1.6,1.8-2.5,2.5c-0.9,0.8-1.7,1.4-2.4,1.9c-0.5,0.3-1,0.6-1.6,0.9
		s-1.2,0.5-1.8,0.6c-0.6,0.1-1.1,0-1.7-0.2c-0.5-0.2-0.9-0.7-1.2-1.4c-0.4-0.8-0.5-1.7-0.4-2.6c0.1-0.9,0.3-1.8,0.5-2.6
		c0.2-0.9,0.5-1.7,0.9-2.5c0.3-0.8,0.7-1.6,1.1-2.4c0.5-0.9,0.9-1.8,1.5-2.7c0.5-0.9,1.1-1.7,1.8-2.5c0.1-0.1,0.3-0.3,0.4-0.5
		c0.2-0.2,0.4-0.3,0.6-0.3c0.2-0.1,0.4-0.1,0.5,0c0.2,0.1,0.3,0.2,0.3,0.3c0.1,0.1,0.1,0.3,0.1,0.4c0,0.2-0.1,0.3-0.3,0.4
		c-0.5,0.3-1,0.9-1.5,1.6c-0.5,0.7-1,1.5-1.4,2.3c-0.5,0.8-0.9,1.7-1.2,2.5s-0.6,1.5-0.9,2c-0.2,0.6-0.4,1.2-0.6,1.9
		c-0.2,0.7-0.3,1.4-0.4,2.1c-0.1,0.7-0.1,1.3,0,1.8c0.1,0.6,0.3,0.9,0.6,1.2c0.3,0.2,0.7,0.3,1.3,0.1c0.6-0.2,1.3-0.6,2.3-1.3
		c0.9-0.7,1.7-1.4,2.4-2.1s1.5-1.5,2.2-2.3c0.1-0.1,0.4-0.4,0.8-0.9c0.4-0.5,0.8-1,1.2-1.6c0.4-0.6,0.9-1.2,1.3-1.9
		c0.4-0.7,0.8-1.3,1.1-2c-0.2-0.5-0.4-1-0.4-1.5c-0.1-0.5-0.1-0.9-0.1-1.4c0-0.4,0.1-0.7,0.3-1C173.9,7.6,174.1,7.4,174.4,7.3z"/>
	<path class="st0" d="M178.7,22c0.6,0.7,1.4,1.1,2.3,1.2c0.9,0.1,1.8,0,2.7-0.2c0.9-0.2,1.8-0.6,2.7-1.1c0.9-0.5,1.6-0.9,2.2-1.4
		c1.7-1.2,3.1-2.7,4.4-4.4c0.2-0.2,0.3-0.5,0.4-0.6c0.1-0.2,0.2-0.3,0.2-0.4c0.1-0.2,0.3-0.3,0.4-0.2c0.1,0.1,0.1,0.2,0,0.5
		c-0.1,0.3-0.3,0.6-0.5,0.9s-0.4,0.5-0.4,0.6c-0.6,0.8-1.2,1.6-1.9,2.4c-0.7,0.8-1.5,1.5-2.3,2.1c-0.8,0.7-1.7,1.2-2.6,1.7
		c-0.9,0.5-1.9,0.8-2.9,1.1c-0.9,0.2-1.8,0.3-2.7,0.1c-0.9-0.1-1.6-0.4-2.3-0.9c-0.7-0.4-1.2-1-1.5-1.8s-0.5-1.7-0.4-2.7
		c0.1-1,0.3-2,0.7-3.1c0.4-1,0.9-2,1.5-3c0.6-0.9,1.3-1.8,2-2.6c0.8-0.8,1.6-1.5,2.4-2c0.4-0.3,0.9-0.5,1.3-0.7
		c0.5-0.2,1-0.4,1.5-0.5c0.5-0.1,1-0.1,1.5,0c0.5,0.1,1,0.2,1.4,0.5c0.5,0.4,0.9,0.8,1.1,1.3c0.2,0.5,0.3,1,0.3,1.6
		c0,0.6-0.1,1.1-0.3,1.7c-0.2,0.6-0.5,1.1-0.8,1.5c-0.6,0.9-1.3,1.7-2.1,2.2c-0.8,0.6-1.7,0.9-2.6,1.2c-0.9,0.2-1.9,0.3-2.9,0.2
		c-1-0.1-1.9-0.4-2.9-0.8c-0.2,0.4-0.3,0.9-0.5,1.4c-0.1,0.5-0.2,1-0.2,1.4c0,0.5,0,1,0.1,1.4C178.1,21.3,178.4,21.7,178.7,22z
		 M188.2,13.1c0.2-0.3,0.4-0.7,0.5-1.2c0.2-0.4,0.2-0.9,0.2-1.3s-0.1-0.8-0.3-1.2c-0.2-0.4-0.5-0.6-1-0.8c-0.5-0.2-1-0.2-1.5-0.1
		c-0.5,0.1-1,0.3-1.4,0.6c-0.5,0.3-0.9,0.6-1.3,0.9c-0.4,0.4-0.8,0.7-1.1,1c-0.7,0.7-1.3,1.4-1.8,2.2c-0.6,0.8-1,1.6-1.5,2.5
		c0.8,0.4,1.7,0.6,2.5,0.7s1.7,0,2.6-0.2c0.8-0.2,1.6-0.6,2.3-1.1C187.1,14.6,187.7,13.9,188.2,13.1z"/>
	<path class="st0" d="M195,15.3c-0.6,1.3-1.1,2.5-1.5,3.5s-0.6,1.9-0.6,2.8c0,0.5,0,0.8,0.2,1.1c0.1,0.3,0.3,0.4,0.6,0.5
		c0.3,0.1,0.6,0.1,0.9,0.1s0.7-0.2,1-0.4c0.7-0.4,1.4-0.9,2-1.5c0.6-0.6,1.2-1.2,1.7-1.9c0.5-0.7,1-1.3,1.5-2s0.9-1.4,1.4-2
		c0.2-0.3,0.3-0.4,0.5-0.3c0.1,0.1,0.1,0.3-0.1,0.6c-0.4,0.7-0.8,1.4-1.3,2.2c-0.5,0.8-1.1,1.6-1.7,2.4c-0.6,0.8-1.2,1.5-1.9,2.2
		c-0.7,0.7-1.4,1.2-2.1,1.6c-0.4,0.2-0.7,0.3-1.1,0.3c-0.4,0-0.8,0-1.1-0.2c-0.3-0.1-0.6-0.3-0.9-0.6c-0.3-0.3-0.5-0.6-0.6-1
		c-0.1-0.4-0.1-0.8-0.1-1.2c0-0.4,0.1-0.8,0.2-1.3c0.1-0.4,0.2-0.8,0.3-1.2c0.1-0.4,0.2-0.8,0.4-1.2c0.6-1.8,1.4-3.5,2.3-5.2
		s1.8-3.3,2.7-5c0.1-0.2,0.3-0.5,0.6-1c0.2-0.5,0.5-1,0.9-1.6c0.3-0.6,0.7-1.1,1.1-1.7c0.4-0.6,0.8-1,1.2-1.4
		c0.4-0.4,0.8-0.7,1.2-0.8c0.4-0.1,0.8-0.1,1.2,0.2c0.2,0.2,0.4,0.4,0.4,0.7s-0.1,0.6-0.2,0.9c-0.1,0.3-0.3,0.6-0.5,0.9
		c-0.2,0.3-0.3,0.5-0.5,0.7c-1.2,2-2.5,3.9-3.8,5.6C197.8,11.9,196.4,13.6,195,15.3z M202.4,3.6c0.2-0.5,0.4-0.8,0.5-1
		c0.1-0.2,0-0.3-0.1-0.3c-0.1,0-0.2,0.1-0.4,0.3c-0.2,0.2-0.4,0.5-0.7,0.9c-0.7,1.1-1.5,2.3-2.3,3.8s-1.8,3.2-2.8,5
		c1.1-1.6,2.1-3,3.1-4.5C200.6,6.5,201.5,5.1,202.4,3.6z"/>
	<path class="st0" d="M220.9,9c0.2-0.1,0.3-0.1,0.4,0c0.1,0,0.1,0.1,0,0.2c0,0.1-0.1,0.2-0.2,0.3c-0.1,0.1-0.3,0.2-0.4,0.3
		c-0.3,0.2-0.7,0.3-1.2,0.5c-0.5,0.2-1,0.3-1.5,0.5c-0.6,0.1-1.1,0.2-1.7,0.3c-0.6,0.1-1.2,0.1-1.7,0c0,0.9-0.1,1.8-0.3,2.7
		c-0.2,0.9-0.5,1.7-0.8,2.4c-0.3,0.7-0.7,1.5-1.1,2.2c-0.4,0.8-0.9,1.5-1.4,2.2c-0.5,0.7-1.1,1.3-1.7,1.9c-0.6,0.6-1.3,1.1-2,1.5
		c-0.5,0.3-1.1,0.5-1.7,0.6c-0.6,0.1-1.1,0.1-1.7-0.1c-0.5-0.1-1-0.4-1.5-0.7c-0.4-0.4-0.8-0.8-1.1-1.4c-0.4-0.8-0.5-1.6-0.5-2.5
		c0-0.9,0.2-1.7,0.4-2.6c0.2-0.9,0.6-1.7,1-2.5c0.4-0.8,0.8-1.5,1.2-2.2c0.4-0.6,0.9-1.3,1.6-2.1c0.6-0.7,1.3-1.4,2.1-1.9
		c0.7-0.6,1.5-1,2.4-1.2c0.9-0.2,1.7-0.2,2.6,0.1c0.2,0.1,0.3,0.2,0.3,0.4c0.5,0.2,0.9,0.4,1.2,0.7c0.3,0.3,0.5,0.7,0.7,1.1
		c0.5,0.1,1,0.2,1.7,0.2c0.6,0,1.2,0,1.8-0.1c0.6-0.1,1.2-0.2,1.8-0.3C220,9.3,220.5,9.2,220.9,9z M205.7,11.8
		c-0.8,1.1-1.6,2.2-2.2,3.5c-0.6,1.2-1,2.5-1.3,3.9c0,0.3-0.1,0.6-0.1,0.9c0,0.3,0,0.6,0,1c0,0.3,0.1,0.6,0.2,0.9
		c0.1,0.3,0.2,0.6,0.5,0.8c0.4,0.5,0.9,0.7,1.5,0.7c0.6,0,1.1-0.2,1.7-0.4c1.2-0.6,2.2-1.4,3.1-2.5c0.9-1.1,1.7-2.2,2.3-3.3
		c0.2-0.3,0.4-0.7,0.6-1.3c0.2-0.5,0.5-1.1,0.7-1.7c0.2-0.6,0.4-1.2,0.5-1.8c0.1-0.6,0.1-1.2,0-1.7c-0.5-0.2-1-0.5-1.3-0.9
		c-0.4-0.4-0.6-0.9-0.7-1.6c-1.1,0.1-2.1,0.6-3,1.2C207.2,10.2,206.4,11,205.7,11.8z"/>
	<path class="st0" d="M205.7,31.4c-0.4-0.2-0.6-0.4-0.8-0.7c-0.2-0.3-0.3-0.7-0.3-1s0-0.8,0.1-1.1c0.1-0.4,0.2-0.7,0.5-1.1
		c0.4-0.6,0.8-1,1.4-1.4c0.6-0.4,1.2-0.7,1.8-0.9c0.7-0.2,1.3-0.3,2-0.3s1.4,0,2,0.1c0.3-0.7,0.7-1.5,1.1-2.3
		c0.4-0.8,0.8-1.6,1.2-2.5c0.4-0.8,0.9-1.6,1.3-2.4c0.4-0.8,0.8-1.6,1.2-2.3c0.3-0.6,0.6-1.2,0.9-1.8c0.3-0.6,0.6-1.2,0.9-1.7
		c0.3-0.6,0.5-1.1,0.7-1.6c0.2-0.5,0.4-0.9,0.5-1.3c0-0.2,0.1-0.3,0.3-0.4c0.1-0.1,0.3-0.2,0.5-0.2c0.2,0,0.3,0,0.4,0.1
		c0.1,0.1,0.2,0.3,0.2,0.5c0,0.4-0.1,0.7-0.2,1.1c-0.1,0.4-0.3,0.7-0.4,1.1c-0.2,0.4-0.3,0.7-0.5,1.1c-0.2,0.3-0.4,0.7-0.5,1
		c0.2-0.2,0.5-0.6,0.9-1.2c0.4-0.5,0.8-1.1,1.3-1.7c0.5-0.6,1-1.1,1.6-1.7c0.6-0.5,1.2-0.9,1.8-1.2c0.6-0.3,1.2-0.4,1.7-0.3
		c0.6,0.1,1.1,0.4,1.5,1c0.3,0.4,0.5,0.9,0.6,1.4c0.1,0.5,0.1,1,0,1.6c-0.1,0.5-0.2,1.1-0.3,1.6c-0.1,0.5-0.3,1-0.4,1.4
		c-0.3,0.9-0.7,1.8-1.1,2.7c-0.4,0.9-0.9,1.7-1.5,2.6c-0.6,0.8-1.2,1.6-1.9,2.2c-0.7,0.7-1.4,1.3-2.2,1.7c1.1-0.1,2.2-0.5,3.3-1
		c1.1-0.5,2.1-1.2,3.1-2c1-0.8,1.9-1.6,2.7-2.5c0.8-0.9,1.5-1.8,2-2.6c0.2-0.3,0.3-0.4,0.4-0.2c0.1,0.1,0.1,0.3,0,0.6
		c-0.1,0.2-0.2,0.5-0.4,0.8c-0.2,0.3-0.4,0.6-0.6,0.9c-0.2,0.3-0.4,0.5-0.6,0.7s-0.3,0.4-0.3,0.4c-0.9,1.2-2,2.2-3.2,3.1
		c-1.2,0.9-2.4,1.6-3.8,2.2c-0.8,0.3-1.7,0.6-2.5,0.7c-0.9,0.1-1.7,0.2-2.5,0c-0.7,0.1-1.4,0.1-2.1,0c-0.7-0.1-1.2-0.5-1.7-1
		c-0.3-0.4-0.5-0.8-0.5-1.3c-0.2,0.4-0.5,0.9-0.8,1.6c-0.3,0.7-0.6,1.2-0.8,1.8c0.9,0.4,1.7,0.8,2.4,1.5c0.7,0.6,1.2,1.4,1.5,2.3
		c0.2,0.4,0.3,0.8,0.4,1.3c0.1,0.5,0.1,1,0.1,1.5c0,0.5-0.1,0.9-0.3,1.4c-0.2,0.4-0.5,0.8-0.9,1c-0.2,0.1-0.3,0.1-0.5,0
		c-0.1-0.1-0.2-0.2-0.2-0.4c0-0.2,0-0.4,0.1-0.5c0.1-0.2,0.1-0.3,0.2-0.5c0.2-0.8,0.3-1.5,0.2-2.3c-0.1-0.9-0.5-1.7-1-2.4
		c-0.5-0.7-1.3-1.3-2.3-1.8c-0.3,0.7-0.7,1.4-1.2,2.1c-0.5,0.8-1.2,1.4-1.8,2c-0.7,0.6-1.4,1-2.2,1.3
		C207.2,31.9,206.5,31.8,205.7,31.4z M208.9,26.1c-0.3,0.1-0.7,0.2-1.1,0.4c-0.4,0.2-0.7,0.4-1,0.6c-0.3,0.2-0.6,0.5-0.8,0.9
		c-0.2,0.3-0.3,0.7-0.4,1.2c0,0.5,0.1,0.8,0.4,1.1c0.3,0.2,0.6,0.4,1,0.3c0.6,0,1.1-0.2,1.6-0.5c0.5-0.3,0.9-0.6,1.3-1.1
		c0.4-0.4,0.8-0.9,1.1-1.5c0.3-0.5,0.6-1.1,0.9-1.6C210.9,25.7,209.9,25.7,208.9,26.1z M216.5,21.5c0.7,0.8,1.6,1.3,2.5,1.7
		c1-0.2,2-0.7,2.9-1.4c0.9-0.7,1.7-1.6,2.5-2.6c0.7-1,1.3-2,1.9-3.1c0.5-1.1,0.9-2.1,1.2-3c0.2-0.7,0.3-1.4,0.4-2.1
		c0.1-0.7,0-1.3-0.2-1.7c-0.2-0.5-0.5-0.7-1-0.8c-0.5-0.1-1.1,0.2-2,0.8c-0.6,0.4-1.2,0.9-1.7,1.4c-0.6,0.6-1.1,1.1-1.6,1.8
		c-0.5,0.6-1,1.3-1.5,2c-0.5,0.7-0.9,1.4-1.4,2.1c-1,1.6-1.9,3.2-2.8,4.8c0.2-0.1,0.4-0.1,0.5,0C216.3,21.3,216.4,21.4,216.5,21.5z"
		/>
	<path class="st0" d="M234.1,22c0.6,0.7,1.4,1.1,2.3,1.2c0.9,0.1,1.8,0,2.7-0.2c0.9-0.2,1.8-0.6,2.7-1.1c0.9-0.5,1.6-0.9,2.2-1.4
		c1.7-1.2,3.1-2.7,4.4-4.4c0.2-0.2,0.3-0.5,0.4-0.6c0.1-0.2,0.2-0.3,0.2-0.4c0.1-0.2,0.3-0.3,0.4-0.2c0.1,0.1,0.1,0.2,0,0.5
		c-0.1,0.3-0.3,0.6-0.5,0.9s-0.4,0.5-0.4,0.6c-0.6,0.8-1.2,1.6-1.9,2.4c-0.7,0.8-1.5,1.5-2.3,2.1c-0.8,0.7-1.7,1.2-2.6,1.7
		c-0.9,0.5-1.9,0.8-2.9,1.1c-0.9,0.2-1.8,0.3-2.7,0.1c-0.9-0.1-1.6-0.4-2.3-0.9c-0.7-0.4-1.2-1-1.5-1.8s-0.5-1.7-0.4-2.7
		c0.1-1,0.3-2,0.7-3.1c0.4-1,0.9-2,1.5-3c0.6-0.9,1.3-1.8,2-2.6c0.8-0.8,1.6-1.5,2.4-2c0.4-0.3,0.9-0.5,1.3-0.7
		c0.5-0.2,1-0.4,1.5-0.5c0.5-0.1,1-0.1,1.5,0c0.5,0.1,1,0.2,1.4,0.5c0.5,0.4,0.9,0.8,1.1,1.3c0.2,0.5,0.3,1,0.3,1.6
		c0,0.6-0.1,1.1-0.3,1.7c-0.2,0.6-0.5,1.1-0.8,1.5c-0.6,0.9-1.3,1.7-2.1,2.2c-0.8,0.6-1.7,0.9-2.6,1.2c-0.9,0.2-1.9,0.3-2.9,0.2
		c-1-0.1-1.9-0.4-2.9-0.8c-0.2,0.4-0.3,0.9-0.5,1.4c-0.1,0.5-0.2,1-0.2,1.4c0,0.5,0,1,0.1,1.4C233.6,21.3,233.8,21.7,234.1,22z
		 M243.6,13.1c0.2-0.3,0.4-0.7,0.5-1.2c0.2-0.4,0.2-0.9,0.2-1.3s-0.1-0.8-0.3-1.2c-0.2-0.4-0.5-0.6-1-0.8c-0.5-0.2-1-0.2-1.5-0.1
		c-0.5,0.1-1,0.3-1.4,0.6c-0.5,0.3-0.9,0.6-1.3,0.9c-0.4,0.4-0.8,0.7-1.1,1c-0.7,0.7-1.3,1.4-1.8,2.2c-0.6,0.8-1,1.6-1.5,2.5
		c0.8,0.4,1.7,0.6,2.5,0.7c0.9,0.1,1.7,0,2.6-0.2c0.8-0.2,1.6-0.6,2.3-1.1C242.5,14.6,243.1,13.9,243.6,13.1z"/>
	<path class="st0" d="M246.7,18.1c0.5-0.6,0.9-1.2,1.4-1.9c0.4-0.7,0.8-1.4,1.2-2c0.4-0.7,0.8-1.5,1.3-2.4c0.4-0.8,0.8-1.7,1.2-2.5
		c-0.4-0.2-0.6-0.5-0.6-0.9c0-0.3,0.1-0.7,0.2-1c0.2-0.3,0.4-0.6,0.8-0.7c0.3-0.2,0.6-0.3,1-0.3c0.2,0,0.4,0.1,0.6,0.2
		c0.1,0.1,0.2,0.3,0.2,0.5c0,0.2,0,0.4,0,0.6c0,0.2-0.1,0.4-0.2,0.6c0.6,0.1,1.2,0.3,1.8,0.5c0.6,0.2,1.2,0.5,1.6,0.8
		c0.5,0.3,0.8,0.7,1.1,1.2c0.2,0.5,0.3,1,0.1,1.7c-0.2,1-0.6,1.9-1.1,2.8c-0.5,0.9-1,1.8-1.5,2.6c-0.1,0.2-0.3,0.6-0.6,1.1
		c-0.3,0.5-0.6,1-0.8,1.6c-0.2,0.6-0.4,1.1-0.4,1.6c-0.1,0.5,0.1,0.9,0.4,1.1c0.3,0.2,0.7,0.3,1.2,0.2c0.4-0.1,0.9-0.3,1.4-0.6
		c0.5-0.3,0.9-0.7,1.4-1.2c0.5-0.5,0.9-0.9,1.3-1.4c0.4-0.5,0.8-0.9,1.1-1.3c0.3-0.4,0.6-0.7,0.7-0.9c0.4-0.5,0.7-1,1.1-1.4
		c0.3-0.4,0.6-0.8,0.9-1.3c0.1-0.1,0.2-0.2,0.4-0.2c0.1,0,0.2,0.1,0,0.3c-0.2,0.4-0.4,0.8-0.7,1.2c-0.3,0.4-0.5,0.9-0.8,1.3
		c-0.4,0.6-0.8,1.2-1.2,1.8c-0.4,0.6-0.9,1.2-1.4,1.8c-0.5,0.6-1.1,1.1-1.7,1.6c-0.6,0.5-1.2,0.9-1.9,1.1c-0.4,0.1-0.7,0.2-1.1,0.2
		c-0.4,0-0.8-0.1-1.1-0.3c-0.3-0.2-0.5-0.4-0.7-0.7c-0.2-0.3-0.3-0.6-0.3-0.9c0-0.3,0-0.6,0-1c0-0.3,0.1-0.7,0.2-1
		c0.3-0.9,0.6-1.7,1-2.6c0.4-0.8,0.8-1.6,1.3-2.5c0.3-0.6,0.7-1.2,1-1.9c0.4-0.7,0.6-1.4,0.6-2.1c0-0.3-0.2-0.6-0.5-0.9
		c-0.3-0.2-0.7-0.4-1.1-0.6c-0.4-0.2-0.9-0.3-1.3-0.4c-0.4-0.1-0.8-0.2-1-0.2c-0.6,1.1-1.1,2-1.6,2.7c-0.5,0.8-0.9,1.5-1.3,2.2
		c-0.4,0.6-0.8,1.3-1.3,2c-0.5,0.7-1,1.3-1.5,1.9c-0.2,0.2-0.3,0.3-0.4,0.3c-0.1,0-0.2,0-0.3,0s-0.1-0.2-0.1-0.3
		C246.6,18.3,246.6,18.2,246.7,18.1z"/>
	<path class="st0" d="M271,12.6c0.2-0.2,0.4-0.5,0.7-0.8c0.2-0.3,0.5-0.7,0.6-1c0.2-0.4,0.3-0.7,0.3-1.1c0-0.4-0.1-0.7-0.4-1
		c-0.3-0.4-0.7-0.6-1.2-0.6c-0.5,0-1,0.1-1.5,0.3c-0.5,0.2-1,0.4-1.4,0.7c-0.5,0.3-0.8,0.5-1.1,0.7c-0.3,0.2-0.7,0.5-1.1,0.9
		c-0.4,0.4-0.8,0.8-1.2,1.3c-0.3,0.5-0.6,1-0.7,1.5c-0.1,0.5,0,1,0.4,1.4c0.2,0.2,0.4,0.4,0.6,0.4s0.5,0.1,0.8,0.2
		c0.3,0,0.5,0,0.8,0c0.3,0,0.5-0.1,0.7-0.1c0.6-0.1,1.2-0.1,1.7,0c0.6,0.1,1.1,0.3,1.5,0.8c0.5,0.5,0.7,1,0.8,1.6
		c0.1,0.6,0,1.1-0.2,1.7c-0.2,0.6-0.5,1.1-0.8,1.6c-0.4,0.5-0.7,0.9-1.1,1.3c-0.5,0.5-1.2,0.9-1.9,1.3c-0.7,0.4-1.4,0.7-2.1,0.8
		c-0.9,0.1-1.7,0.1-2.6-0.2c-0.9-0.3-1.6-0.8-2-1.6c-0.2-0.2-0.3-0.5-0.3-0.7c0-0.2,0-0.3,0.1-0.4c0.1-0.1,0.2-0.1,0.3-0.1
		c0.1,0,0.3,0.2,0.5,0.4c0.2,0.2,0.4,0.5,0.6,0.7c0.2,0.2,0.5,0.4,0.8,0.5c0.3,0.1,0.7,0.2,1.1,0.3c0.4,0,0.8,0,1.3-0.1
		c0.6-0.1,1.2-0.4,1.8-0.7c0.6-0.4,1.2-0.8,1.7-1.3c0.5-0.5,0.9-1,1.3-1.6c0.3-0.6,0.5-1.2,0.4-1.8c-0.1-0.5-0.2-0.9-0.5-1.1
		s-0.7-0.3-1.1-0.3c-0.4,0-0.8,0-1.3,0s-0.8,0.1-1.2,0.1c-0.6,0-1.2-0.1-1.8-0.4c-0.6-0.2-1-0.7-1.2-1.3c-0.2-0.6-0.3-1.2-0.2-1.8
		c0.1-0.6,0.3-1.2,0.7-1.7c0.3-0.5,0.7-1,1.2-1.5c0.5-0.5,0.9-0.8,1.3-1.2c0.4-0.3,0.9-0.6,1.5-0.9c0.6-0.3,1.1-0.5,1.7-0.7
		c0.6-0.2,1.2-0.2,1.8-0.2c0.6,0,1.1,0.3,1.6,0.7c0.5,0.4,0.8,0.9,0.8,1.4c0.1,0.5,0,1-0.2,1.5c-0.2,0.5-0.5,1-0.9,1.4
		c-0.4,0.4-0.8,0.8-1.2,1.1c-0.1,0.1-0.2,0.1-0.3,0C270.9,12.8,270.9,12.7,271,12.6z"/>
</g>
<text transform="matrix(1 0 0 1 -7.0898 -48.0566)" style="font-family:'AveUtanPERSONALUSEONLY'; font-size:10.6661px;">Kawaii Developers</text>
<text transform="matrix(1 0 0 1 3.2363 -12.8577)" style="font-family:'ANGELTEARS-trial'; font-size:12px;">Kawaii Developers</text>
</svg>
