<?xml version="1.0" encoding="utf-8"?>
<!-- Generator: Adobe Illustrator 19.2.0, SVG Export Plug-In . SVG Version: 6.00 Build 0)  -->
<svg version="1.1" id="Layer_1" xmlns="http://www.w3.org/2000/svg" xmlns:xlink="http://www.w3.org/1999/xlink" x="0px" y="0px"
	 viewBox="0 0 360 100" style="enable-background:new 0 0 360 100;" xml:space="preserve">
<style type="text/css">
	.st0{fill:#D4EFFC;}
	.st1{fill:#0064A6;}
	.st2{fill:#4E9FD3;}
	.st3{fill:#EC0088;}
</style>
<path class="st0" d="M310-0.1C310-0.1,310-0.1,310-0.1L310-0.1H50l0,0c-27.6,0-50,22.4-50,50c0,27.6,22.4,50,50,50l0,0h260l0,0
	c0,0,0,0,0,0c27.6,0,50-22.4,50-50C360,22.3,337.6-0.1,310-0.1z"/>
<g>
	<g>
		<path class="st1" d="M124,47.6h-7.7c2.1,3.9,3.3,8.4,3.3,13.2v28.5h-14.3v-4.3c-3.9,2.1-8.4,3.3-13.2,3.3
			c-15.2,0-27.5-12.3-27.5-27.5c0-15.2,12.3-27.5,27.5-27.5H124V47.6z M79,60.7c0,7.3,5.9,13.2,13.2,13.2c7.3,0,13.2-5.9,13.2-13.2
			c0-7.3-5.9-13.2-13.2-13.2C84.9,47.6,79,53.4,79,60.7z"/>
		<path class="st2" d="M89,38.4c-10,0.4-17,6.1-19.2,19C74.3,39.8,89,38.4,89,38.4z"/>
	</g>
	<g>
		<path class="st3" d="M33.4,89.1c-2.4,0-4-0.4-4.7-1.1l0.8-3.8c1.4-9,2.3-19.6,2.5-31.9c0-0.8,0.1-1.7,0.3-2.6
			c0.2-0.9,0-1.8-0.7-2.5H27c-0.1,0-0.3-0.1-0.5-0.2c-0.2-0.1-0.2-0.4-0.2-0.9c0.1-0.4,0.3-0.7,0.6-0.9c0.3-0.1,0.5-0.6,0.7-1.5
			c0.1-0.8,0.6-1.8,1.4-2.8c0.8-1,1.2-1.9,1.3-2.6c0.1-0.7,0.4-1.1,0.9-1.2c0.5-0.1,1-0.2,1.6-0.2c0.6,0,1.2-0.1,1.7-0.2
			c0.5-0.1,0.8-0.6,0.9-1.2s0.1-1.2-0.2-1.6l3.2-10.7c0.2-0.9,0.5-1.6,1.2-2.3c0.6-0.7,1-1,1.1-1l3.3-3.9l9.2-4.5l2.3-0.9l1.4,0.4
			c5.3,1.5,7.7,3.1,7.5,4.6c-0.1,0.6-0.6,1-1.5,1.2c0.3,0.4,0.4,0.8,0.4,1.3c0,0.5,0,1.1,0,1.7c0,1.4-0.1,2.2-0.1,2.5
			c-0.2,1.2-0.7,1.8-1.5,1.8c-0.8,0-1.2-0.3-1.3-1c-4.6,0-7.4,1.8-8.5,5.5c-0.3,1.1-0.6,2.4-0.9,3.7c-0.2,1.3-0.3,2.4-0.1,3.1
			c0.2,0.7,0.7,1.2,1.4,1.5c1.1,0.5,3.9,0.8,8.4,0.8h1l-0.4,1.9c-0.2,0.9-0.5,3-0.9,6.1c0,0.2-0.6,0.3-1.8,0.4
			c-1.2,0-2.5,0.1-3.9,0.2c-3.7,0.2-5.6,0.8-5.8,1.8c-0.1,0.6-0.1,1.3,0.1,2.2c0.2,0.9,0.1,2.2-0.2,4L42.3,88
			c-0.8,0.7-3.1,1.1-6.8,1.1L33.4,89.1L33.4,89.1z M32.1,42.1l0.8,0.2l-0.2,0.9c-0.1,0-0.6,0.2-1.4,0.6c-1.4,0.9-2.2,1.4-2.2,1.7
			c0.6,0,1.1,0.1,1.5,0.4c0.2-0.2,0.7-0.5,1.4-0.8c0.8-0.3,1.4-0.8,1.9-1.3l8.7-3.8h-1.3c-0.1,0-0.5,0.1-1.3,0.4
			c-0.8,0.3-1.6,0.5-2.5,0.8c-2.3,0.8-3.5,1.3-3.5,1.4H34c-0.1,0-0.1,0-0.2-0.1c0.2-0.9,0.6-1.4,1.4-1.6c0.8-0.2,1.5-0.6,2-1.3
			c-1-0.6-2-0.9-2.9-0.9s-1.8,0.3-2.7,0.9c-1,0.6-1.6,1.8-1.9,3.7C30,43.1,30.8,42.7,32.1,42.1z M34.2,44.6c0,0.1,0.3,0.2,0.9,0.2
			s1.6-0.2,3-0.5c0.1,0.1,0.1,0.2,0.1,0.3c0,0.2-0.5,0.4-1.3,0.5c-1.5,0.4-2.4,0.9-2.6,1.3c-0.1,0.4,0.1,0.9,0.6,1.3
			c0.4-1.3,2.2-2.3,5.2-3l-0.7-0.9c0.9-0.5,2.2-0.9,3.8-1.2l3.7-0.6c2.1-0.4,3.2-0.9,3.5-1.6c0.1-0.3,0.8-0.5,2.1-0.8
			c-1.2-0.2-2.7-1.3-4.5-3.3c-0.4-0.4-0.6-0.5-0.8-0.5s-0.5,0.1-1.1,0.4c-0.6,0.3-1.1,0.6-1.7,1c-0.6,0.4-1.2,0.7-1.7,1
			c-0.6,0.3-0.9,0.5-1,0.6h2.6l-0.1,0.4c0.6-0.8,1.7-1.2,3.1-1.2c-0.6,1.1-4,2.9-10.2,5.4L34.2,44.6z M38.8,37.5
			c-0.2,0.1-0.4,0.7-0.7,1.7h0.4c1.1-0.7,2.3-1.4,3.4-1.9c1.1-0.6,2.2-1.2,3.2-1.9h-4c0.1-0.6,0.5-0.9,1.2-1
			c0.7-0.1,1.5-0.2,2.4-0.2c0.9,0,1.7-0.1,2.4-0.3c0.7-0.2,1.1-0.6,1.2-1.1c0.1-0.6,0.1-0.9-0.1-1c-0.2-0.1-0.5-0.3-0.9-0.5
			c-2.1,0-4.2,1.1-6.4,3.4c-0.5,0.5-0.9,0.9-1.1,1.2c-0.4,0-0.6-0.3-0.5-0.8s0.3-1,0.8-1.2l0.3,0.3c0.2-0.9,0.8-1.5,1.7-1.8
			c0.4-0.1,0.7-0.2,1.1-0.3c0.4-0.1,0.7-0.4,1.1-0.8c-0.6,0.3-1.3,0.5-2.1,0.5c-0.8,0.1-1.5,0.2-2.2,0.3c-1.5,0.2-2.5,1.2-2.8,2.9
			C36.9,36.6,37.5,37.5,38.8,37.5z M42.2,49.6l-5.7,1.6c-0.1-0.1-0.3-0.1-0.6-0.2c-0.3,0-0.5-0.1-0.6-0.3c1.5-1,3.8-2.2,6.9-3.4h-1
			c-2.1,0-3.7,0.3-4.8,1c-1.1,0.6-1.7,1.1-1.8,1.5c-0.2,1.3-0.3,2.5-0.2,3.8c0.1,1.2,0.2,1.8,0.4,1.8h0.5c1-0.9,2.2-1.7,3.6-2.6
			c1.4-0.9,2.6-1.8,3.6-2.9L42.2,49.6z M49.5,15.9c-0.5,0.2-1.1,0.3-1.9,0.3c-2,0.4-4.1,2.5-6.3,6.4c-0.8,1.4-1.3,2.7-1.8,3.9
			l-0.7,1.7l-0.6,3.6c0.2,0,0.7-0.3,1.5-1l-0.2,0.9c0.6-0.9,1.6-1.7,2.9-2.3l2.7-1.2c0.6-0.3,0.9-0.6,1.1-0.9l-1.6-0.9l-3.4,0.4
			h-0.5l0.2-1l0.4,0.1c0.1,0,0.2-0.2,0.3-0.5s0.2-0.7,0.6-1c0.3-0.4,1.1-0.8,2.3-1.2c1.2-0.5,2.1-1,2.8-1.5l-3.3,0.5l-1.5-0.1
			l0.6-0.9l1.3-0.5c4.3-1.9,6.5-3.1,6.8-3.8h-2c-0.1,0-0.1,0-0.1-0.1l0-0.2c0-0.1,0.1-0.3,0.3-0.4C49.4,16.2,49.5,16.1,49.5,15.9z
			 M38.2,55.8l-0.6-0.3c-0.8,0-1.4,0.1-1.9,0.3c-0.5,0.2-0.7,0.5-0.8,1c-0.1,0.7-0.1,1.2,0,1.5c0.2-0.6,0.7-1.1,1.5-1.3
			C37.1,56.7,37.7,56.3,38.2,55.8z M35.7,62.9c0.7-0.6,2.1-0.9,4.4-0.9s3.3,0.3,3.3,0.8c-0.1,0.5-0.4,0.9-0.9,1.2s-1,0.5-1.5,0.8
			c-1.7,0.5-2.6,0.9-2.9,1.3l0.4,0.3l4-0.9l0.8,0.5c-1.1,1-2.3,1.9-3.6,2.6c-1.3,0.7-2.6,1.5-3.7,2.5c0.1,0.1,0.3,0.1,0.5,0.1h1.2
			c3.7,0,5.7-0.8,6-2.3l2.1-11.8c-1.3,0.4-2.5,1-3.6,1.8c-1.1,0.8-2.3,1.4-3.5,1.9c0.1-0.7,0.6-1.3,1.4-1.7c0.8-0.4,1.5-0.8,2.1-1.2
			l-1.3-0.1c-4.1,0-6.4,1.5-6.9,4.4c0.6,0,1.9-0.6,3.9-1.8l0,0.4c-0.1,0.5-0.3,0.8-0.8,1S36.2,62.3,35.7,62.9z M53.5,40.7l-8.7,4h-3
			l-0.5,0.4c-2.8,1.3-4.2,2-4.3,2.2c1.2-0.5,2.6-0.9,4.1-1.2c1.5-0.3,3-0.7,4.6-1.1c3.8-1,6.5-2.3,8.1-4L53.5,40.7z M37.3,63.3
			l-2.6,0.5l-0.6,3.3H35l-1.4,4.7c1-0.9,2-1.7,3.3-2.4c1.2-0.6,2.3-1.4,3.2-2.4L36,67.6l-0.1-1.3c0.3-0.3,0.7-0.5,1.2-0.7
			c0.5-0.2,1.1-0.4,1.7-0.6c0.6-0.2,1.1-0.5,1.6-0.8c0.5-0.3,0.8-0.7,0.9-1.3c-0.6,0.3-1.2,0.4-1.8,0.4L37.3,63.3z M35.5,72.1
			c-0.6,0.1-1.2,0.5-1.6,1c-0.4,0.5-0.7,1.2-0.9,2.1c-0.2,0.9-0.1,1.4,0.3,1.5c0.7-0.9,1.6-1.6,2.7-2.2c2.3-1,3.7-1.9,4.4-2.6
			l-0.3-0.5c-0.9,0.3-1.8,0.4-2.6,0.4C36.8,71.8,36.1,71.9,35.5,72.1z M37.1,83.5c0.1-0.4,1.1-1.7,2.9-3.9h-2.2l0.1-0.5
			c-0.9,0-1.6,0.2-2.3,0.5C35,79.9,34.1,80,33.1,80c0.9-1.3,1.6-1.9,2.3-1.9c0.1,0,0.3,0.1,0.6,0.2c0.4-0.8,0.9-1.2,1.4-1.2
			s1-0.3,1.6-1c-2,0.2-4,0.6-5.7,1.3l-2,8.4c-0.1,0.5,0,0.9,0.3,1.3l8.5-0.5l0.4-2.5c-0.9,0-1.8,0.3-2.9,1c-1.1,0.7-2.2,1-3.3,1
			c0.1-0.5,0.6-0.9,1.5-1.1c1-0.2,1.6-0.5,1.8-1C37.1,84.1,37,83.9,37.1,83.5z M55.8,20.5c-2.1,0.3-3.7,0.6-4.7,0.9
			c-0.5,0-0.8,0.1-0.9,0.3c-0.2,0.5-0.6,0.8-1,1l0.1-0.4c-1.1,0.4-2.2,0.9-3.3,1.7c-1.1,0.8-1.9,1.2-2.4,1.2c0.9,0.4,2,0.5,3.3,0.4
			c1.2-0.1,2.2,0.2,2.9,0.9c-0.4,0.4-1.3,1-2.7,1.7l-3.3,1.5c-0.9,0.4-1.5,0.8-2,1.1h3.3c0.1-0.4,0.6-0.8,1.5-1.1
			c1.7-0.6,2.6-1,2.8-1c0.7-0.5,1.4-1.5,2.1-3.1c0.7-1.6,1.2-2.6,1.6-3.1c0.4-0.5,0.9-0.8,1.3-0.9S55.4,21.1,55.8,20.5z M38.9,54.1
			c4.9-1.2,7.4-1.8,7.6-1.8l0.6-3.2c-0.4-0.1-0.6-0.5-0.6-1.1c0-0.6,0-1-0.1-1.2c-0.1-0.2-0.2-0.3-0.5-0.3c-0.3,0-0.5,0.1-0.8,0.3
			c-0.3,0.2-0.6,0.4-0.8,0.6l-1,0.9c0.5,0.2,1.1,0.3,1.9,0.3c-0.2,1.2-1,2.2-2.3,2.9c-0.6,0.4-1.3,0.7-2,1c-0.7,0.3-1.4,0.7-1.9,1.2
			L38.9,54.1z M43,55.4c-0.2,0.1-0.6,0.2-1,0.3c-0.4,0-0.9,0.1-1.3,0.2c-1.1,0.2-1.7,0.5-1.8,0.9l-0.1,0.4c1.2,0,2.4-0.2,3.6-0.7
			c1.2-0.5,2.3-0.7,3.6-0.7l0.4-2l-4.1,1.3L43,55.4z M49.4,19.2L47.6,20c-0.6,0.3-1.1,0.6-1.6,1C47.8,20.9,49,20.4,49.4,19.2z
			 M42.5,71.9c-0.6,0.8-1.4,1.3-2.2,1.5c-0.9,0.2-1.7,0.7-2.5,1.5c0.9,0,1.7-0.1,2.3-0.4c0.6-0.3,1.3-0.4,2-0.4L42.5,71.9z
			 M38.9,78.7c0.6,0,1-0.2,1.4-0.6c0.4-0.4,1-0.6,1.8-0.7l-0.3-1.6c-0.4-0.1-0.7-0.2-0.9-0.2c-0.2,0-0.4,0.1-0.5,0.3
			c-0.2,0.2-0.4,0.4-0.6,0.7c-0.5,0.6-1.3,1.2-2.3,1.7h1.8L38.9,78.7z M56,13.7c-1.8,0.2-3.1,0.5-3.9,0.9l-1.6,0.8l-0.1,0.5
			C53.2,15.9,55.1,15.1,56,13.7z M50.9,19.7l2.7-0.5c0.1,0,0.2,0.1,0.3,0.4c0.1,0.3,0.4,0.4,0.7,0.4c0.4,0,0.6-0.1,0.7-0.2
			c0.1-0.1,0.5-0.2,1.2-0.4l-0.1,0.5c0.6-0.2,1.1-0.5,1.4-0.8c0.3-0.3,0.7-0.6,1.1-1c0.4,0,0.6,0.1,0.6,0.3c0,0.2,0.2,0.3,0.5,0.3
			c-0.3,0.2-0.7,0.7-1.1,1.4c0,0.2,0.1,0.5,0.5,0.9c0.4,0.4,0.6,0.6,0.7,0.6c0.5,0,0.9-0.6,1.1-1.8c0.2-1.2,0.3-2.3,0.3-3.4
			c0-1.1-0.6-1.6-1.7-1.6l-0.4,0.3l0.8,0.5c-1.4,0.8-2.8,1.4-4.3,1.8C54.4,18,52.7,18.7,50.9,19.7z M40.8,82.3c0-0.4,0-0.7,0.1-1.1
			l0.2-1.2l-0.8,2.9L40.8,82.3z M57.2,12c-1.6,0-2.7,0.4-3.2,1.3c0.6,0,1.2-0.1,2-0.4C56.7,12.7,57.2,12.3,57.2,12z M56.8,15
			c-0.4,0.4-0.7,0.6-1.2,0.8c-0.4,0.2-0.8,0.5-1.2,0.9c0.5,0,1-0.1,1.5-0.2c0.5-0.1,0.8-0.5,0.9-1.2L56.8,15z M51.5,45.1l6.6-0.9
			l0.3-1.6h-1.3l0.5-0.5c-0.3,0-0.7,0.1-1.1,0.4c-0.5,0.3-1,0.5-1.5,0.7c-1.5,0.8-2.6,1.2-3.3,1.2L51.5,45.1z M59.1,38.9
			c-1.1,0-2.6,0.9-4.7,2.6c-0.5,0.4-0.9,0.8-1.2,1.2c1.1,0,2.3-0.3,3.6-1C58.2,41.1,58.9,40.1,59.1,38.9z"/>
		<path class="st3" d="M154.6,88.9l-9.4,0.3c-2.2,0-4.5-0.5-7-1.4c-4.8-1.7-8.3-2.6-10.4-2.7l-0.3-0.5l1.8-10.2
			c0.1-0.3,0.6-0.4,1.6-0.4c1,0,2.1,0.2,3.4,0.7c1.2,0.5,2.5,1,3.9,1.6c3.3,1.4,5.7,2,7.2,2c1.7,0,3.6-0.4,5.8-1.1
			c0-0.1,0-0.5,0.1-1c0.1-0.5,0.5-1.2,1.1-1.9c0.7-0.8,1.1-1.7,1.3-3c0.2-1.2-0.1-2.2-0.9-2.9c-0.8-0.7-1.8-1.2-3.1-1.6
			s-2.5-0.7-3.8-0.9c-1.3-0.3-2.1-0.6-2.6-1c-0.4-0.4-0.9-0.8-1.5-1.1c-0.5-0.4-1.1-0.7-1.6-1.1c-1.4-0.9-2.1-1.7-2-2.3
			c-1.7-0.4-3.2-3.3-4.6-8.8l0-1.1c0-0.7,0.1-1.8,0.3-3.1c0.2-1.4,1-3,2.2-4.9c1.2-1.9,2.7-3.5,4.4-4.9c3.7-2.8,7.9-4.2,12.5-4.2
			c0.6,0,2.7,0.3,6.1,1c6.2,1.3,10.5,1.9,12.9,1.9c1.1,0,1.5,2.1,1.3,6.2c0,1.1-0.2,2.1-0.3,3.1c-0.5,2.8-1.2,4.2-2.2,4.2l-0.4-0.1
			c-1-2.4-3.5-3.8-7.4-4.2c-0.7-0.1-1-0.2-1-0.4h-1.5c-4.5,0-7.8,0.8-9.9,2.5c-0.9,0.7-1.5,1.8-1.7,3.1c-0.2,1.4,0.3,2.5,1.5,3.4
			c1.2,0.9,2.9,1.7,4.8,2.5c2,0.8,4.1,1.5,6.4,2.2c2.3,0.7,4.4,1.7,6.3,2.8c4.5,2.7,6.3,6.4,5.4,11.3c-0.6,3.2-2.1,6.1-4.5,8.6
			c-2.4,2.5-5.2,4.3-8.3,5.4c-1,0.4-1.9,0.8-2.9,1.2C156.7,88.6,155.7,88.9,154.6,88.9z M136.3,79.9l-0.9-0.3
			c-1.4,0-2.6,0.3-3.5,0.9c-0.9,0.6-1.4,1-1.4,1.2c-0.1,0.4-0.1,0.8,0.1,1.1C132.8,82.4,134.7,81.4,136.3,79.9z M151.8,40.4
			c1.6-0.6,2.8-1.1,3.6-1.4c0.8-0.3,1.6-0.4,2.4-0.4c0.8,0,1.1,0.3,1,0.8c0,0.1-4.6,2.1-13.6,5.8h-1l-7.7,3.8l-0.1,0.4h1
			c0.4,0,2.8-0.9,7.3-2.7c4.5-1.8,7-2.8,7.7-3.1c0.7-0.3,1.5-0.7,2.4-1.1c0.9-0.5,1.9-1,3-1.5c1-0.5,2-1.1,2.9-1.6s1.6-0.9,2-1.1
			c-0.2-0.2-0.6-0.4-1.2-0.4c-0.5-0.1-1.1-0.1-1.6-0.2c-0.5-0.1-1-0.1-1.5-0.2c-0.5-0.1-0.7-0.3-0.7-0.6l-10.1,4.6
			C148.8,41.4,150.2,41.1,151.8,40.4z M144.6,43.3l-0.9-0.1c-1.3,0-2.7,0.4-4.2,1.2c-1.5,0.8-2.3,1.7-2.5,2.6
			C140.7,46.1,143.2,44.9,144.6,43.3z M140.7,52.2c1.8-0.6,3.2-1.1,4.3-1.4c0.1,0,0.2-0.2,0.5-0.6c0.3-0.4,0.6-0.8,1-1.3
			c1.3-1.5,2.3-2.4,3.1-2.7l0.1-0.5c-1,0.5-2.1,1-3.3,1.4c-1.2,0.4-2.4,0.9-3.6,1.4c-2.8,1.1-4.9,2.3-6.4,3.8c1,0,2.2-0.4,3.7-1.2
			c1.4-0.8,2.5-1.4,3.3-1.8c0.8-0.4,1.6-0.6,2.4-0.6c-0.1,0.4-0.9,1.1-2.4,1.9C141.9,51.3,141,51.9,140.7,52.2z M146,37.7
			c-0.2,0.4-0.7,0.6-1.4,0.9c-0.7,0.2-1.5,0.5-2.2,0.8c-2,0.7-3.1,1.7-3.3,3h0.6c0.6,0,2.5-0.6,5.9-1.9c3.4-1.3,5.2-2,5.5-2.2
			c-0.7-0.1-1-0.2-1-0.3c0-0.1,0.2-0.3,0.5-0.4c0.3-0.2,0.7-0.4,1.1-0.6c1.1-0.4,1.7-0.9,1.8-1.4c-2.9,0-4.8,0.4-5.8,1.2L146,37.7z
			 M137.1,54c-0.1,1,0.3,1.5,1.1,1.5c1,0,2.2-0.4,3.6-1.3c1.4-0.9,2.4-1.5,3-2c-1.2,0.5-2.5,0.8-3.8,0.9
			C139.7,53.2,138.4,53.5,137.1,54z M145.3,81.3c-1.2-0.9-3.6-1.4-7.2-1.4c-0.5,0.4-1,0.7-1.6,1c-0.6,0.3-1.1,0.7-1.7,1
			c-1.3,0.7-1.9,1.1-1.9,1.2l0.5,0.1C135.3,83.3,139.2,82.6,145.3,81.3z M139.8,57.7l0.7,2c0.4,0,1.1-0.3,2.1-1c1.9-1.3,3-2.1,3-2.5
			c-0.1-0.1-0.2-0.1-0.5-0.1c-0.3,0-0.6,0.1-1.2,0.2c-0.5,0.1-1.1,0.3-1.6,0.5c-0.5,0.2-1,0.3-1.5,0.5
			C140.4,57.5,140,57.6,139.8,57.7z M144.4,83.1l-0.8-0.3c-0.3,0-0.8,0.1-1.6,0.2c-0.8,0.1-1.6,0.3-2.4,0.4
			c-2.1,0.4-3.4,0.6-4.1,0.8c1.2,0.6,2.5,1,3.9,1L144.4,83.1z M141,55.8h0.8c1,0,1.8-0.1,2.5-0.2c0.6-0.1,1.1-0.3,1.5-0.3
			c0.4-0.1,0.6-0.2,0.6-0.3l-0.7-1.5L141,55.8z M149.6,59.1c-1.3,0.2-4.1,0.7-8.5,1.4c0,0.1,0.1,0.2,0.4,0.3l0.9,0.5
			c0.7,0.4,1.3,0.5,1.7,0.5L149.6,59.1z M149.5,57.7l-1.6-1c-1.2,0.6-2.2,1.1-2.9,1.4c-0.7,0.3-1.2,0.5-1.3,0.5l0.9,0.4
			c0.2-0.1,0.8-0.3,1.8-0.5c1-0.2,1.8-0.3,2.5-0.5L149.5,57.7z M159.2,60.5c-2.2-0.6-4.1-1-5.8-1c-3.3,0-5.7,0.9-7.2,2.8
			c1.9,0,4-0.2,6.4-0.6C155,61.2,157.2,60.8,159.2,60.5z M165,78.2c-1.1,0.4-2.4,0.8-4.1,1.1c-1.6,0.4-3.3,0.8-5.1,1.2
			s-3.6,0.9-5.4,1.5c-4.5,1.3-7.3,2.4-8.3,3.4c1.2,0,3.6-0.3,7-1s6.4-1.3,8.9-1.7c2.5-0.5,4.7-0.9,6.7-1.3c0.6-0.4,1.3-0.9,1.9-1.6
			c0.6-0.7,1-1.4,1.1-2.2C167,77.6,166.1,77.8,165,78.2z M146.6,63.7c2.2,0.6,3.8,1,4.8,1c1,0,1.8-0.1,2.3-0.4
			c0.5-0.3,1-0.5,1.5-0.8c0.5-0.2,1-0.5,1.5-0.8c0.5-0.2,1.1-0.4,1.7-0.4l0.1-0.5c-0.2,0.1-1,0.3-2.2,0.3c-1.2,0.1-2.6,0.1-4,0.2
			C148.6,62.7,146.7,63.1,146.6,63.7z M158.9,85.1l-1.3-0.1c-0.8,0-1.5,0.1-2.2,0.2c-0.7,0.1-1.4,0.2-2.1,0.2c0.3,0,0.5-0.3,0.6-0.9
			l-6.8,1.8c0.3,0.4,0.8,0.5,1.4,0.5C152,86.9,155.4,86.3,158.9,85.1z M165,64.1l-5.3-1.8c-0.4,0-1.4,0.5-3,1.6
			c-1.7,1-2.5,1.6-2.6,1.8C158.2,65.6,161.8,65.1,165,64.1z M155.3,74.3c-0.5,0.2-1.7,1.9-3.7,5.2c0,0.1,0.1,0.3,0.3,0.5
			c0.2,0.2,0.4,0.3,0.5,0.3c0.9-1.8,5.8-3.9,14.6-6.5l0.1-0.5c-2.7,0.8-5,1.2-7,1.2S156.5,74.5,155.3,74.3z M165.4,38.6
			c-0.2-0.2-0.7-0.3-1.3-0.3c-0.6,0-1.1,0.1-1.6,0.4s-0.9,0.6-1.4,1c-0.5,0.4-1,0.8-1.4,1.2c-0.4,0.4-0.8,0.7-1,0.9h0.5L165.4,38.6z
			 M155.6,67.5c-0.1,0.6,0.2,1,1,1c1.6,0,3-0.4,4.4-1.2c1.4-0.8,2.1-1.3,2.3-1.6c-2.2,0-4.1,0.2-5.5,0.6
			C156.4,66.7,155.7,67.1,155.6,67.5z M160.4,42.4c1.1,0.3,2.1,0.4,3,0.4c0.9,0,1.8-0.4,2.6-1.2c0.8-0.8,1.5-1.6,2-2.5
			c-1.2,0-2.5,0.4-3.7,1.2C163,41.2,161.8,41.9,160.4,42.4z M168,68.4l-0.5-0.1c-0.4,0-0.7,0.1-0.9,0.2c-0.3,0.1-0.8,0.3-1.6,0.5
			c-0.8,0.2-1.7,0.4-2.9,0.6c-1.1,0.2-2.1,0.4-2.9,0.6c-1.9,0.4-3,1.1-3.2,2.2c0,0.1,0,0.3-0.1,0.6c0,0.3,0,0.5-0.1,0.6L168,68.4z
			 M168.3,66.9c-0.7-0.6-1.4-1-2.2-1l-7.9,2.8l-0.1,0.5C164,68.8,167.4,68,168.3,66.9z M158.7,73.5c7.5,0,11.3-0.6,11.5-1.8
			c0.3-1.6-0.2-2.4-1.5-2.4l-9.4,3.7L158.7,73.5z M168.4,76.7c0.7-0.2,1.1-0.6,1.2-1.1c0.2-1.1,0.1-1.7-0.2-1.7l-9.9,3.7l-0.1,0.6
			c1.4,0,3-0.4,4.6-1.2c1.6-0.8,3.2-1.2,4.7-1.2L168.4,76.7z M168.8,39.6c-0.1,0.6-0.4,1.1-1,1.6c-0.6,0.5-0.9,0.9-0.9,1.1
			c0,0.2,0.1,0.3,0.3,0.3c0.3,0,0.7-0.3,1.5-0.9c0.7-0.6,1.2-1,1.4-1.1C169.9,39.9,169.4,39.6,168.8,39.6z M167.2,43.8
			c1.2,0.4,2.2,0.5,3.1,0.5l0.3-1.6C168.9,42.7,167.8,43.1,167.2,43.8z"/>
		<path class="st3" d="M206.4,76.9c1.6,0,2.2,1.8,1.5,5.4l-0.3,1.6c-0.3,1.5-0.6,2.7-1.1,3.7c-0.5,1-0.9,1.5-1.2,1.5h-2.4
			c-3.1,0-5.9-0.2-8.4-0.5c-2.5-0.3-4.7-1.1-6.5-2.2c-1.8-1.1-3.1-2.4-3.7-3.8c-0.7-1.4-1.2-3-1.4-4.7c-0.5-3.2-0.5-6.5,0.1-9.9l2-9
			l1.3-10.7l0.4-1.8c-0.5-0.1-0.8-0.4-0.9-0.9c0-0.4-0.2-0.6-0.6-0.6c-1.7,1.2-3.1,1.8-4.2,1.8c-0.4,0-0.5-0.5-0.3-1.5
			c0.2-1,0.6-1.7,1.4-2.2c-0.7-0.2-0.8-1.5-0.4-3.8l1-5.1c1-0.6,2.7-1,4.9-1l3,0.4l1.4-9.7c0.2-1.1,0.6-1.9,1.1-2.4
			c0.6-0.5,1.9-0.8,4-0.8l4.9,0.5c0.3,0,0.6-0.2,1.1-0.5c0.4-0.3,1-0.5,1.8-0.5c0.8,0,1.4,0.1,2,0.3c0.6,0.2,1,0.5,1.2,1
			c0.3,0.6,0.3,1.7,0.1,3.3l-0.4,5.1l-0.8,3.2l10.6-0.4c0.2,0,0.4,0,0.5,0.1c0.1,0.1,0.2,0.4,0.1,0.9L216.4,44
			c-0.1,0.7-0.4,1.3-1,1.8c-0.5,0.5-1.1,0.7-1.8,0.7l-5.3-1c-1.4,0-2.8,0.1-4.3,0.4c-0.9,1.5-1.6,3.8-2.2,6.9
			c-0.5,3.1-0.8,6.7-0.7,10.9c0.1,4.2-0.2,8.5-0.7,12.9c0.1,0.6,0.6,1,1.6,1c0.9,0,1.7-0.1,2.3-0.3C204.9,77,205.6,76.9,206.4,76.9z
			 M184.4,38.5l0,3.1c-0.1,0.6-0.3,0.9-0.7,1.1c0.2,0.3,0.5,0.4,0.7,0.4c0.6,0,1.8-0.7,3.6-2c3.3-2.5,5-4,5.1-4.4
			c-1,0.6-2.1,0.9-3.3,0.9l0.2-1.4h-4.7c-0.1,0-0.2,0.3-0.4,0.9S184.5,38.1,184.4,38.5z M191.9,41.3c-0.3,0.6-0.7,1-1.2,1
			c-0.5,0-1-0.2-1.7-0.5l-3.6,2.3h3.7c0.1,0,0.1,0.1,0.2,0.3c0,0.2,0.1,0.4,0.2,0.6c0.1,0.2,0.2,0.4,0.2,0.6l5.5-1.8
			c0.5-0.6,1.2-1,2.1-1.3c0.8-0.3,1.7-0.6,2.6-0.9c2.6-0.8,4.2-1.7,5-2.6h-1.4l-11.3,2.8L191.9,41.3z M196.7,45.5
			c-1.1,0.4-2.1,0.7-2.9,0.8c-0.9,0.1-1.6,0.2-2.3,0.3c-1.5,0.3-2.4,1.4-2.7,3.3l-0.1,0.6c-0.1,0.3-0.1,0.6-0.1,1
			c1.3-1.5,2.6-2.6,3.8-3.2c1.3-0.6,2.3-1.1,3.2-1.5c0.8-0.4,1.6-0.8,2.5-1.4L196.7,45.5L196.7,45.5z M195.3,63.9
			c-1.6,0.7-2.8,1.1-3.7,1.3c-0.9,0.1-1.7,0.3-2.4,0.5c-1.4,0.4-2.7,1.9-3.9,4.4c1.7-0.8,3.4-1.7,5-2.7c1.6-1,3.3-2,4.9-3
			L195.3,63.9z M198.2,55.2c-0.8,0-1.8,0.4-3.1,1.2c-2.5,1.7-4.1,2.7-4.9,3.1c-1.9,1.1-3,2.4-3.3,4.1l-0.1,0.4c0,0.1,0,0.3,0,0.4
			l8.2-4.2c-0.9,0-1.8,0.2-2.7,0.5c-0.9,0.4-1.5,0.5-2,0.5c-0.5,0-0.9,0-1.1-0.1c-0.2,0-0.4-0.1-0.5-0.1l0.6-0.4l8.4-2.8L198.2,55.2
			z M198.8,49.2c-0.2,0.1-0.9,0.4-1.9,0.7c-1,0.3-2.1,0.7-3.3,1.1c-1.2,0.4-2.2,0.7-3.1,1l-1.5,0.3l-0.5,2.8h0.4
			c1.2,0,4-1.5,8.4-4.4c1-0.6,1.5-0.9,1.5-1c0-0.1,0-0.2,0-0.4L198.8,49.2z M188.1,57.4c0.3,0.1,0.4,0.5,0.3,1.1
			c0,0.2-0.1,0.4-0.1,0.5c-0.1,0.1-0.1,0.3-0.1,0.3l2.2-1.9c-0.1,0.4,0,0.5,0.2,0.5c0.4,0,0.8-0.1,1.1-0.4c0.3-0.3,0.8-0.6,1.5-1
			c0.7-0.4,1.4-0.9,2.1-1.3c1.8-1.1,2.7-1.8,2.7-1.9l-6.4,2.3C190.3,55.6,189.1,56.2,188.1,57.4z M192.7,70.3
			c-0.4,0-1.3,0.2-2.7,0.6l-3.1,1c-0.7,0.2-1,0.4-1,0.4l-0.2,1.4l7-2.8L192.7,70.3z M193.3,32.4c0.2,0.3,0.3,0.6,0.3,0.9
			c0.7,0,1.7-0.2,3-0.6c1.3-0.4,2.2-1,2.7-1.7l-1.8-0.1C194.9,30.9,193.5,31.4,193.3,32.4z M202.9,23.3l-7.7-0.6l-0.4,2.4
			c0.2,0.4,0.3,0.8,0.3,1c0,0.3,0.4,0.4,1.1,0.4c0.8,0,1.7-0.3,2.8-0.9c1.1-0.6,2.2-0.9,3.3-0.9c0.2-0.1,0.6-0.3,1.2-0.5
			c0.6-0.2,1.1-0.5,1.3-0.9c-0.4,0.1-0.7,0.1-1,0.1C203.5,23.3,203.2,23.3,202.9,23.3z M196,72.8l-1.9,0.2c-0.6,0-1.7,0.2-3.4,0.6
			c-3.2,0.8-4.8,1.5-4.9,2c-0.1,0.5-0.1,1.1-0.2,1.8c0,0.6,0.3,1,1,1c0.3,0,1.4-0.6,3.4-1.8C193.3,74.7,195.2,73.5,196,72.8z
			 M197.6,64c-1.4,1.5-3,2.7-4.9,3.5c-1.8,0.8-3.5,1.8-5.1,3.1c1.1,0,2.4-0.3,3.9-1c2.9-1.2,4.9-1.8,5.9-1.8l0.6-3.3L197.6,64z
			 M200.3,45.8c-1.4,0-3.9,1.1-7.3,3.4c-0.8,0.5-1.4,0.9-1.7,1.2c0,0.1,0.1,0.2,0.4,0.2c0.3,0,0.9-0.1,1.8-0.4
			c0.9-0.3,1.6-0.5,2-0.7c0.2-0.4,0.6-0.7,1.1-0.9c0.5-0.2,1-0.3,1.4-0.5C199.4,47.7,200.2,46.9,200.3,45.8z M195.1,30.5
			c1.4,0,2.8-0.3,4.1-0.9c1.3-0.6,2.4-0.9,3.3-0.9s1.6-0.3,2-1c0.4-0.6,0.9-1.6,1.4-2.8c-1.1,0-2.1,0.3-2.9,0.8
			c-0.9,0.5-1.7,1-2.6,1.6c-0.9,0.6-1.7,1.1-2.5,1.6c-0.8,0.5-1.7,0.8-2.6,0.8L195.1,30.5z M193.6,38.7l9.2-4.8l0.2-1
			c-1.4,1-2.9,1.7-4.4,2.2s-3.1,1-4.7,1.6L193.6,38.7z M203.3,35.1c-0.9,0.8-2.2,1.5-3.9,2.2c-3.1,1.2-5.1,2.3-6,3.1l4.5-1l0.4-0.5
			l0.4,0.5c0.6-0.4,1.7-0.8,3.1-1.1c1.4-0.3,2.4-0.5,2.9-0.8c0.5-0.2,0.8-0.5,0.9-1c-1.1,0-1.8-0.3-1.8-0.8c0-0.2,0.1-0.4,0-0.5
			C203.8,35.2,203.7,35.1,203.3,35.1z M187.8,80.2c-0.4,0.2-0.6,0.4-0.6,0.6c0,0.2,0.1,0.5,0.4,0.8c0.3,0.3,0.6,0.5,0.9,0.5
			s1-0.2,1.9-0.6c0.9-0.4,1.9-0.9,2.9-1.5c2.6-1.4,3.9-2.5,4-3.2h-0.6L187.8,80.2z M203.6,32l0.9-1.5c-1.5,0-4.1,1.1-7.7,3.2
			c-0.8,0.5-1.2,0.9-1.3,1.2l3.1-0.6L203.6,32z M193.7,62.8c1-0.5,1.9-0.8,2.8-0.8c0.9,0,1.3,0.2,1.3,0.6l0.1-0.5
			c0-0.1,0.1-0.3,0.2-0.6c0.1-0.3,0.1-0.5,0-0.9c-0.1-0.3-0.2-0.5-0.4-0.5l-6.9,3.3C191.8,63.6,192.8,63.3,193.7,62.8z M195.4,84.4
			c0.8-0.7,1.6-1.4,2.3-1.9c1.4-1.1,2-1.8,2-1.8l0.1-0.4h-0.9c-1.1,0-3,0.6-5.9,1.9s-4.4,2-4.7,2.3
			C188.4,84.4,195.4,84.4,195.4,84.4z M190,78.4c1.3-0.3,3.9-1.7,7.8-4.3c0.1-0.3,0.1-0.5,0-0.8C194.9,74.3,192.3,76,190,78.4z
			 M193.3,71.7l0.6,0.2c2.2-0.2,3.3-0.5,3.4-1l0.2-1L193.3,71.7z M202.6,43.5c0.6,0,1.1,0.1,1.3,0.4c1.4,0,3-0.1,4.6-0.4
			c1.6-0.3,3.2-0.4,4.8-0.4l1.3-5.1c-4.4,1.1-7.5,2.1-9.5,3.1c-2,1-3.2,1.8-3.6,2.5L202.6,43.5z M196.1,85.3h0.5
			c1,0,2.3-0.5,3.9-1.4c3.1-1.7,4.7-3.1,4.9-4.1L196.1,85.3z M206.4,36.9l0.8,1.4l-1.3,1.6l8.5-4.2c-0.2-0.3-0.7-0.4-1.5-0.4
			c-0.8,0-1.5,0.1-2.2,0.2c-0.7,0.1-1.4,0.3-2,0.5C207.3,36.2,206.5,36.6,206.4,36.9z M197.8,86.3c0.5,0.3,1.3,0.4,2.3,0.4
			c1,0,1.9-0.1,2.6-0.4c0.7-0.2,1.2-1.2,1.5-2.9L197.8,86.3z"/>
		<path class="st3" d="M257.3,75.9l-0.6,2.8l-0.5,4.1l0.4,0.3c-2.9,2.4-5.3,3.9-7.3,4.6c-2.8,0.9-5.5,1.4-8,1.4
			c-4.3,0-7.3-0.2-9.1-0.6c-5.3-0.4-8.9-1.7-10.8-4c-1.7,0-3.2-0.5-4.5-1.6c-2.4-2.1-3.4-4-3.1-5.6l0.2-0.5c-0.6-1-1-2.3-1.1-3.9
			c-0.2-3-0.6-5-1-6l0.2-0.9c0-0.4,0-0.8,0.1-1.1c0.1-0.4,0.2-1.2,0.4-2.5c0.6-3.2,1.3-5.8,2.3-8c0.9-2.1,1.7-3.5,2.3-4.1
			c0.6-0.6,1.2-1.7,2-3.2c1.2-2.6,3.8-5.2,7.9-8c0.7-0.6,2.4-1.5,5-2.6c5.3-2.2,8.8-3.3,10.3-3.3c1.6,0,3.1,0.2,4.6,0.6
			c1.5,0.4,3.1,0.9,4.6,1.5c4,1.7,6.5,3,7.6,4.1c1.1,1.1,1.9,2.3,2.4,3.6c0.5,1.3,0.9,2.7,1.1,4.2c0.3,2.2,0.3,5.4-0.1,9.5
			c-0.2,1.4-0.5,2.2-0.7,2.4c-0.2,0.2-0.4,0.5-0.4,0.8c-0.1,0.3,0.1,0.5,0.5,0.5c-0.7,0.3-1.1,0.6-1.2,0.9l0,0.7
			c-0.1,0.8-1.4,1.3-3.8,1.7c-4.7,0.8-10.1,1.5-16.1,1.9c-6,0.5-9.4,0.7-10.1,0.7h-1.6c-0.3,0-0.5,0-0.7-0.1
			c-0.2,4.6,2.6,7.4,8.3,8.4c1.1,0.2,1.7,0.6,1.8,1l0.5-0.3h10.4c1.6,0,3.5-0.8,5.6-2.3c0.4-0.3,0.7-0.5,0.7-0.6
			C257.2,72.4,257.7,73.5,257.3,75.9z M227.8,55.4c-3.2,0.5-4.8,0.8-4.8,0.9l-0.1,0.6c1.7,0,3.1-0.2,4.1-0.6c0.7,0,1,0.2,0.9,0.7
			c-0.1,0.5-0.4,0.9-0.9,1.2c-0.5,0.3-0.9,0.5-1.2,0.5c-0.3,0-0.6-0.1-0.9-0.2c-0.7,0.3-1.6,0.8-2.9,1.5l-3.1,1.7
			c-0.1-0.4-0.3-0.5-0.5-0.5c-0.3,0.1-0.5-0.1-0.7-0.5c0.4-0.5,1.3-1,2.8-1.5c1.4-0.5,2.3-0.8,2.7-1.1l-1.8-0.1l-4.1,0.6
			c-0.4,0-0.7,0-0.9-0.1l-1.5,3.2c0.4,0.2,0.6,0.6,0.5,1.3c-0.1,0.6,0.2,0.9,1,0.9c0.8,0,1.7-0.3,2.9-0.9c1.2-0.6,2.3-1.3,3.5-1.9
			c3.4-1.9,5.6-2.8,6.4-2.8c0.8,0,1.4,0.2,1.7,0.6c-0.1,0.4-0.5,0.7-1.4,1c-0.9,0.3-1.8,0.6-2.6,1c0.3,0.1,0.4,0.5,0.2,1.3
			c-0.1,0.5-0.7,0.9-1.9,1.2c-1.2,0.3-1.9,0.6-2.1,0.7l0.1-0.5c-0.7,0-1.1,0.3-1.2,0.9l0,0.2c0,0.1,0,0.2,0.1,0.2
			c1.3,0,2.3-0.3,3.2-0.9c0.8-0.6,1.8-0.9,2.8-0.9c0.1-0.6,0.5-1.1,1.2-1.4s1.4-0.5,2-0.5l-0.1,0.5l1.4-0.5l-0.4-0.5
			c0.4-0.3,0.7-0.5,1-0.5c0.3,0,0.4,0.2,0.4,0.5c1.9-0.6,4.1-0.9,6.4-0.9c-0.7,0.4-1.5,0.7-2.5,1c-1,0.3-2,0.5-2.9,0.7
			c-2.7,0.8-4.2,1.3-4.6,1.5l-0.1,0.6l13.7-0.6l1.7,0.5c1.7-0.8,3.1-1.3,4.3-1.3c1.2,0,2.2,0,3-0.1l6.1-0.9l1.1-0.9
			c-0.4-0.1-0.5-0.3-0.5-0.6c0.1-0.3,0.1-0.5,0.2-0.6c0.1-0.1,0.1-0.2,0.1-0.2c-1.4,0.7-2.5,1-3.3,1c-0.8,0-1.3,0-1.6-0.1
			c-0.3,0-0.5-0.1-0.7-0.1l1-0.5l-0.3-0.5l-3.4,1.4c-0.1-0.3-0.4-0.5-1-0.5s-0.9,0-1.1,0.1c-0.2,0.1-0.4,0.2-0.7,0.5
			c-0.5,0.5-1.8,0.9-3.8,1.3l-0.4-0.9c-0.1,0.6-0.9,1.1-2.4,1.4s-2.4,0.5-2.7,0.5c-0.7,0-1-0.2-0.9-0.7c0.1-0.2,0.9-0.4,2.3-0.8
			c2.6-0.6,4.1-1.2,4.5-1.7c-0.7-0.3-1.2-0.5-1.4-0.5l-2.2,0.5c-0.5,0-0.7-0.1-0.6-0.2c0.1-0.3,0.7-0.5,2.1-0.7c0.4-0.5,1.1-0.8,2-1
			c0.9-0.2,1.9-0.5,3-0.7c2.6-0.6,4-1.1,4.2-1.4c-3,0-5.4,0.3-7.3,0.9c-0.4-0.2-0.6-0.7-0.4-1.4h-2l-0.6,0.8l0.8,0.6l-0.6,0.9
			l-5.9,2.6h-1.7c1-0.7,2.1-1.2,3.3-1.6c1.2-0.4,2.3-1,3.1-1.9h-1.4c0.2-0.3,0.5-0.5,0.9-0.6c0.4-0.1,0.6-0.3,0.6-0.5
			c0-0.2,0-0.3-0.2-0.4c-0.1-0.1-0.2-0.2-0.2-0.3c-0.6,0.3-2.6,0.5-6.1,0.5h-3c-0.4,0-0.8,0.1-1.2,0.4c-0.4,0.3-0.7,0.4-1,0.4
			C228.9,55.7,228.5,55.6,227.8,55.4z M215.1,68.5c0.3-0.1,0.8-0.2,1.4-0.4c0.6-0.2,1.2-0.4,1.9-0.6c1.6-0.5,2.4-0.7,2.4-0.8
			l0.6-0.6c-0.9,0.2-1.9,0.4-3,0.6c-1,0.3-2,0.4-3,0.4L215.1,68.5z M224.2,51.2c0.1-0.8-0.4-1.3-1.7-1.3c-2.5,0-3.9,0.8-4.2,2.3
			l-0.2,1.4c0.2-0.2,1.2-0.6,3.1-1.3C223.1,51.5,224.1,51.2,224.2,51.2z M223.9,74.2l-6.7,0.5c-0.6,0-0.9-0.2-0.8-0.5
			c0.1-0.3,0.5-0.8,1.4-1.3c0.8-0.5,1.8-1,2.9-1.4c2.7-1.1,4.4-1.7,5-1.7H218l-0.4-0.9c-0.3,0.7-0.7,1.1-1.3,1.4
			c-0.6,0.2-0.9,0.6-1,1c-0.1,0.5-0.1,1.1-0.1,1.9c0,0.8,0.1,1.6,0.1,2.4c0.3,2.1,0.9,3.2,1.7,3.2c0.8,0,1.7-0.2,2.7-0.5
			c1-0.3,1.9-0.7,2.8-1.2c0.9-0.5,1.8-0.9,2.6-1.4c0.8-0.5,1.4-0.8,1.8-1C226.2,74.3,225.1,74.2,223.9,74.2z M219.4,54.9
			c2.6,0,4.8-0.3,6.8-0.9l0.8,0.5c0.5-1.2,0.9-2.5,1.1-3.8c-1.1,0-2.4,0.5-3.9,1.4c-1.6,0.9-2.7,1.6-3.5,2c-0.8,0.5-1.6,0.7-2.2,0.8
			C218.4,54.9,219.4,54.9,219.4,54.9z M221.4,47.2l0.9,0.1c0.4,0,1-0.2,1.7-0.7c0.8-0.5,1.2-1,1.3-1.4c-0.5,0-1.2,0.3-2.2,0.9
			C222.1,46.7,221.5,47,221.4,47.2z M223.5,49.1l3.2-0.6c1.4,0,2.2,0.3,2.5,0.9l3.7-3.1c-2.3,0-4.5,0.4-6.8,1.3
			c-2.2,0.8-3.4,1.3-3.5,1.4c0.1,0.1,0.2,0.1,0.3,0.1C222.9,49.1,223.5,49.1,223.5,49.1z M223.1,80.8c0.1-0.8,1.3-1.7,3.5-3
			c-1.1,0-2.6,0.3-4.5,0.9c-1.9,0.6-3,0.9-3.3,0.9c-0.3,0-0.4-0.2-0.3-0.5c-0.1,0.2-0.2,0.3-0.2,0.3l-0.1,0.3
			c-0.2,1.1,1.5,2.5,5.2,4c3.3,1.4,5.5,2.1,6.5,2.1c1.7,0,3.2-0.9,4.5-2.7c-1.1,0.3-2,0.7-2.6,1.1c-0.6,0.4-1.5,0.6-2.6,0.6l0.4-2
			l2.4-2.2c1-0.8,1.8-1.6,2.4-2.4c-1.4,0.8-2.9,1.4-4.5,1.8c-1.5,0.3-3.1,0.8-4.6,1.4c0.1-0.4-0.1-0.6-0.4-0.6l-0.9,0.6
			c-0.2,0-0.3-0.1-0.6-0.3C223.2,81,223.1,80.9,223.1,80.8z M224.8,43.7h0.9l9.2-3.5l0.6-0.6c-0.2,0.1-0.7,0.1-1.6,0.1
			c-0.9,0-1.3-0.2-1.3-0.5c0-0.3-0.2-0.5-0.6-0.5c-0.4,0-0.9,0.3-1.5,1c-0.6,0.6-1.1,1-1.4,1c-0.3,0-0.4,0-0.5-0.1L224.8,43.7z
			 M219.6,73.4l7.7-0.5l0.6-0.5l-1.6-1.9l-1,0.6l0.1-0.6c-0.5,0.3-1.4,0.7-2.7,1.2C221.4,72.2,220.3,72.8,219.6,73.4z M225.9,68.3
			l-0.1-2.6c0-0.2,0.1-0.2,0.1-0.3c0,0,0.1-0.1,0.1-0.2c-0.8,0.4-1.6,0.9-2.4,1.4c-0.9,0.6-1.7,0.9-2.5,0.9l0.8,0.9l-0.1,0.5
			c0.7-0.4,1.5-0.6,2.6-0.6L225.9,68.3L225.9,68.3z M229.5,45.5c0.7-0.3,1.2-0.5,1.7-0.5s0.7,0.1,0.9,0.2c0,0.1,0,0.2,0.1,0.2
			c-0.4,0.3-0.7,0.5-1,0.5l0.2,0.1h0.2c0.6,0,1.5-0.3,2.6-0.9c1.1-0.6,1.8-1.2,2-1.8c3.9,0,6.8-1,8.6-2.8c-1.4,0-3,0.2-4.6,0.7
			c-1.6,0.5-2.9,0.7-3.9,0.7c-1,0-1.5-0.2-1.6-0.6c-0.1,0.6-0.4,0.9-1,0.9c-0.5,0-0.8-0.2-0.9-0.5c-0.1,0.8-0.7,1.3-1.7,1.7
			c-0.4,0.1-0.8,0.1-1.2,0.1h-0.7l0.6-0.3c-0.9,0-1.9,0.6-3,1.7C228.7,45,229.5,45.2,229.5,45.5z M231.4,75.2l-1.2-0.9
			c-0.5,0.5-1.2,0.9-2,1.1c-0.8,0.2-1.5,0.4-2.3,0.6c-0.8,0.2-1.5,0.4-2.2,0.6c-0.7,0.2-1.3,0.6-1.8,1.3l0.3,0.1
			c0.9,0,2.2-0.5,3.9-1.5l-0.1,0.5c0.2,0,0.5-0.1,1.1-0.4C227.8,76.2,229.2,75.8,231.4,75.2z M246.2,47.8c-1.3-1-2.6-1.5-3.9-1.5
			c-1.4,0-2.6,0.2-3.8,0.5c-1.2,0.3-2.4,0.8-3.5,1.4c-2.7,1.4-4.2,2.9-4.4,4.6h17.1C247.9,50.5,247.4,48.8,246.2,47.8z M235.4,57.2
			c0.4-1,1.1-1.5,2.1-1.5l-0.2,0.9h0.9l-0.1,0.6c-0.5,0.2-1.4,0.4-2.8,0.7c-1.4,0.3-2.6,0.7-3.8,1l0.1-0.5c0.1-0.3,0.6-0.7,1.7-1.1
			c1.1-0.5,1.7-0.7,1.8-0.7L235.4,57.2z M234.7,76.5c-0.2-0.2-0.6-0.3-1.3-0.3c-0.7,0-1.5,0.2-2.6,0.6c-1,0.4-1.8,0.9-2.3,1.5
			c0.2,0.3,0.5,0.5,0.9,0.5c0.3,0,0.8-0.1,1.4-0.3c0.6-0.2,1.2-0.5,1.7-0.7C234,77,234.7,76.6,234.7,76.5z M238.4,45
			c-0.1-0.3-0.5-0.5-1.2-0.5c-0.2,0-0.3,0.1-0.6,0.3c-0.2,0.2-0.4,0.4-0.4,0.6c0.2,0.1,0.5,0.1,1,0.1
			C237.7,45.5,238.1,45.3,238.4,45z M242.4,35.6h-0.9c-0.2,0.1-0.6,0.2-1.4,0.4c-0.8,0.2-1.2,0.4-1.4,0.5c0.1,0.1,0.1,0.1,0.2,0.1
			h0.7C241,36.6,242,36.3,242.4,35.6z M235.2,79.2c-1.1,1.7-2.3,2.9-3.4,3.6h0.6l5.9-3.2c0.1,0,0.3-0.1,0.7-0.3
			c0.4-0.2,0.8-0.5,1.3-0.7c1.3-0.7,2.1-1.1,2.5-1.3c-0.2-0.1-0.6-0.1-1-0.1h-1c-0.4,0-0.9,0.1-1.5,0.3
			C237.6,78.2,236.3,78.7,235.2,79.2z M246.3,39.2c0.1-0.3,0.2-0.6,0.4-0.7c0.2-0.2,0.4-0.2,0.6,0.1l3.7-0.2l-0.8-0.9l-3.4-0.9
			c-0.4,0.8-1.9,1.7-4.7,2.5c-0.6,0.2-1.1,0.3-1.3,0.3l-0.1,0.8L246.3,39.2z M238.3,80.6c-0.2,1.3-0.2,1.9,0.2,1.9
			c0.4,0,1-0.2,2-0.6c0.9-0.4,1.9-0.9,3-1.4c1-0.5,2-1,2.8-1.5c0.8-0.5,1.4-0.7,1.6-0.8c-0.1,0.4-1.1,1.3-3.2,2.7
			c-3.7,2.7-5.8,4-6.1,4c-0.3,0-0.9-0.3-1.5-0.9c-0.7-0.6-1.2-1-1.7-1.1l0.2,0.9c-0.1,0.8-0.5,1.3-1,1.6s-1.2,0.6-2.1,1
			c0.2,0.4,1.1,0.6,2.5,0.6l2.9-0.1l0.6-0.9c0,0.3,0.1,0.5,0.4,0.5l0.8-0.1l-0.1,0.7l1.2-0.6l1.4,0.5c1.3,0,2.6-0.5,4.1-1.4
			c1.4-0.9,2.2-2.1,2.5-3.4c-0.8,0-1.7,0.6-2.7,1.7l0.1-0.6l-1.1,0.9c0.1-0.8,0.6-1.6,1.3-2.2l0.4,0.5c1.7-1.7,3.1-2.8,4.2-3.2
			l0,1.7c0,0.2-0.2,0.5-0.5,0.9l-0.9,1.5c-0.6,0.8-1.3,1.7-2.1,2.6l2.8-1.3l-0.2-0.6c1.1-1.3,2.7-2.7,4.7-4.1c0-1.2-0.4-1.8-1-1.8
			c-0.5,0-0.9,0.2-1,0.6c-0.1,0.4-0.5,0.7-1.1,0.9l0.2-1.1c0.5,0,1-0.3,1.4-0.9c0.4-0.6,1-1,1.7-1.2c0.1-0.3-0.2-0.6-0.7-0.9
			c-1.2,0-2.7,0.2-4.5,0.7c-1.8,0.5-3.9,1-6.2,1.5c-0.7,1.6-2.3,2.8-4.6,3.6L238.3,80.6z M243.8,43.8l-0.7-0.1
			c-0.2,0-0.7,0.2-1.3,0.5c0.6,0.3,1.4,0.5,2.4,0.5h1c2.1,0,3.8-0.6,4.9-1.8h-0.5l-5.1,0.9C244.4,43.7,244.1,43.8,243.8,43.8z
			 M255,42.2l-1.1-0.3c-0.2,0-0.8,0.5-1.8,1.4l-1.4,1.4l3.4-0.9c-0.2,0.2-0.4,0.4-0.7,0.5c-0.3,0.1-0.6,0.2-0.8,0.4
			c1.1,0,2.1-0.2,2.9-0.7c0.8-0.5,1.3-0.7,1.5-0.7h0.5c0.1,0,0.3,0,0.3,0.1l-0.4,0.3h1.3c-0.2-1.8-1.7-3.3-4.3-4.6
			c-0.6-0.3-1.2-0.5-1.8-0.5c-0.6,0-1.2,0.2-1.8,0.6c-0.6,0.4-1.2,0.8-1.7,1.3c-1.4,1.2-2.3,1.8-2.7,1.8h0.3c0.7,0,1.5-0.3,2.6-0.9
			c1-0.6,1.6-1,1.7-1.3l-0.2,1.1h0.7l3.3-0.8c0.6,0,0.9,0.2,0.8,0.5c-0.1,0.3-0.1,0.6-0.3,0.8C255.1,42,255,42.1,255,42.2z
			 M248.6,46.1c0,0.2,0,0.5,0.2,0.8c0.2,0.3,0.3,0.6,0.4,0.9l5.9-2.7h-0.9c-0.2,0-0.6,0.1-1.2,0.2c-0.6,0.1-1.1,0.2-1.8,0.3
			c-0.6,0.1-1.2,0.2-1.7,0.3C249.1,45.9,248.8,46,248.6,46.1z M252.1,58l-2.7-0.2c-0.6,0.2-1.1,0.4-1.5,0.6c-1.1,0.4-1.6,0.7-1.7,1
			L252.1,58z M244.3,83.7c-0.2,1.1-0.9,1.8-2.2,2.2C242.6,85.2,243.3,84.4,244.3,83.7z M252.7,48.6c-1.3,0-2.3,0.3-2.9,0.9
			c0,0.2,0.1,0.3,0.2,0.6c0.2,0.2,0.4,0.3,0.5,0.3c0.4,0,1.5-0.6,3.5-1.7L252.7,48.6z M260.7,49.9c0.3-1.9-0.2-3.4-1.7-4.6
			c-1.1,0-2.4,0.3-3.8,1c-1.4,0.6-2.3,1-2.8,1c-0.5,0-0.7,0-0.8-0.1l-0.1,0.8c0.9,0,1.6-0.1,2.1-0.4c0.5-0.3,1-0.4,1.6-0.4
			c0.6,0,0.8,0.2,0.8,0.6h3.2c-1,0-2.6,0.6-4.9,1.8c-2.3,1.2-3.5,1.9-3.5,2.2h3.3l-0.4-0.5h0.5l2.5,0.5
			C259.2,51.2,260.6,50.6,260.7,49.9z M258.6,53.6l0.3,0.7l-3.7,1.1c0.1,0.1,0.2,0.1,0.4,0.1h1.1c2.2,0,3.4-0.5,3.6-1.5
			c0.1-0.4,0-0.7-0.3-1.1c-0.2-0.3-0.3-0.7-0.2-1.2c-0.3,0.2-1.2,0.6-2.6,1c-1.4,0.4-2.4,0.7-3,1c-0.6,0.2-1,0.3-1.1,0.3h0.9
			c1.1,0,1.9-0.1,2.2-0.5c0.5,0,0.7,0.2,0.8,0.5c0.1-0.5,0.2-0.8,0.4-0.9c0.2-0.1,0.4-0.1,0.6-0.1h0.6c0.2,0,0.3,0,0.3,0.1
			L258.6,53.6z M258.5,56.6c-0.4,0.8-1.4,1.4-3.1,1.8h2.3c0.4,0,1-0.1,2-0.3c-0.2-0.2-0.4-0.5-0.7-0.7
			C258.8,57.2,258.6,56.9,258.5,56.6z M253.2,82.9c-0.5,0.3-0.8,0.6-0.9,1c-0.1,0.4,0,0.7,0.3,0.7c0.7-0.3,1.2-0.6,1.5-0.9
			c-0.3-0.3-0.3-0.7-0.2-1.3l0.1-0.6C254,82.3,253.7,82.6,253.2,82.9z"/>
		<path class="st3" d="M284.2,78.1c0,2-0.2,4.4-0.7,7.1c-0.5,2.7-1.1,4-1.8,4h-11.1l-4.9-1.3c-0.5-0.6-0.7-1.5-0.5-2.5l2.6-9.1
			l3.2-20.9c0.1-0.4,0.2-1.4,0.4-3c0.2-1.5,0.4-3.3,0.7-5.3c0.7-5.9,1.2-9.9,1.6-12.1c0-0.2,0.3-0.5,0.7-0.9
			c0.4-0.4,0.9-0.6,1.3-0.6c0.5,0,1.4,0.1,2.8,0.3c1.4,0.2,2.8,0.3,4,0.3h3.1c0.8,0,1.4,0,1.7-0.1c1.2,0.4,1.9,0.8,2.2,1.3
			c0.3,0.5,0.5,1.1,0.6,1.7c0.2,0.8,0.4,1.2,0.5,1.2c0.4,0,0.7-0.1,1-0.4l14.1-3.8c1.9,0,2.7,0.5,2.5,1.5c-0.6,1.7-1.1,3.2-1.5,4.8
			c-0.5,1.5-0.9,2.9-1.2,4.1c-0.9,2.7-1.6,4-2.1,4c-0.8,0-1.5-0.2-2.1-0.5c-0.6-0.4-1.4-0.5-2.4-0.5c-1,0-2.1,0.2-3.3,0.6
			c-1.1,0.4-2.2,0.9-3.3,1.6c-2.4,1.6-3.7,3.6-4.2,5.9c-0.1,0.7-0.4,1.8-0.9,3.3c-0.5,1.5-0.9,3.5-1.4,5.9
			C285.2,69.5,284.6,73.9,284.2,78.1z M276.1,37c-0.1,0.6-0.1,1.2,0,1.7c0.3,1,0.4,1.9,0.3,2.6c5.2-1.4,8.4-2.5,9.5-3.1
			c1.1-0.6,1.8-1.1,1.8-1.6c0.1-0.4-0.1-0.6-0.5-0.6c-1.8,0-3.6,0.2-5.5,0.5C279.8,36.8,278,37,276.1,37z M281.5,46.2
			c-0.9,0.4-1.5,0.6-2,0.8c-0.4,0.1-0.9,0.2-1.4,0.2c-0.5,0-1.7,0.3-3.5,0.9c0,0.1,0,0.5,0,1.2c0,0.6,0.1,1,0.2,1l8.8-4.5
			C283.1,45.7,282.4,45.9,281.5,46.2z M278.9,45.4c0.9-0.3,1.8-0.5,2.7-0.8c0.9-0.2,1.7-0.5,2.5-0.9c1.7-0.8,2.7-2.1,3-3.9
			c-0.8,0.7-2.3,1.3-4.4,1.8c-4.1,1-6.4,1.6-6.9,1.8L278.9,45.4z M283.6,49l1.8-1.6c0-0.3-0.2-0.4-0.8-0.4c-3.3,1.1-6.2,2.5-8.5,4.2
			c-0.8,0.7-1.5,1.5-1.9,2.3l1.8,0.1c5.9,0,9.6-0.6,11.1-1.9c0.6-0.5,1.1-1,1.5-1.4c0.4-0.4,0.9-0.8,1.3-1.2
			c1.9-1.6,3.8-2.4,5.9-2.6c2.7-0.1,4.4-0.3,5.3-0.6c0.9-0.3,1.4-0.9,1.6-1.7l0.7-3.4c-1.6,0-4.9,1.3-9.9,4c-1.1,0.6-1.9,1-2.4,1.4
			l0.1-0.5c-0.4,0.1-0.9,0.3-1.4,0.8c-0.5,0.4-1,0.9-1.6,1.4c-1.5,1.4-2.7,2-3.8,2C283.8,49.8,283.5,49.5,283.6,49z M274.3,55.3
			c-0.9,3.6-1.6,6.3-1.9,8.3l-0.2,4.4c1.4,0,2.5-0.4,3.4-1.2c0.9-0.8,1.9-1.4,3-1.7h-0.4c-0.8,0.1-1.5,0.1-2,0.2
			c-0.5,0.1-1,0.1-1.5,0.2c-0.5,0.1-0.9,0.1-1.2,0.1c-0.3-0.4-0.4-0.6-0.4-0.9c0.2-0.4,1.6-1.3,4.1-3c2.5-1.6,4.2-2.7,5-3.3
			c-0.7,0.1-1.5,0.2-2.2,0.2c-0.7,0-1.5,0-2.5-0.1c-0.9-0.1-1.8-0.1-2.8-0.1c0.2-0.6,1.1-1.4,2.8-2.3l-0.5-0.4
			c1.2-0.1,2.7-0.3,4.2-0.6c1.6-0.3,2.9-0.8,4-1.8c-1.5,0-3.5,0.3-6,1c-2.5,0.6-3.9,1-4.3,1S274.3,55.4,274.3,55.3z M272.7,79.9
			l-1.6-0.1c0.2-0.9,0.7-1.6,1.8-2.2l2.4-1.3c0.6-0.4,1.1-0.7,1.5-1.1l-5.7,1c-0.2,0-0.5,0.9-1,2.6c-0.5,1.8-0.8,3.1-1,3.9
			c-0.2,0.8-0.3,1.3-0.4,1.5c-0.3,1.6,2.1,2.4,7.2,2.4l4-0.1l1-5.7c0-0.1,0-0.3-0.1-0.5c-0.1-0.2-0.2-0.3-0.4-0.3
			c-0.8,0-1.4,0.3-1.9,0.9c0.1,0,0.3,0.1,0.5,0.3c0.2,0.2,0.3,0.3,0.2,0.5l-0.5,1.6l-1.7,0.4c-1.2,0-2.3,0.1-3.3,0.4
			c-0.9,0.3-1.7,0.5-2.3,0.5c-1.2,0.1-1.8,0-1.9-0.4c0.9-0.9,2-1.7,3.5-2.2c2.5-0.9,4.3-1.9,5.2-2.9c-0.2,0.1-0.6,0.1-1.2,0.2
			s-1.1,0.2-1.7,0.3C274.1,79.8,273.2,79.9,272.7,79.9z M279.1,70.1c-0.2-0.3-0.5-0.4-0.8-0.4l-1.1,0.1c-1.4,0.1-2.7,0.4-3.9,0.8
			c-1.2,0.4-1.8,0.6-1.9,0.8c0,0.2,0,0.6,0.1,1.2c0.1,0.6,0.4,0.9,0.9,0.9c0.4,0,1.5-0.5,3.6-1.6C278.1,70.8,279.1,70.2,279.1,70.1z
			 M273.6,74.8c1.9-0.9,3.5-1.3,4.7-1.3c1.3,0,2,0.1,2.2,0.2c0.2,0.1,0.2,0.4,0.1,0.8c-0.1,0.4-0.4,0.8-0.9,1.2
			c-0.5,0.4-1.2,0.7-1.9,1c-2,0.9-3.1,1.6-3.6,1.9c0.7,0,1.9-0.2,3.7-0.6l2.6-0.8l0.9-2.4l2.4-13.5l0-2.3c-3.1,1.9-5.2,3.3-6.3,4.1
			h3.2c0.4,0,0.5,0.3,0.4,1c-0.1,0.6-0.5,1.2-1.2,1.7s-1.5,0.9-2.3,1.3c-2.3,1.1-3.6,1.8-3.9,2.2l6.2-0.5c1.1,0,1.7,0.3,1.6,1
			c-0.2,1.1-2.8,2.6-7.7,4.6L273.6,74.8z M279.1,57.2l3.1,0.1c0.8,0,1.5-0.1,2-0.4c0.5-0.3,0.9-0.8,1.1-1.8
			C283.6,55.2,281.5,55.9,279.1,57.2z M294.6,40l-0.3-0.5c-3.3,1.1-5.6,3-7,5.7c-0.3,0.5-0.6,0.8-0.8,1l1.1-0.8
			c0.7-0.6,1.6-1.2,2.5-1.9C292.7,41.4,294.2,40.2,294.6,40z M304.1,38.6l1.3-1.8l0.1-0.4c-3.6,0.4-6.5,1.3-8.9,2.7
			c0.3,0.1,0.7,0.1,1.2,0.1c0.5,0,0.7,0.2,0.6,0.6c-0.1,0.4-0.4,0.8-0.8,1.1c-0.5,0.4-1.1,0.7-1.7,1.1c-1.1,0.7-2,1.3-2.9,1.6
			l0.5,0.2L304.1,38.6z"/>
		<path class="st1" d="M320.1,69.3l-4.5,0.1c-1.8,0-3-0.2-3.5-0.6c-0.1-1.6,0-3.5,0.3-5.5l1.2-5.8c0.1-0.9,1-11.2,2.8-30.8l1.5-6.7
			l0.1-1.2c0.2-1,0.7-1.5,1.6-1.5l10.7-1.4l2.6,0.1c0.8,0.6,1.1,2.9,0.8,7c-0.1,1.1-0.3,2.2-0.4,3.1c-0.2,0.9-0.5,2.2-1.1,3.8
			c-0.6,1.6-1.2,3.3-1.9,5.2c-1.8,4.7-2.8,8-3.1,9.9l-1.6,12.7l-1.5,7.8l-0.5,3.3l-1,0.8C321.8,69.3,321,69.3,320.1,69.3z
			 M314.1,88.2c-0.8,0.6-1.8,0.9-3,0.9c-2.8,0-4.2-0.4-4.2-1.1c0-1.8,0-3.1,0.1-3.8c0.1-0.8,0.3-1.6,0.6-2.5s0.6-1.9,1-2.8
			c0.8-2.3,1.5-3.4,2.1-3.4h10.7c0.2,0,0.3,0.2,0.2,0.5c0.7,2.9,0.7,6.2,0.1,9.9l-0.3,0.9l-0.1,0.6l-1,0.9L314.1,88.2L314.1,88.2z
			 M322,23.5l0.5,0.1c0.3-0.1,0.9-0.4,1.7-1c1.5-0.9,2.2-1.6,2.3-2.1c0.1-0.5-0.2-0.7-0.7-0.7c-2,0-3.6,0.2-4.9,0.6
			c-1.3,0.4-2.1,1.8-2.5,4c0.6,0,1.3-0.2,1.9-0.5C320.8,23.7,321.4,23.5,322,23.5z M321.1,26c-0.8,0.3-1.4,0.5-1.7,0.6
			c-0.3,0.1-0.5,0.4-0.6,0.8c-0.1,0.4,0.2,0.7,0.7,0.9c-0.9,0.3-1.4,0.8-1.6,1.5c0,0.1,0,0.2,0,0.3c0,0.1,0,0.3,0,0.3
			c0.4-0.1,0.7-0.3,0.9-0.5c0.2-0.2,0.5-0.3,0.7-0.3c0.3,0,0.4,0,0.6,0.1c0.3-0.2,0.9-0.5,1.7-0.9c0.8-0.4,1.7-0.8,2.5-1.2
			c2.3-1.3,3.5-2.1,3.5-2.4c0-0.1-0.3-0.4-1-0.6c-0.7-0.3-1.2-0.4-1.5-0.4c-0.3,0-0.8,0.2-1.5,0.5c-0.7,0.4-1.1,0.6-1.3,0.8l0.1-0.4
			C322.5,25.3,322,25.7,321.1,26z M318.4,32.5c1.4,0,2.2-0.4,2.4-1.2c0-0.1-0.1-0.3-0.5-0.5c-0.3-0.2-0.6-0.3-0.7-0.5
			c-0.1,0-0.4,0.1-0.8,0.3c-0.4,0.2-0.6,0.4-0.7,0.5C318,32,318.1,32.4,318.4,32.5z M321,19.4l4.5-0.5c0.9,0,1.7,0.2,2.2,0.5
			c0.5,0.3,1.4,0.5,2.7,0.5l-0.6,1.2c-0.6,0.2-1.4,0.6-2.5,1.1c-1.1,0.5-1.6,0.9-1.6,1h1.7l-0.6,0.4h3.7l0.7-3.8l0.6-0.5
			c-0.9-0.8-2.5-1.2-4.9-1.2h-0.4c-2.4,0-4,0.3-4.8,0.9l0.1-0.5C321.3,18.7,321.1,19,321,19.4z M318.6,36.3c0,0.1,0.2,0.2,0.7,0.2
			c0.5,0,0.7-0.1,0.7-0.2c0-0.1,0.2-0.4,0.5-0.9c0.5-0.6,1.1-0.9,2.1-1c0.9-0.1,1.5-0.2,1.9-0.4c0.4-0.2,0.6-0.6,0.7-1.1
			c-0.1-0.1-0.4-0.1-0.9-0.1h-1c-1.4,0-2.5,0.2-3.3,0.6s-1.3,0.6-1.3,0.7L318.6,36.3z M317.1,85.7c0.3-0.5,1-0.8,2-0.8
			c0.1-0.5,0-1-0.3-1.5c-1.3,1.6-3.6,2.4-7,2.4c0.2-1.1,0.8-1.9,1.7-2.4c1-0.5,1.7-1,2.3-1.3c0.6-0.4,1-0.9,1.4-1.5
			c-0.7,0.4-1.5,0.7-2.4,0.9c-0.9,0.2-1.7,0.4-2.4,0.7c-1.7,0.6-2.7,1.7-2.9,3.1c-0.2,1.4-0.2,2.1,0.3,2.1l7.7-0.9
			C317.5,86.1,317.4,85.9,317.1,85.7z M314.5,78.9c0.4-0.4,0.7-0.7,0.7-0.9c0-0.3-0.2-0.4-0.8-0.4s-1.3,0.3-2.2,0.8
			c-0.9,0.5-1.5,1.3-1.6,2.3l-0.1,0.4C311.6,81.1,312.9,80.4,314.5,78.9z M323.5,36.9l-4.8,1.2c-0.5,0.6-0.9,1.8-1.1,3.4
			c0.9,0,1.8-0.4,2.7-1.1c1-0.7,1.7-1.3,2.2-1.7c0.5-0.4,1-0.8,1.4-1L323.5,36.9z M317.7,45.8c3.2-1.3,5.5-2.8,7.1-4.4
			c-0.4,0.2-1,0.4-1.8,0.5c-0.8,0.1-1.6,0.3-2.4,0.4c-1.9,0.4-3,0.9-3.1,1.6C317.4,44.7,317.5,45.3,317.7,45.8z M319.8,51.3l3.9-0.6
			l0.7-3.8c-0.6,0-1.2,0.3-1.7,0.9c-0.5,0.6-0.9,1-1.1,1.3c-0.3,0.3-0.6,0.4-1,0.4c0.1-0.7,0.4-1.2,0.9-1.5c1-0.6,1.5-1.1,1.6-1.5
			c-0.8,0-2,0.3-3.6,0.9c-1.6,0.6-2.4,0.9-2.4,1l0.3,3.4c0.6-0.4,0.9-0.7,1-1c0.1-0.3,0.5-0.7,1.1-1c0.3,0.3,0.4,0.5,0.4,0.8
			l-0.5,0.8C319.3,51.2,319.4,51.3,319.8,51.3z M316.2,56.9c0.3,0,1.1-0.5,2.3-1.5c2.5-1.9,3.8-3,3.8-3.4c-1.1,0-2,0.1-2.8,0.4
			c-0.8,0.3-1.6,0.4-2.7,0.4L316.2,56.9z M319.6,59.2c-1.7,1.4-3.1,2.3-4.2,2.6l-0.1,0.4c0.3-0.1,0.8-0.2,1.6-0.4
			c0.8-0.2,1.6-0.4,2.4-0.6c2.1-0.6,3.2-1.2,3.4-1.9c0.1-0.4-0.1-0.5-0.4-0.5c-1.3,0.3-2.3,0.6-2.8,1L319.6,59.2z M315.2,64.8
			c1.1,0,1.8-0.3,2.3-0.9c0.5-0.6,1.1-1.1,2-1.7H319c-1.3,0-2.3,0.3-3,0.8c-0.7,0.5-1.1,1-1.2,1.3L315.2,64.8z M323,30.4
			c0.2,0.2,0.4,0.6,0.5,1.3h4.3l0.7,0.9l0.8-2.4c0.1-0.4-0.1-0.5-0.5-0.5c-0.4,0-2,0.6-4.7,1.6c-0.1-0.1-0.1-0.2,0-0.3l0.1-0.5
			c0.2-0.9,1.4-1.5,3.7-2c0.5-0.1,0.9-0.3,1-0.4l0.7,0.9l0.7-3.9h-1.3c0.3,0,0.4,0.2,0.3,0.5c-0.1,0.3-0.5,0.7-1.2,1.1
			c-0.8,0.4-1.6,0.9-2.5,1.3c-0.9,0.4-1.8,0.8-2.6,1.2c-0.9,0.4-1.4,0.7-1.7,0.9l0.4,0.4c0.6-0.5,1-0.8,1.4-0.8
			c0.3,0,0.5,0.1,0.4,0.2C323.5,30,323.4,30.2,323,30.4z M316.3,59.1c-0.2,1-0.1,1.5,0.2,1.5c0.7-0.9,1.6-1.4,2.6-1.7
			c1-0.3,1.9-0.9,2.7-1.7c-1,0-1.9,0.1-2.5,0.4c-0.7,0.3-1.6,0.4-2.7,0.4L316.3,59.1z M314.9,66.8c0.1,0.5,0.9,0.8,2.5,0.8h0.8
			c1.2,0,2.1-0.1,2.6-0.3c0.5-0.2,0.9-1,1.1-2.4H321c0.1-0.4,0.2-0.6,0.4-0.6c0.2,0,0.4-0.3,0.5-0.8c0.1-0.5-0.1-0.8-0.6-0.8
			c-0.5,0-0.8,0.1-0.9,0.4c0.2,0.2,0.2,0.4,0.2,0.7c0,0.3-0.4,0.5-0.9,0.8c-0.6,0.3-1.2,0.5-1.9,0.8c-0.7,0.3-1.3,0.5-1.9,0.8
			C315.2,66.4,314.9,66.6,314.9,66.8z M327.1,36.3c-1,0.9-2.1,1.8-3.5,2.5c-1.4,0.8-2.5,1.6-3.3,2.5c1.9,0,3.5-0.3,4.8-1
			c1.3-0.7,2.1-2,2.5-4H327.1z M317.5,57.3h0.4c1.3,0,2.5-0.4,3.7-1.3c1.2-0.9,1.9-1.9,2.1-3.1c-0.3,0-1.1,0.4-2.4,1.3
			c-2.4,1.5-3.7,2.5-4,3C317.4,57.3,317.5,57.3,317.5,57.3z M324,43.9c-0.5,0.4-0.9,0.6-1.4,0.6c-0.5,0-1.1,0.3-1.8,0.8
			c-0.7,0.5-1.1,0.8-1,0.9c2,0,3.4-0.3,4.2-0.9c0.8-0.6,1.3-1,1.3-1.3s0.1-0.6,0.1-0.8c0-0.2,0-0.3,0-0.4
			C325,43.1,324.5,43.5,324,43.9z M327.6,33.3c-0.2,0-0.6,0.1-1.2,0.4c-0.6,0.3-1.1,0.6-1.8,0.9c-1.2,0.6-2.1,1.2-2.7,1.7
			c0.9,0,1.9-0.2,2.8-0.5c0.9-0.3,1.9-0.5,2.9-0.5l0.4-2L327.6,33.3L327.6,33.3z M320,78.6c0.1-0.4-0.2-0.6-0.8-0.6
			c-0.6,0-1.4,0.2-2.4,0.6c-1,0.4-1.6,0.9-1.8,1.5h0.5c0.2-0.1,0.6-0.2,1-0.3c0.5-0.1,0.9-0.2,1.5-0.4C319.3,79.1,320,78.8,320,78.6
			z M320.1,81l0-0.5c-0.8,0-1.8,0.5-3.1,1.6c-1.3,1.1-2,1.7-2.2,1.9c1.1,0,2.3-0.3,3.4-0.9C319.4,82.5,320,81.8,320.1,81z"/>
	</g>
</g>
</svg>
