<?xml version="1.0" encoding="utf-8"?>
<!-- Generator: Adobe Illustrator 19.2.0, SVG Export Plug-In . SVG Version: 6.00 Build 0)  -->
<svg version="1.1" id="Layer_1" xmlns="http://www.w3.org/2000/svg" xmlns:xlink="http://www.w3.org/1999/xlink" x="0px" y="0px"
	 viewBox="0 0 194.1 35" style="enable-background:new 0 0 194.1 35;" xml:space="preserve">
<style type="text/css">
	.st0{fill:#3F471D;}
	.st1{enable-background:new    ;}
</style>
<g>
	<path class="st0" d="M17.3,53.2c0.5-0.8,1-1.6,1.5-2.4c0.5-0.8,0.9-1.7,1.2-2.6c0.3-0.9,0.4-1.7,0.4-2.6c0-0.8-0.4-1.6-1-2.4
		c-0.9-0.9-1.8-1.3-2.9-1.4c-1.1-0.1-2.2,0.1-3.3,0.4c-1.1,0.4-2.2,0.9-3.2,1.6c-1,0.7-1.9,1.3-2.6,2c-0.9,0.8-1.7,1.7-2.4,2.7
		s-1.2,2.1-1.6,3.2c-0.2,0.5-0.3,1-0.4,1.6c-0.1,0.6-0.1,1.2,0,1.8s0.2,1.1,0.5,1.6s0.7,0.9,1.2,1.2c0.5,0.2,1,0.4,1.6,0.3
		c0.5,0,1.1-0.2,1.6-0.4s1-0.5,1.4-0.8c0.5-0.3,0.9-0.7,1.2-1c0.8-0.7,1.5-1.6,2.1-2.6c0.6-1,1-2,1.1-3.1c0.1-0.5,0.1-0.9,0-1.3
		c-0.1-0.4-0.1-0.8-0.2-1.1c-0.1-0.2-0.1-0.4-0.1-0.6s0.2-0.3,0.5-0.3c0.2,0,0.4,0.1,0.5,0.3s0.1,0.4,0.2,0.6
		c0.2,0.6,0.2,1.1,0.2,1.7c0,0.6-0.2,1.2-0.3,1.8c-0.2,0.6-0.4,1.2-0.7,1.7c-0.3,0.6-0.6,1.1-0.9,1.5c-0.4,0.5-0.8,1-1.3,1.6
		c-0.5,0.5-1.1,1-1.7,1.5c-0.6,0.4-1.3,0.8-2,1.1s-1.4,0.4-2.1,0.5c-0.7,0-1.3-0.1-1.9-0.4c-0.6-0.3-1.1-0.8-1.6-1.6
		c-0.7-1.1-1-2.2-0.9-3.4s0.4-2.4,0.9-3.5c0.5-1.2,1.2-2.2,2-3.3c0.8-1,1.6-1.9,2.4-2.6c0.8-0.7,1.8-1.4,3-2.1
		c1.1-0.6,2.3-1.1,3.5-1.4c1.2-0.3,2.4-0.4,3.6-0.2s2.3,0.7,3.3,1.6c0.7,0.6,1.2,1.2,1.4,2c0.3,0.7,0.4,1.5,0.3,2.2
		c0,0.8-0.2,1.5-0.5,2.3s-0.6,1.5-0.9,2.1c-0.4,0.7-0.7,1.3-1.1,1.9c0.7,0,1.4,0.2,2.1,0.6c0.6-0.3,1.3-0.7,1.9-1
		c0.6-0.4,1.2-0.7,1.7-1c0.9-0.5,1.7-1.1,2.6-1.8c0.9-0.6,1.8-1.3,2.7-2c0.9-0.7,1.7-1.4,2.4-2.2c0.8-0.8,1.4-1.5,1.9-2.4
		c0,0,0.1-0.1,0.1-0.2c0-0.1,0.1-0.2,0.1-0.3c0.1-0.1,0.1-0.2,0.2-0.3c0.1-0.1,0.1-0.1,0.2-0.1c0.2,0,0.3,0.2,0.3,0.5
		s-0.1,0.7-0.3,1.1c-0.2,0.4-0.3,0.8-0.5,1.1s-0.3,0.6-0.4,0.6c-1,1.4-2.1,2.7-3.5,3.8c-1.4,1.1-2.8,2.1-4.2,3
		c-1.4,0.9-2.8,1.6-4.2,2.1c0.7,0.7,1.4,1.6,1.9,2.5c0.5,1,1,1.9,1.4,2.8c0.4,0.8,0.9,1.7,1.4,2.6c0.5,0.9,1.1,1.8,1.7,2.7
		c0.6,0.8,1.4,1.6,2.2,2.1c0.8,0.6,1.7,0.9,2.8,1c0.7,0.1,1.5,0,2.2-0.3c0.7-0.2,1.4-0.6,1.8-1.2c0.1-0.1,0.2-0.3,0.3-0.5
		s0.2-0.4,0.3-0.4c0.2-0.1,0.3-0.1,0.4-0.1c0.1,0.1,0.2,0.2,0.2,0.3c0,0.2,0,0.3,0,0.5s-0.1,0.4-0.2,0.6c-0.3,0.5-0.7,0.9-1.1,1.2
		c-0.5,0.3-1,0.6-1.5,0.8c-1.1,0.5-2.2,0.6-3.3,0.3c-1-0.2-2-0.7-2.9-1.3c-0.9-0.6-1.7-1.4-2.4-2.3c-0.7-0.9-1.4-1.8-1.9-2.7
		c-0.4-0.6-0.7-1.2-1-1.8s-0.6-1.3-0.9-1.9s-0.6-1.3-0.9-1.9c-0.3-0.6-0.7-1.2-1-1.8c-0.2-0.2-0.3-0.4-0.5-0.6
		c-0.2-0.2-0.3-0.3-0.5-0.5c-0.5,0.2-1.1,0.3-1.7,0.5s-1.1,0.2-1.7,0.1c-0.5,0.8-1.1,1.5-1.6,2.3c-0.6,0.8-1,1.6-1.4,2.4
		c-0.2,0.4-0.4,0.8-0.5,1.2c-0.2,0.4-0.2,0.8-0.3,1.2c0,0.2,0,0.4,0.1,0.6c0.1,0.2,0.1,0.4,0.2,0.6c0,0.3,0,0.5-0.2,0.7
		s-0.4,0.1-0.7-0.2c-0.2-0.2-0.4-0.5-0.4-0.8c-0.1-0.4-0.1-0.7-0.2-0.9c0-0.4,0-0.9,0.1-1.3c0.1-0.4,0.2-0.9,0.4-1.3
		c0.2-0.4,0.4-0.8,0.6-1.2c0.2-0.4,0.4-0.8,0.6-1.2c0.3-0.5,0.6-0.9,0.9-1.4c0.3-0.4,0.6-0.9,0.9-1.3c-0.2-0.5-0.2-0.8,0.1-1.2
		C16.4,53.5,16.8,53.3,17.3,53.2z M19.9,54.3c-0.4-0.1-0.8-0.2-1.2-0.2l-0.5,0.7C18.8,54.6,19.3,54.5,19.9,54.3z"/>
	<path class="st0" d="M46.7,48.8c-1.4-0.5-2.8-0.6-4.1-0.3s-2.6,0.8-3.8,1.6s-2.2,1.7-3.2,2.8s-1.8,2.2-2.5,3.3
		c-0.4,0.6-0.7,1.1-1,1.7c-0.3,0.6-0.6,1.2-0.8,1.9c-0.1,0.2-0.1,0.5-0.2,0.8s-0.2,0.6-0.2,1c0,0.3,0,0.6,0,0.9
		c0.1,0.3,0.2,0.5,0.4,0.7c0.2,0.2,0.5,0.2,0.8,0.2c0.3-0.1,0.5-0.2,0.8-0.4s0.5-0.4,0.7-0.6c0.2-0.2,0.4-0.4,0.6-0.6
		c1-1.1,2.1-2.2,3.1-3.3c1.1-1.2,2.1-2.3,3.1-3.3c0.2-0.2,0.5-0.5,0.8-0.7s0.6-0.4,0.9-0.6c0.3-0.2,0.7-0.3,1-0.3
		c0.4-0.1,0.7,0,1.1,0.1c0.4,0.1,0.5,0.4,0.4,0.8c-0.2,0.5-0.4,1.1-0.8,1.6c-0.4,0.5-0.7,1-0.9,1.5c-0.4,0.8-0.8,1.5-1.2,2.3
		c-0.4,0.7-0.7,1.5-0.9,2.3c-0.1,0.4-0.1,0.6-0.1,0.8c0.1,0.2,0.2,0.4,0.3,0.5c0.2,0.1,0.4,0.1,0.6,0.1c0.2,0,0.4-0.1,0.7-0.2
		c0.3-0.1,0.6-0.3,0.9-0.5c0.3-0.2,0.6-0.4,0.9-0.7c0.3-0.2,0.6-0.5,0.8-0.7c0.3-0.2,0.5-0.5,0.7-0.7c0.8-0.8,1.6-1.6,2.3-2.5
		s1.4-1.8,2-2.7c0-0.1,0.1-0.1,0.2-0.1c0.1,0,0.1,0.1,0.2,0.1c0,0.1,0,0.2-0.1,0.4S50,56.3,50,56.3c-0.3,0.6-0.7,1.1-1.1,1.7
		c-0.4,0.6-0.9,1.3-1.4,2c-0.6,0.8-1.2,1.5-1.9,2.2s-1.4,1.3-2.1,1.8c-0.7,0.5-1.4,0.8-2.1,0.8c-0.7,0-1.2-0.1-1.5-0.3
		c-0.3-0.3-0.5-0.6-0.5-1.1c-0.1-0.5,0-1,0.2-1.7s0.4-1.3,0.7-1.9c0.3-0.7,0.6-1.3,0.9-2c0.4-0.7,0.7-1.3,1-1.8
		c0.4-0.7,0.6-1.1,0.5-1.2c-0.1-0.1-0.5,0.2-1.2,0.8c-0.8,0.7-1.6,1.4-2.2,2.2c-0.7,0.8-1.3,1.5-2,2.3c-0.6,0.7-1.3,1.5-1.9,2.2
		s-1.3,1.4-2.1,2c-0.4,0.3-0.7,0.5-1.1,0.5c-0.4,0.1-0.8,0-1.1-0.1c-0.4-0.1-0.7-0.4-0.9-0.7c-0.3-0.3-0.4-0.8-0.5-1.3
		s-0.1-1.1,0-1.7c0.1-0.6,0.3-1.2,0.5-1.8s0.5-1.2,0.7-1.7s0.5-0.9,0.7-1.2c0.6-1.1,1.4-2.2,2.4-3.3c0.9-1.1,1.9-2.1,3-2.9
		c1.1-0.9,2.2-1.5,3.5-2.1c1.2-0.5,2.4-0.7,3.7-0.7c0.5,0,1.1,0.1,1.6,0.3s1,0.4,1.4,0.6c0.2,0.1,0.3,0.3,0.3,0.6
		C47.2,48.8,47,48.9,46.7,48.8z"/>
	<path class="st0" d="M56.9,48.3c-1,1-1.8,2-2.7,3c-0.8,1.1-1.6,2.2-2.3,3.3c-0.3,0.4-0.7,1-1.1,1.7c-0.4,0.7-0.9,1.5-1.2,2.2
		c-0.4,0.8-0.6,1.5-0.8,2.3s-0.1,1.3,0.2,1.8c0.2,0.4,0.6,0.6,1,0.6s0.9-0.2,1.4-0.5s1.1-0.8,1.7-1.4c0.6-0.6,1.2-1.2,1.8-1.9
		s1.2-1.4,1.7-2.1c0.6-0.7,1.1-1.4,1.5-2.1c0.5-0.6,0.9-1.2,1.2-1.7s0.6-0.8,0.7-1c0.7-0.9,1.3-1.8,1.9-2.7c0.6-0.9,1.2-1.7,1.9-2.5
		c0.1-0.2,0.3-0.2,0.5-0.2s0.3,0.1,0.5,0.2c0.1,0.1,0.2,0.3,0.2,0.4c0,0.2,0,0.3-0.1,0.5c-0.9,1.1-1.7,2.4-2.4,3.8
		c-0.7,1.4-1.3,2.8-1.9,4.2c-0.3,0.7-0.6,1.4-0.8,2.2c-0.2,0.7-0.4,1.5-0.5,2.2c-0.1,1-0.1,1.7,0,2.1c0.1,0.4,0.4,0.7,0.7,0.8
		s0.7,0,1.2-0.2s1-0.6,1.5-1c0.6-0.5,1.3-1.1,1.9-1.7c0.6-0.7,1.3-1.4,1.9-2.2s1.2-1.5,1.7-2.3s1-1.5,1.3-2.1
		c0.1-0.2,0.3-0.5,0.5-0.9s0.4-0.7,0.5-1.1s0.3-0.8,0.4-1.2S71,50,71,49.7c-0.3-0.1-0.6-0.4-0.8-0.7c-0.3-0.4-0.4-0.7-0.4-1
		s0.1-0.5,0.4-0.7c0.2-0.1,0.5-0.2,0.8-0.1c0.3,0.1,0.6,0.2,0.9,0.6c0.1,0.1,0.2,0.3,0.3,0.5c0.1,0.2,0.2,0.4,0.2,0.5
		c0.4,0.1,0.8,0.2,1.2,0.2c0.5,0,0.9,0.1,1.4,0c0.5,0,0.9,0,1.3-0.1s0.7-0.1,0.9-0.1c0.6-0.1,0.9-0.1,1,0.1c0,0.1-0.2,0.3-0.8,0.5
		c-0.8,0.3-1.6,0.5-2.5,0.7c-0.8,0.1-1.7,0.1-2.4,0c-0.1,0.8-0.3,1.5-0.6,2.2c-0.3,0.7-0.6,1.4-0.9,2c-0.7,1.3-1.6,2.6-2.6,3.9
		c-1,1.2-2,2.4-3.1,3.5c-1.5,1.4-2.9,2.3-4,2.7s-1.9,0.5-2.5,0c-0.6-0.4-0.9-1.3-0.9-2.6s0.3-3,1-5c0.2-0.6,0.4-1.1,0.6-1.6
		c0.2-0.5,0.4-1,0.7-1.6c-0.7,1.1-1.4,2.1-2,3s-1.1,1.7-1.6,2.4s-1,1.4-1.5,2s-1,1.2-1.5,1.7c-0.4,0.4-0.8,0.7-1.2,1
		c-0.5,0.3-1,0.6-1.5,0.7c-0.5,0.2-1,0.2-1.5,0.1s-0.9-0.4-1.3-1c-0.4-0.6-0.6-1.4-0.5-2.2c0.1-0.9,0.3-1.7,0.7-2.6
		c0.3-0.9,0.7-1.7,1.2-2.5s0.9-1.4,1.2-1.9c0.8-1.2,1.6-2.5,2.6-3.7c0.9-1.2,1.9-2.3,3-3.3c0.1-0.1,0.3-0.2,0.5-0.2s0.3,0.1,0.5,0.2
		c0.1,0.1,0.2,0.3,0.2,0.5C57.1,48,57,48.2,56.9,48.3z"/>
	<path class="st0" d="M88.7,48.8c-1.4-0.5-2.8-0.6-4.1-0.3c-1.3,0.3-2.6,0.8-3.8,1.6c-1.2,0.8-2.2,1.7-3.2,2.8s-1.8,2.2-2.5,3.3
		c-0.4,0.6-0.7,1.1-1,1.7c-0.3,0.6-0.6,1.2-0.8,1.9c-0.1,0.2-0.1,0.5-0.2,0.8s-0.2,0.6-0.2,1c0,0.3,0,0.6,0,0.9s0.2,0.5,0.4,0.7
		c0.2,0.2,0.5,0.2,0.8,0.2c0.3-0.1,0.5-0.2,0.8-0.4s0.5-0.4,0.7-0.6c0.2-0.2,0.4-0.4,0.6-0.6c1-1.1,2.1-2.2,3.1-3.3
		c1.1-1.2,2.1-2.3,3.1-3.3c0.2-0.2,0.5-0.5,0.8-0.7s0.6-0.4,0.9-0.6c0.3-0.2,0.7-0.3,1-0.3c0.4-0.1,0.7,0,1.1,0.1s0.5,0.4,0.4,0.8
		c-0.2,0.5-0.4,1.1-0.8,1.6s-0.7,1-0.9,1.5c-0.4,0.8-0.8,1.5-1.2,2.3c-0.4,0.7-0.7,1.5-0.9,2.3c-0.1,0.4-0.1,0.6-0.1,0.8
		c0.1,0.2,0.2,0.4,0.3,0.5c0.2,0.1,0.4,0.1,0.6,0.1s0.4-0.1,0.7-0.2c0.3-0.1,0.6-0.3,0.9-0.5s0.6-0.4,0.9-0.7
		c0.3-0.2,0.6-0.5,0.8-0.7c0.3-0.2,0.5-0.5,0.7-0.7c0.8-0.8,1.6-1.6,2.3-2.5c0.7-0.9,1.4-1.8,2-2.7c0-0.1,0.1-0.1,0.2-0.1
		s0.1,0.1,0.2,0.1c0,0.1,0,0.2-0.1,0.4S92,56.3,92,56.3c-0.3,0.6-0.7,1.1-1.1,1.7c-0.4,0.6-0.9,1.3-1.4,2c-0.6,0.8-1.2,1.5-1.9,2.2
		c-0.7,0.7-1.4,1.3-2.1,1.8s-1.4,0.8-2.1,0.8s-1.2-0.1-1.5-0.3c-0.3-0.3-0.5-0.6-0.5-1.1c-0.1-0.5,0-1,0.2-1.7s0.4-1.3,0.7-1.9
		c0.3-0.7,0.6-1.3,0.9-2c0.4-0.7,0.7-1.3,1-1.8c0.4-0.7,0.6-1.1,0.5-1.2c-0.1-0.1-0.5,0.2-1.2,0.8c-0.8,0.7-1.6,1.4-2.2,2.2
		c-0.7,0.8-1.3,1.5-2,2.3c-0.6,0.7-1.3,1.5-1.9,2.2c-0.7,0.7-1.3,1.4-2.1,2c-0.4,0.3-0.7,0.5-1.1,0.5c-0.4,0.1-0.8,0-1.1-0.1
		c-0.4-0.1-0.7-0.4-0.9-0.7c-0.3-0.3-0.4-0.8-0.5-1.3s-0.1-1.1,0-1.7c0.1-0.6,0.3-1.2,0.5-1.8s0.5-1.2,0.7-1.7s0.5-0.9,0.7-1.2
		c0.6-1.1,1.4-2.2,2.4-3.3c0.9-1.1,1.9-2.1,3-2.9c1.1-0.9,2.2-1.5,3.5-2.1c1.2-0.5,2.4-0.7,3.7-0.7c0.5,0,1.1,0.1,1.6,0.3
		c0.6,0.2,1,0.4,1.4,0.6c0.2,0.1,0.3,0.3,0.3,0.6C89.2,48.8,89,48.9,88.7,48.8z"/>
	<path class="st0" d="M97.3,49.3c-0.1,0.5-0.3,0.9-0.6,1.4c-0.3,0.4-0.6,0.9-0.9,1.3c-0.4,0.7-0.8,1.3-1.3,1.9
		c-0.4,0.6-0.9,1.3-1.3,1.9c-0.2,0.3-0.4,0.6-0.7,1c-0.3,0.4-0.5,0.8-0.8,1.3S91.2,59,91,59.5s-0.3,1-0.4,1.4
		c-0.1,1,0.1,1.7,0.5,2.1c0.4,0.4,1.1,0.5,1.9,0.2c0.3-0.1,0.7-0.3,1-0.5c0.4-0.2,0.7-0.5,1-0.8s0.6-0.6,0.9-0.8
		c0.3-0.3,0.5-0.5,0.7-0.7c0.8-0.8,1.5-1.6,2.3-2.5c0.7-0.9,1.4-1.7,2.2-2.6c0.1-0.1,0.2-0.2,0.4,0c0.1,0.1,0.1,0.3-0.1,0.5
		c-0.2,0.3-0.5,0.6-0.7,1c-0.3,0.4-0.6,0.7-0.9,1.1c-0.3,0.4-0.6,0.7-0.9,1.1c-0.3,0.4-0.6,0.7-0.9,1c-0.4,0.4-0.8,0.9-1.2,1.5
		c-0.5,0.6-0.9,1.1-1.5,1.6c-0.5,0.5-1.1,0.9-1.7,1.2s-1.2,0.4-1.9,0.3c-0.7-0.1-1.2-0.3-1.6-0.7c-0.4-0.4-0.6-0.8-0.7-1.3
		s-0.1-1.1-0.1-1.7c0.1-0.6,0.2-1.1,0.4-1.6c0.5-1.3,1.1-2.5,1.9-3.6s1.5-2.3,2.3-3.4c0.4-0.5,0.7-1,1-1.5s0.6-1,0.8-1.6
		c0-0.1,0.1-0.2,0.1-0.3s0.1-0.2,0.2-0.3c0.3-0.2,0.5-0.2,0.8,0C97.3,48.8,97.4,49,97.3,49.3z M97.8,44.1c0.3-0.3,0.5-0.4,0.8-0.4
		s0.5,0.1,0.7,0.3s0.2,0.4,0.2,0.7s-0.2,0.6-0.5,0.8s-0.6,0.4-0.8,0.3c-0.3,0-0.5-0.1-0.6-0.3s-0.2-0.4-0.2-0.7
		C97.5,44.7,97.6,44.4,97.8,44.1z"/>
	<path class="st0" d="M106.3,49.3c-0.1,0.5-0.3,0.9-0.6,1.4c-0.3,0.4-0.6,0.9-0.9,1.3c-0.4,0.7-0.8,1.3-1.3,1.9
		c-0.4,0.6-0.9,1.3-1.3,1.9c-0.2,0.3-0.4,0.6-0.7,1c-0.3,0.4-0.5,0.8-0.8,1.3s-0.5,0.9-0.7,1.4s-0.3,1-0.4,1.4
		c-0.1,1,0.1,1.7,0.5,2.1c0.4,0.4,1.1,0.5,1.9,0.2c0.3-0.1,0.7-0.3,1-0.5c0.4-0.2,0.7-0.5,1-0.8s0.6-0.6,0.9-0.8
		c0.3-0.3,0.5-0.5,0.7-0.7c0.8-0.8,1.5-1.6,2.3-2.5s1.4-1.7,2.2-2.6c0.1-0.1,0.2-0.2,0.4,0c0.1,0.1,0.1,0.3-0.1,0.5
		c-0.2,0.3-0.5,0.6-0.7,1c-0.3,0.4-0.6,0.7-0.9,1.1c-0.3,0.4-0.6,0.7-0.9,1.1c-0.3,0.4-0.6,0.7-0.9,1c-0.4,0.4-0.8,0.9-1.2,1.5
		c-0.5,0.6-0.9,1.1-1.5,1.6s-1.1,0.9-1.7,1.2s-1.2,0.4-1.9,0.3c-0.7-0.1-1.2-0.3-1.6-0.7c-0.4-0.4-0.6-0.8-0.7-1.3s-0.1-1.1-0.1-1.7
		c0.1-0.6,0.2-1.1,0.4-1.6c0.5-1.3,1.1-2.5,1.9-3.6s1.5-2.3,2.3-3.4c0.4-0.5,0.7-1,1-1.5s0.6-1,0.8-1.6c0-0.1,0.1-0.2,0.1-0.3
		s0.1-0.2,0.2-0.3c0.3-0.2,0.5-0.2,0.8,0C106.3,48.8,106.4,49,106.3,49.3z M106.9,44.1c0.3-0.3,0.5-0.4,0.8-0.4s0.5,0.1,0.7,0.3
		s0.2,0.4,0.2,0.7s-0.2,0.6-0.5,0.8s-0.6,0.4-0.8,0.3c-0.3,0-0.5-0.1-0.6-0.3s-0.2-0.4-0.2-0.7C106.5,44.7,106.6,44.4,106.9,44.1z"
		/>
	<path class="st0" d="M121.9,64.5c-0.5,0-0.9-0.1-1.3-0.4c-0.4-0.3-0.8-0.7-1.1-1.2c-0.3-0.5-0.6-1-0.7-1.6
		c-0.2-0.6-0.2-1.3-0.2-1.9c0-1.3,0.3-2.6,0.7-3.9c0.4-1.2,1-2.4,1.8-3.5c0.7-1.1,1.6-2.1,2.5-3s1.9-1.7,3-2.5
		c0.7-0.5,1.4-0.9,2.3-1.4c0.9-0.5,1.8-0.9,2.7-1.3c1-0.4,1.9-0.7,3-1c1-0.3,2-0.4,3-0.5c1,0,1.9,0.1,2.8,0.3
		c0.9,0.2,1.7,0.7,2.3,1.3c0.7,0.7,1.2,1.4,1.5,2.2s0.4,1.6,0.4,2.5s-0.2,1.7-0.5,2.6c-0.3,0.9-0.7,1.7-1.1,2.6
		c-0.4,0.8-0.9,1.6-1.5,2.3c-0.5,0.7-1,1.4-1.5,1.9c-1,1.1-2,2.1-3.2,3c-1.1,0.9-2.4,1.7-3.7,2.3c-0.5,0.2-1,0.4-1.5,0.6
		c-0.5,0.2-1.1,0.3-1.7,0.3c-0.6,0.1-1.1,0-1.6-0.1s-1-0.3-1.4-0.7c-0.6-0.5-0.8-1.1-0.8-1.8s0.2-1.4,0.4-2.2
		c0.3-0.7,0.6-1.5,1.1-2.1c0.4-0.7,0.8-1.2,1.1-1.7c0.8-1.2,1.6-2.3,2.6-3.3c0.9-1.1,1.9-2.1,2.9-3.1c0.1-0.1,0.2-0.2,0.4-0.2
		c0.1,0,0.2,0.1,0.3,0.1c0.1,0.1,0.1,0.2,0.1,0.3s0,0.3,0,0.4c0,0.1-0.1,0.1-0.1,0.2c-0.1,0.1-0.1,0.2-0.2,0.2
		c-0.3,0.4-0.7,0.9-1,1.3c-0.4,0.5-0.7,0.9-1.1,1.4c-0.7,1-1.5,2.1-2.3,3.1c-0.8,1.1-1.4,2.2-1.9,3.4c-0.1,0.2-0.1,0.4-0.2,0.6
		c-0.1,0.2-0.2,0.4-0.2,0.7c-0.1,0.2-0.1,0.5-0.1,0.7s0.1,0.4,0.2,0.5c0.2,0.3,0.6,0.5,1.1,0.5s0.9,0,1.2,0c0.6-0.1,1.2-0.2,1.8-0.5
		c0.6-0.2,1.2-0.5,1.7-0.9c0.6-0.3,1.1-0.7,1.6-1.1c0.5-0.4,1-0.8,1.4-1.2c1-0.9,1.9-1.8,2.7-2.7c0.8-1,1.5-2,2.1-3.1
		c0.3-0.5,0.5-1.1,0.7-1.7c0.2-0.6,0.4-1.2,0.5-1.8s0.1-1.2,0.1-1.8c-0.1-0.6-0.2-1.2-0.5-1.8s-0.7-1-1.1-1.3
		c-0.4-0.3-0.9-0.5-1.5-0.7c-0.5-0.1-1.1-0.2-1.7-0.2c-0.6,0-1.1,0-1.7,0.1c-1.3,0.2-2.6,0.5-3.8,1s-2.4,1.1-3.6,1.8
		c-1.1,0.6-2.2,1.4-3.3,2.3c-1.1,0.9-2.1,1.8-3,2.9c-0.9,1-1.6,2.2-2.1,3.4c-0.6,1.2-0.8,2.5-0.8,3.9c0,0.5,0,0.9,0.1,1.3
		c0.1,0.4,0.2,0.7,0.4,1c0.2,0.3,0.4,0.6,0.7,0.9c0.3,0.3,0.6,0.6,1.1,0.8c0.1,0.1,0.2,0.2,0.3,0.2c0.1,0.1,0.2,0.2,0.2,0.3
		s0,0.3-0.1,0.4S122,64.5,121.9,64.5z"/>
	<path class="st0" d="M146,62.1c0.6,0.7,1.4,1.1,2.3,1.2c0.9,0.1,1.8,0,2.7-0.2s1.8-0.6,2.7-1.1s1.6-0.9,2.2-1.4
		c1.7-1.2,3.1-2.7,4.4-4.4c0.2-0.2,0.3-0.5,0.4-0.6c0.1-0.2,0.2-0.3,0.2-0.4c0.1-0.2,0.3-0.3,0.4-0.2c0.1,0.1,0.1,0.2,0,0.5
		s-0.3,0.6-0.5,0.9c-0.2,0.3-0.4,0.5-0.4,0.6c-0.6,0.8-1.2,1.6-1.9,2.4c-0.7,0.8-1.5,1.5-2.3,2.1c-0.8,0.7-1.7,1.2-2.6,1.7
		c-0.9,0.5-1.9,0.8-2.9,1.1c-0.9,0.2-1.8,0.3-2.7,0.1c-0.9-0.1-1.6-0.4-2.3-0.9c-0.7-0.4-1.2-1-1.5-1.8c-0.4-0.8-0.5-1.7-0.4-2.7
		s0.3-2,0.7-3.1c0.4-1,0.9-2,1.5-3c0.6-0.9,1.3-1.8,2-2.6c0.8-0.8,1.6-1.5,2.4-2c0.4-0.3,0.9-0.5,1.3-0.7c0.5-0.2,1-0.4,1.5-0.5
		s1-0.1,1.5,0s1,0.2,1.4,0.5c0.5,0.4,0.9,0.8,1.1,1.3c0.2,0.5,0.3,1,0.3,1.6s-0.1,1.1-0.3,1.7c-0.2,0.6-0.5,1.1-0.8,1.5
		c-0.6,0.9-1.3,1.7-2.1,2.2c-0.8,0.6-1.7,0.9-2.6,1.2c-0.9,0.2-1.9,0.3-2.9,0.2s-1.9-0.4-2.9-0.8c-0.2,0.4-0.3,0.9-0.5,1.4
		c-0.1,0.5-0.2,1-0.2,1.4c0,0.5,0,1,0.1,1.4C145.5,61.3,145.7,61.7,146,62.1z M155.5,53.1c0.2-0.3,0.4-0.7,0.5-1.2
		c0.2-0.4,0.2-0.9,0.2-1.3s-0.1-0.8-0.3-1.2s-0.5-0.6-1-0.8s-1-0.2-1.5-0.1c-0.5,0.1-1,0.3-1.4,0.6c-0.5,0.3-0.9,0.6-1.3,0.9
		c-0.4,0.4-0.8,0.7-1.1,1c-0.7,0.7-1.3,1.4-1.8,2.2c-0.6,0.8-1,1.6-1.5,2.5c0.8,0.4,1.7,0.6,2.5,0.7s1.7,0,2.6-0.2
		c0.8-0.2,1.6-0.6,2.3-1.1C154.4,54.6,155,53.9,155.5,53.1z"/>
	<path class="st0" d="M174.4,47.3c0.2-0.1,0.4,0,0.6,0.1c0.2,0.1,0.4,0.4,0.6,0.7c0.1,0.4,0.2,0.9,0.2,1.5s-0.1,1.4-0.3,2.3
		c0.3,0.5,0.6,1,0.9,1.4c0.3,0.4,0.6,0.8,0.9,1.2s0.6,0.6,0.8,0.9c0.2,0.2,0.5,0.4,0.6,0.5c0.2,0.1,0.2,0.2,0.2,0.3
		s-0.1,0.2-0.2,0.2c-0.1,0.1-0.2,0.1-0.4,0c-0.2,0-0.3-0.1-0.5-0.2c-0.6-0.4-1.1-0.8-1.6-1.3c-0.5-0.4-1-1.1-1.5-1.8
		c-0.5,1-1.1,2-1.8,2.9c-0.7,1-1.5,1.9-2.3,2.8c-0.8,0.9-1.6,1.8-2.5,2.5c-0.9,0.8-1.7,1.4-2.4,1.9c-0.5,0.3-1,0.6-1.6,0.9
		s-1.2,0.5-1.8,0.6s-1.1,0-1.7-0.2c-0.5-0.2-0.9-0.7-1.2-1.4c-0.4-0.8-0.5-1.7-0.4-2.6s0.3-1.8,0.5-2.6c0.2-0.9,0.5-1.7,0.9-2.5
		c0.3-0.8,0.7-1.6,1.1-2.4c0.5-0.9,0.9-1.8,1.5-2.7c0.5-0.9,1.1-1.7,1.8-2.5c0.1-0.1,0.3-0.3,0.4-0.5c0.2-0.2,0.4-0.3,0.6-0.3
		c0.2-0.1,0.4-0.1,0.5,0c0.2,0.1,0.3,0.2,0.3,0.3c0.1,0.1,0.1,0.3,0.1,0.4c0,0.2-0.1,0.3-0.3,0.4c-0.5,0.3-1,0.9-1.5,1.6
		c-0.5,0.7-1,1.5-1.4,2.3c-0.5,0.8-0.9,1.7-1.2,2.5c-0.4,0.8-0.6,1.5-0.9,2c-0.2,0.6-0.4,1.2-0.6,1.9c-0.2,0.7-0.3,1.4-0.4,2.1
		c-0.1,0.7-0.1,1.3,0,1.8c0.1,0.6,0.3,0.9,0.6,1.2c0.3,0.2,0.7,0.3,1.3,0.1s1.3-0.6,2.3-1.3c0.9-0.7,1.7-1.4,2.4-2.1
		s1.5-1.5,2.2-2.3c0.1-0.1,0.4-0.4,0.8-0.9c0.4-0.5,0.8-1,1.2-1.6s0.9-1.2,1.3-1.9c0.4-0.7,0.8-1.3,1.1-2c-0.2-0.5-0.4-1-0.4-1.5
		c-0.1-0.5-0.1-0.9-0.1-1.4c0-0.4,0.1-0.7,0.3-1C173.9,47.6,174.1,47.4,174.4,47.3z"/>
	<path class="st0" d="M178.7,62.1c0.6,0.7,1.4,1.1,2.3,1.2c0.9,0.1,1.8,0,2.7-0.2s1.8-0.6,2.7-1.1s1.6-0.9,2.2-1.4
		c1.7-1.2,3.1-2.7,4.4-4.4c0.2-0.2,0.3-0.5,0.4-0.6c0.1-0.2,0.2-0.3,0.2-0.4c0.1-0.2,0.3-0.3,0.4-0.2c0.1,0.1,0.1,0.2,0,0.5
		s-0.3,0.6-0.5,0.9c-0.2,0.3-0.4,0.5-0.4,0.6c-0.6,0.8-1.2,1.6-1.9,2.4c-0.7,0.8-1.5,1.5-2.3,2.1c-0.8,0.7-1.7,1.2-2.6,1.7
		c-0.9,0.5-1.9,0.8-2.9,1.1c-0.9,0.2-1.8,0.3-2.7,0.1c-0.9-0.1-1.6-0.4-2.3-0.9c-0.7-0.4-1.2-1-1.5-1.8c-0.4-0.8-0.5-1.7-0.4-2.7
		s0.3-2,0.7-3.1c0.4-1,0.9-2,1.5-3c0.6-0.9,1.3-1.8,2-2.6c0.8-0.8,1.6-1.5,2.4-2c0.4-0.3,0.9-0.5,1.3-0.7c0.5-0.2,1-0.4,1.5-0.5
		s1-0.1,1.5,0s1,0.2,1.4,0.5c0.5,0.4,0.9,0.8,1.1,1.3c0.2,0.5,0.3,1,0.3,1.6s-0.1,1.1-0.3,1.7c-0.2,0.6-0.5,1.1-0.8,1.5
		c-0.6,0.9-1.3,1.7-2.1,2.2c-0.8,0.6-1.7,0.9-2.6,1.2c-0.9,0.2-1.9,0.3-2.9,0.2s-1.9-0.4-2.9-0.8c-0.2,0.4-0.3,0.9-0.5,1.4
		c-0.1,0.5-0.2,1-0.2,1.4c0,0.5,0,1,0.1,1.4C178.1,61.3,178.4,61.7,178.7,62.1z M188.2,53.1c0.2-0.3,0.4-0.7,0.5-1.2
		c0.2-0.4,0.2-0.9,0.2-1.3s-0.1-0.8-0.3-1.2s-0.5-0.6-1-0.8s-1-0.2-1.5-0.1c-0.5,0.1-1,0.3-1.4,0.6c-0.5,0.3-0.9,0.6-1.3,0.9
		c-0.4,0.4-0.8,0.7-1.1,1c-0.7,0.7-1.3,1.4-1.8,2.2c-0.6,0.8-1,1.6-1.5,2.5c0.8,0.4,1.7,0.6,2.5,0.7s1.7,0,2.6-0.2
		c0.8-0.2,1.6-0.6,2.3-1.1C187.1,54.6,187.7,53.9,188.2,53.1z"/>
	<path class="st0" d="M195,55.3c-0.6,1.3-1.1,2.5-1.5,3.5s-0.6,1.9-0.6,2.8c0,0.5,0,0.8,0.2,1.1c0.1,0.3,0.3,0.4,0.6,0.5
		s0.6,0.1,0.9,0.1c0.3-0.1,0.7-0.2,1-0.4c0.7-0.4,1.4-0.9,2-1.5s1.2-1.2,1.7-1.9s1-1.3,1.5-2s0.9-1.4,1.4-2c0.2-0.3,0.3-0.4,0.5-0.3
		c0.1,0.1,0.1,0.3-0.1,0.6c-0.4,0.7-0.8,1.4-1.3,2.2s-1.1,1.6-1.7,2.4c-0.6,0.8-1.2,1.5-1.9,2.2s-1.4,1.2-2.1,1.6
		c-0.4,0.2-0.7,0.3-1.1,0.3c-0.4,0-0.8,0-1.1-0.2c-0.3-0.1-0.6-0.3-0.9-0.6c-0.3-0.3-0.5-0.6-0.6-1s-0.1-0.8-0.1-1.2
		s0.1-0.8,0.2-1.3c0.1-0.4,0.2-0.8,0.3-1.2s0.2-0.8,0.4-1.2c0.6-1.8,1.4-3.5,2.3-5.2s1.8-3.3,2.7-5c0.1-0.2,0.3-0.5,0.6-1
		c0.2-0.5,0.5-1,0.9-1.6c0.3-0.6,0.7-1.1,1.1-1.7c0.4-0.6,0.8-1,1.2-1.4s0.8-0.7,1.2-0.8s0.8-0.1,1.2,0.2c0.2,0.2,0.4,0.4,0.4,0.7
		s-0.1,0.6-0.2,0.9c-0.1,0.3-0.3,0.6-0.5,0.9c-0.2,0.3-0.3,0.5-0.5,0.7c-1.2,2-2.5,3.9-3.8,5.6C197.8,51.9,196.4,53.6,195,55.3z
		 M202.4,43.6c0.2-0.5,0.4-0.8,0.5-1s0-0.3-0.1-0.3s-0.2,0.1-0.4,0.3s-0.4,0.5-0.7,0.9c-0.7,1.1-1.5,2.3-2.3,3.8
		c-0.9,1.5-1.8,3.2-2.8,5c1.1-1.6,2.1-3,3.1-4.5C200.6,46.6,201.5,45.1,202.4,43.6z"/>
	<path class="st0" d="M220.9,49.1c0.2-0.1,0.3-0.1,0.4,0c0.1,0,0.1,0.1,0,0.2c0,0.1-0.1,0.2-0.2,0.3c-0.1,0.1-0.3,0.2-0.4,0.3
		c-0.3,0.2-0.7,0.3-1.2,0.5s-1,0.3-1.5,0.5c-0.6,0.1-1.1,0.2-1.7,0.3c-0.6,0.1-1.2,0.1-1.7,0c0,0.9-0.1,1.8-0.3,2.7
		s-0.5,1.7-0.8,2.4s-0.7,1.5-1.1,2.2c-0.4,0.8-0.9,1.5-1.4,2.2s-1.1,1.3-1.7,1.9c-0.6,0.6-1.3,1.1-2,1.5c-0.5,0.3-1.1,0.5-1.7,0.6
		c-0.6,0.1-1.1,0.1-1.7-0.1c-0.5-0.1-1-0.4-1.5-0.7c-0.4-0.4-0.8-0.8-1.1-1.4c-0.4-0.8-0.5-1.6-0.5-2.5s0.2-1.7,0.4-2.6
		c0.2-0.9,0.6-1.7,1-2.5s0.8-1.5,1.2-2.2c0.4-0.6,0.9-1.3,1.6-2.1c0.6-0.7,1.3-1.4,2.1-1.9c0.7-0.6,1.5-1,2.4-1.2s1.7-0.2,2.6,0.1
		c0.2,0.1,0.3,0.2,0.3,0.4c0.5,0.2,0.9,0.4,1.2,0.7s0.5,0.7,0.7,1.1c0.5,0.1,1,0.2,1.7,0.2c0.6,0,1.2,0,1.8-0.1s1.2-0.2,1.8-0.3
		C220,49.3,220.5,49.2,220.9,49.1z M205.7,51.8c-0.8,1.1-1.6,2.2-2.2,3.5c-0.6,1.2-1,2.5-1.3,3.9c0,0.3-0.1,0.6-0.1,0.9
		c0,0.3,0,0.6,0,1c0,0.3,0.1,0.6,0.2,0.9c0.1,0.3,0.2,0.6,0.5,0.8c0.4,0.5,0.9,0.7,1.5,0.7s1.1-0.2,1.7-0.4c1.2-0.6,2.2-1.4,3.1-2.5
		c0.9-1.1,1.7-2.2,2.3-3.3c0.2-0.3,0.4-0.7,0.6-1.3c0.2-0.5,0.5-1.1,0.7-1.7c0.2-0.6,0.4-1.2,0.5-1.8s0.1-1.2,0-1.7
		c-0.5-0.2-1-0.5-1.3-0.9c-0.4-0.4-0.6-0.9-0.7-1.6c-1.1,0.1-2.1,0.6-3,1.2C207.2,50.2,206.4,51,205.7,51.8z"/>
	<path class="st0" d="M205.7,71.4c-0.4-0.2-0.6-0.4-0.8-0.7c-0.2-0.3-0.3-0.7-0.3-1c0-0.4,0-0.8,0.1-1.1c0.1-0.4,0.2-0.7,0.5-1.1
		c0.4-0.6,0.8-1,1.4-1.4c0.6-0.4,1.2-0.7,1.8-0.9c0.7-0.2,1.3-0.3,2-0.3s1.4,0,2,0.1c0.3-0.7,0.7-1.5,1.1-2.3
		c0.4-0.8,0.8-1.6,1.2-2.5c0.4-0.8,0.9-1.6,1.3-2.4c0.4-0.8,0.8-1.6,1.2-2.3c0.3-0.6,0.6-1.2,0.9-1.8c0.3-0.6,0.6-1.2,0.9-1.7
		c0.3-0.6,0.5-1.1,0.7-1.6s0.4-0.9,0.5-1.3c0-0.2,0.1-0.3,0.3-0.4c0.1-0.1,0.3-0.2,0.5-0.2s0.3,0,0.4,0.1c0.1,0.1,0.2,0.3,0.2,0.5
		c0,0.4-0.1,0.7-0.2,1.1c-0.1,0.4-0.3,0.7-0.4,1.1c-0.2,0.4-0.3,0.7-0.5,1.1c-0.2,0.3-0.4,0.7-0.5,1c0.2-0.2,0.5-0.6,0.9-1.2
		c0.4-0.5,0.8-1.1,1.3-1.7c0.5-0.6,1-1.1,1.6-1.7c0.6-0.5,1.2-0.9,1.8-1.2s1.2-0.4,1.7-0.3c0.6,0.1,1.1,0.4,1.5,1
		c0.3,0.4,0.5,0.9,0.6,1.4s0.1,1,0,1.6c-0.1,0.5-0.2,1.1-0.3,1.6s-0.3,1-0.4,1.4c-0.3,0.9-0.7,1.8-1.1,2.7c-0.4,0.9-0.9,1.7-1.5,2.6
		c-0.6,0.8-1.2,1.6-1.9,2.2c-0.7,0.7-1.4,1.3-2.2,1.7c1.1-0.1,2.2-0.5,3.3-1s2.1-1.2,3.1-2s1.9-1.6,2.7-2.5s1.5-1.8,2-2.6
		c0.2-0.3,0.3-0.4,0.4-0.2c0.1,0.1,0.1,0.3,0,0.6c-0.1,0.2-0.2,0.5-0.4,0.8s-0.4,0.6-0.6,0.9c-0.2,0.3-0.4,0.5-0.6,0.7
		s-0.3,0.4-0.3,0.4c-0.9,1.2-2,2.2-3.2,3.1c-1.2,0.9-2.4,1.6-3.8,2.2c-0.8,0.3-1.7,0.6-2.5,0.7c-0.9,0.1-1.7,0.2-2.5,0
		c-0.7,0.1-1.4,0.1-2.1,0c-0.7-0.1-1.2-0.5-1.7-1c-0.3-0.4-0.5-0.8-0.5-1.3c-0.2,0.4-0.5,0.9-0.8,1.6c-0.3,0.7-0.6,1.2-0.8,1.8
		c0.9,0.4,1.7,0.8,2.4,1.5c0.7,0.6,1.2,1.4,1.5,2.3c0.2,0.4,0.3,0.8,0.4,1.3c0.1,0.5,0.1,1,0.1,1.5s-0.1,0.9-0.3,1.4
		c-0.2,0.4-0.5,0.8-0.9,1c-0.2,0.1-0.3,0.1-0.5,0c-0.1-0.1-0.2-0.2-0.2-0.4c0-0.2,0-0.4,0.1-0.5c0.1-0.2,0.1-0.3,0.2-0.5
		c0.2-0.8,0.3-1.5,0.2-2.3c-0.1-0.9-0.5-1.7-1-2.4c-0.5-0.7-1.3-1.3-2.3-1.8c-0.3,0.7-0.7,1.4-1.2,2.1c-0.5,0.8-1.2,1.4-1.8,2
		c-0.7,0.6-1.4,1-2.2,1.3C207.2,71.9,206.5,71.9,205.7,71.4z M208.9,66.1c-0.3,0.1-0.7,0.2-1.1,0.4c-0.4,0.2-0.7,0.4-1,0.6
		s-0.6,0.5-0.8,0.9s-0.3,0.7-0.4,1.2c0,0.5,0.1,0.8,0.4,1.1c0.3,0.2,0.6,0.4,1,0.3c0.6,0,1.1-0.2,1.6-0.5s0.9-0.6,1.3-1.1
		c0.4-0.4,0.8-0.9,1.1-1.5c0.3-0.5,0.6-1.1,0.9-1.6C210.9,65.7,209.9,65.8,208.9,66.1z M216.5,61.5c0.7,0.8,1.6,1.3,2.5,1.7
		c1-0.2,2-0.7,2.9-1.4s1.7-1.6,2.5-2.6c0.7-1,1.3-2,1.9-3.1c0.5-1.1,0.9-2.1,1.2-3c0.2-0.7,0.3-1.4,0.4-2.1c0.1-0.7,0-1.3-0.2-1.7
		c-0.2-0.5-0.5-0.7-1-0.8s-1.1,0.2-2,0.8c-0.6,0.4-1.2,0.9-1.7,1.4c-0.6,0.6-1.1,1.1-1.6,1.8c-0.5,0.6-1,1.3-1.5,2s-0.9,1.4-1.4,2.1
		c-1,1.6-1.9,3.2-2.8,4.8c0.2-0.1,0.4-0.1,0.5,0C216.3,61.3,216.4,61.4,216.5,61.5z"/>
	<path class="st0" d="M234.1,62.1c0.6,0.7,1.4,1.1,2.3,1.2c0.9,0.1,1.8,0,2.7-0.2s1.8-0.6,2.7-1.1s1.6-0.9,2.2-1.4
		c1.7-1.2,3.1-2.7,4.4-4.4c0.2-0.2,0.3-0.5,0.4-0.6c0.1-0.2,0.2-0.3,0.2-0.4c0.1-0.2,0.3-0.3,0.4-0.2c0.1,0.1,0.1,0.2,0,0.5
		s-0.3,0.6-0.5,0.9c-0.2,0.3-0.4,0.5-0.4,0.6c-0.6,0.8-1.2,1.6-1.9,2.4c-0.7,0.8-1.5,1.5-2.3,2.1c-0.8,0.7-1.7,1.2-2.6,1.7
		c-0.9,0.5-1.9,0.8-2.9,1.1c-0.9,0.2-1.8,0.3-2.7,0.1c-0.9-0.1-1.6-0.4-2.3-0.9c-0.7-0.4-1.2-1-1.5-1.8c-0.4-0.8-0.5-1.7-0.4-2.7
		s0.3-2,0.7-3.1c0.4-1,0.9-2,1.5-3c0.6-0.9,1.3-1.8,2-2.6c0.8-0.8,1.6-1.5,2.4-2c0.4-0.3,0.9-0.5,1.3-0.7c0.5-0.2,1-0.4,1.5-0.5
		s1-0.1,1.5,0s1,0.2,1.4,0.5c0.5,0.4,0.9,0.8,1.1,1.3c0.2,0.5,0.3,1,0.3,1.6s-0.1,1.1-0.3,1.7c-0.2,0.6-0.5,1.1-0.8,1.5
		c-0.6,0.9-1.3,1.7-2.1,2.2c-0.8,0.6-1.7,0.9-2.6,1.2c-0.9,0.2-1.9,0.3-2.9,0.2s-1.9-0.4-2.9-0.8c-0.2,0.4-0.3,0.9-0.5,1.4
		c-0.1,0.5-0.2,1-0.2,1.4c0,0.5,0,1,0.1,1.4C233.6,61.3,233.8,61.7,234.1,62.1z M243.6,53.1c0.2-0.3,0.4-0.7,0.5-1.2
		c0.2-0.4,0.2-0.9,0.2-1.3s-0.1-0.8-0.3-1.2s-0.5-0.6-1-0.8s-1-0.2-1.5-0.1c-0.5,0.1-1,0.3-1.4,0.6c-0.5,0.3-0.9,0.6-1.3,0.9
		c-0.4,0.4-0.8,0.7-1.1,1c-0.7,0.7-1.3,1.4-1.8,2.2c-0.6,0.8-1,1.6-1.5,2.5c0.8,0.4,1.7,0.6,2.5,0.7c0.9,0.1,1.7,0,2.6-0.2
		c0.8-0.2,1.6-0.6,2.3-1.1C242.5,54.6,243.1,53.9,243.6,53.1z"/>
	<path class="st0" d="M246.7,58.1c0.5-0.6,0.9-1.2,1.4-1.9c0.4-0.7,0.8-1.4,1.2-2c0.4-0.7,0.8-1.5,1.3-2.4c0.4-0.8,0.8-1.7,1.2-2.5
		c-0.4-0.2-0.6-0.5-0.6-0.9c0-0.3,0.1-0.7,0.2-1c0.2-0.3,0.4-0.6,0.8-0.7c0.3-0.2,0.6-0.3,1-0.3c0.2,0,0.4,0.1,0.6,0.2
		c0.1,0.1,0.2,0.3,0.2,0.5s0,0.4,0,0.6c0,0.2-0.1,0.4-0.2,0.6c0.6,0.1,1.2,0.3,1.8,0.5c0.6,0.2,1.2,0.5,1.6,0.8
		c0.5,0.3,0.8,0.7,1.1,1.2c0.2,0.5,0.3,1,0.1,1.7c-0.2,1-0.6,1.9-1.1,2.8c-0.5,0.9-1,1.8-1.5,2.6c-0.1,0.2-0.3,0.6-0.6,1.1
		s-0.6,1-0.8,1.6s-0.4,1.1-0.4,1.6c-0.1,0.5,0.1,0.9,0.4,1.1c0.3,0.2,0.7,0.3,1.2,0.2c0.4-0.1,0.9-0.3,1.4-0.6s0.9-0.7,1.4-1.2
		s0.9-0.9,1.3-1.4s0.8-0.9,1.1-1.3c0.3-0.4,0.6-0.7,0.7-0.9c0.4-0.5,0.7-1,1.1-1.4c0.3-0.4,0.6-0.8,0.9-1.3c0.1-0.1,0.2-0.2,0.4-0.2
		c0.1,0,0.2,0.1,0,0.3c-0.2,0.4-0.4,0.8-0.7,1.2c-0.3,0.4-0.5,0.9-0.8,1.3c-0.4,0.6-0.8,1.2-1.2,1.8c-0.4,0.6-0.9,1.2-1.4,1.8
		s-1.1,1.1-1.7,1.6s-1.2,0.9-1.9,1.1c-0.4,0.1-0.7,0.2-1.1,0.2c-0.4,0-0.8-0.1-1.1-0.3c-0.3-0.2-0.5-0.4-0.7-0.7s-0.3-0.6-0.3-0.9
		c0-0.3,0-0.6,0-1c0-0.3,0.1-0.7,0.2-1c0.3-0.9,0.6-1.7,1-2.6c0.4-0.8,0.8-1.6,1.3-2.5c0.3-0.6,0.7-1.2,1-1.9
		c0.4-0.7,0.6-1.4,0.6-2.1c0-0.3-0.2-0.6-0.5-0.9c-0.3-0.2-0.7-0.4-1.1-0.6c-0.4-0.2-0.9-0.3-1.3-0.4c-0.4-0.1-0.8-0.2-1-0.2
		c-0.6,1.1-1.1,2-1.6,2.7c-0.5,0.8-0.9,1.5-1.3,2.2c-0.4,0.6-0.8,1.3-1.3,2s-1,1.3-1.5,1.9c-0.2,0.2-0.3,0.3-0.4,0.3
		c-0.1,0-0.2,0-0.3,0C246.7,58.4,246.7,58.3,246.7,58.1C246.6,58.3,246.6,58.2,246.7,58.1z"/>
	<path class="st0" d="M271,52.6c0.2-0.2,0.4-0.5,0.7-0.8c0.2-0.3,0.5-0.7,0.6-1c0.2-0.4,0.3-0.7,0.3-1.1c0-0.4-0.1-0.7-0.4-1
		c-0.3-0.4-0.7-0.6-1.2-0.6s-1,0.1-1.5,0.3s-1,0.4-1.4,0.7c-0.5,0.3-0.8,0.5-1.1,0.7c-0.3,0.2-0.7,0.5-1.1,0.9s-0.8,0.8-1.2,1.3
		c-0.3,0.5-0.6,1-0.7,1.5s0,1,0.4,1.4c0.2,0.2,0.4,0.4,0.6,0.4s0.5,0.1,0.8,0.2c0.3,0,0.5,0,0.8,0s0.5-0.1,0.7-0.1
		c0.6-0.1,1.2-0.1,1.7,0c0.6,0.1,1.1,0.3,1.5,0.8c0.5,0.5,0.7,1,0.8,1.6c0.1,0.6,0,1.1-0.2,1.7c-0.2,0.6-0.5,1.1-0.8,1.6
		c-0.4,0.5-0.7,0.9-1.1,1.3c-0.5,0.5-1.2,0.9-1.9,1.3c-0.7,0.4-1.4,0.7-2.1,0.8c-0.9,0.1-1.7,0.1-2.6-0.2c-0.9-0.3-1.6-0.8-2-1.6
		c-0.2-0.2-0.3-0.5-0.3-0.7s0-0.3,0.1-0.4c0.1-0.1,0.2-0.1,0.3-0.1c0.1,0,0.3,0.2,0.5,0.4s0.4,0.5,0.6,0.7s0.5,0.4,0.8,0.5
		s0.7,0.2,1.1,0.3c0.4,0,0.8,0,1.3-0.1c0.6-0.1,1.2-0.4,1.8-0.7c0.6-0.4,1.2-0.8,1.7-1.3s0.9-1,1.3-1.6c0.3-0.6,0.5-1.2,0.4-1.8
		c-0.1-0.5-0.2-0.9-0.5-1.1c-0.3-0.2-0.7-0.3-1.1-0.3s-0.8,0-1.3,0c-0.4,0.1-0.8,0.1-1.2,0.1c-0.6,0-1.2-0.1-1.8-0.4
		c-0.6-0.2-1-0.7-1.2-1.3s-0.3-1.2-0.2-1.8c0.1-0.6,0.3-1.2,0.7-1.7c0.3-0.5,0.7-1,1.2-1.5s0.9-0.8,1.3-1.2c0.4-0.3,0.9-0.6,1.5-0.9
		c0.6-0.3,1.1-0.5,1.7-0.7s1.2-0.2,1.8-0.2c0.6,0,1.1,0.3,1.6,0.7s0.8,0.9,0.8,1.4c0.1,0.5,0,1-0.2,1.5s-0.5,1-0.9,1.4
		s-0.8,0.8-1.2,1.1c-0.1,0.1-0.2,0.1-0.3,0C270.9,52.8,270.9,52.7,271,52.6z"/>
</g>
<g class="st1">
	<path class="st0" d="M16,16.4c0.4-0.6,0.8-1.3,1.2-1.9c0.4-0.7,0.8-1.4,1-2c0.2-0.7,0.4-1.4,0.3-2s-0.3-1.3-0.8-1.9
		c-0.7-0.7-1.5-1.1-2.3-1.1c-0.9-0.1-1.8,0.1-2.6,0.4S11.1,8.4,10.2,9c-0.8,0.5-1.5,1.1-2.1,1.6c-0.7,0.6-1.3,1.3-1.9,2.1
		s-1,1.7-1.3,2.6c-0.1,0.4-0.2,0.8-0.3,1.3s-0.1,1,0,1.4c0.1,0.5,0.2,1,0.4,1.4s0.5,0.7,1,0.9c0.4,0.2,0.8,0.3,1.2,0.2
		c0.4,0,0.9-0.1,1.3-0.3c0.4-0.2,0.8-0.4,1.2-0.7c0.4-0.3,0.7-0.5,1-0.8c0.6-0.6,1.2-1.3,1.6-2c0.5-0.8,0.8-1.6,0.9-2.5
		c0.1-0.4,0.1-0.7,0-1.1c0-0.3-0.1-0.6-0.2-0.8c0-0.1,0-0.3,0-0.4c0-0.2,0.2-0.3,0.4-0.2c0.2,0,0.3,0.1,0.4,0.3
		c0.1,0.2,0.1,0.3,0.1,0.5c0.1,0.5,0.2,0.9,0.2,1.4s-0.1,1-0.3,1.4c-0.1,0.5-0.3,0.9-0.6,1.4c-0.2,0.5-0.5,0.9-0.7,1.2
		c-0.3,0.4-0.6,0.8-1.1,1.3C11,19.6,10.5,20,10,20.4c-0.5,0.4-1,0.6-1.6,0.9c-0.6,0.2-1.1,0.3-1.6,0.4c-0.5,0-1.1-0.1-1.5-0.3
		s-0.9-1-1.3-1.6C3.5,18.9,3.2,18,3.3,17s0.3-1.9,0.7-2.8c0.4-0.9,1-1.8,1.6-2.6s1.3-1.5,1.9-2.1C8.2,8.9,9,8.4,9.9,7.8
		s1.9-0.9,2.9-1.1s2-0.3,2.9-0.1c1,0.1,1.8,0.6,2.6,1.3c0.6,0.5,1,1,1.2,1.6s0.3,1.2,0.3,1.8s-0.2,1.2-0.4,1.8
		c-0.2,0.6-0.5,1.2-0.8,1.7s-0.6,1-0.9,1.5c0.6,0,1.1,0.1,1.7,0.5c0.5-0.3,1-0.5,1.5-0.8c0.5-0.3,0.9-0.6,1.4-0.8
		c0.7-0.4,1.4-0.9,2.1-1.4s1.4-1,2.1-1.6s1.4-1.2,2-1.8s1-1.4,1.5-2c0,0,0-0.1,0.1-0.2c0-0.1,0.1-0.2,0.1-0.3c0-0.1,0.1-0.2,0.1-0.2
		c0.1-0.1,0.1-0.1,0.2-0.1c0.2,0,0.3,0.1,0.2,0.4s-0.1,0.5-0.2,0.9S30.2,9.4,30,9.7c-0.1,0.3-0.2,0.4-0.3,0.5
		c-0.8,1.2-1.7,2.2-2.8,3c-1.1,0.9-2.2,1.7-3.4,2.4c-1.1,0.7-2.2,1.3-3.4,1.7c0.6,0.6,1.1,1.2,1.5,2s0.8,1.6,1.1,2.3
		c0.3,0.7,0.7,1.4,1.1,2.1c0.4,0.8,0.9,1.5,1.4,2.1s1.1,1.2,1.8,1.7c0.6,0.5,1.4,0.8,2.2,0.8c0.6,0,1.2,0,1.8-0.2
		c0.6-0.2,1.1-0.5,1.5-0.9c0.1-0.1,0.2-0.2,0.2-0.4c0.1-0.2,0.2-0.3,0.2-0.4c0.1-0.1,0.2-0.1,0.3,0c0.1,0,0.1,0.1,0.2,0.3
		c0,0.1,0,0.3,0,0.4c0,0.2-0.1,0.3-0.2,0.5c-0.2,0.4-0.5,0.7-0.9,1c-0.4,0.3-0.8,0.5-1.2,0.7c-0.9,0.4-1.8,0.5-2.6,0.3
		c-0.8-0.2-1.6-0.5-2.3-1c-0.7-0.5-1.4-1.1-2-1.8c-0.6-0.7-1.1-1.5-1.5-2.2c-0.3-0.5-0.5-1-0.8-1.5c-0.2-0.5-0.5-1-0.7-1.5
		s-0.5-1-0.7-1.5c-0.3-0.5-0.5-1-0.8-1.4c-0.1-0.2-0.3-0.3-0.4-0.5c-0.1-0.1-0.3-0.3-0.4-0.4c-0.4,0.1-0.9,0.3-1.3,0.4
		s-0.9,0.1-1.4,0.1c-0.4,0.6-0.9,1.2-1.3,1.9s-0.8,1.3-1.2,2c-0.2,0.3-0.3,0.6-0.4,1s-0.2,0.7-0.2,1c0,0.2,0,0.3,0.1,0.5
		c0.1,0.1,0.1,0.3,0.1,0.5s0,0.4-0.2,0.5s-0.3,0.1-0.6-0.1c-0.2-0.2-0.3-0.4-0.4-0.7C12,24.6,12,24.4,12,24.1s0-0.7,0.1-1
		s0.2-0.7,0.3-1s0.3-0.7,0.5-1s0.3-0.6,0.5-0.9c0.2-0.4,0.4-0.8,0.7-1.1c0.2-0.3,0.5-0.7,0.7-1.1c-0.2-0.4-0.2-0.7,0.1-0.9
		C15.3,16.7,15.6,16.5,16,16.4z M18.1,17.3c-0.3-0.1-0.6-0.2-1-0.2l-0.4,0.5C17.2,17.6,17.7,17.5,18.1,17.3z"/>
	<path class="st0" d="M39.7,12.9c-1.1-0.4-2.2-0.5-3.3-0.2c-1.1,0.2-2.1,0.7-3,1.3s-1.8,1.4-2.6,2.2s-1.4,1.7-2,2.6
		c-0.3,0.5-0.5,0.9-0.8,1.4s-0.5,1-0.6,1.5c-0.1,0.2-0.1,0.4-0.2,0.6c-0.1,0.3-0.1,0.5-0.2,0.8c0,0.3,0,0.5,0,0.8
		c0,0.2,0.2,0.4,0.3,0.5c0.2,0.1,0.4,0.2,0.6,0.1c0.2,0,0.4-0.1,0.6-0.3c0.2-0.1,0.4-0.3,0.6-0.5s0.3-0.3,0.4-0.5
		c0.8-0.8,1.6-1.7,2.5-2.7c0.9-1,1.7-1.8,2.5-2.7c0.2-0.2,0.4-0.4,0.6-0.6s0.5-0.4,0.7-0.5c0.3-0.1,0.5-0.2,0.8-0.3
		c0.3,0,0.6,0,0.9,0.1c0.3,0.1,0.4,0.3,0.4,0.6c-0.1,0.4-0.3,0.9-0.6,1.3s-0.5,0.8-0.8,1.2c-0.3,0.6-0.7,1.2-1,1.8
		c-0.3,0.6-0.6,1.2-0.7,1.8c-0.1,0.3-0.1,0.5-0.1,0.7c0.1,0.2,0.1,0.3,0.3,0.4s0.3,0.1,0.5,0.1s0.4-0.1,0.5-0.2
		c0.2-0.1,0.5-0.3,0.7-0.4c0.2-0.2,0.5-0.4,0.7-0.6s0.5-0.4,0.7-0.6s0.4-0.4,0.6-0.5c0.6-0.6,1.3-1.3,1.9-2c0.6-0.7,1.1-1.4,1.6-2.2
		c0-0.1,0.1-0.1,0.1-0.1c0.1,0,0.1,0.1,0.1,0.1c0,0.1,0,0.2-0.1,0.3c-0.1,0.2-0.1,0.2-0.2,0.3c-0.2,0.5-0.5,0.9-0.9,1.4
		c-0.3,0.5-0.7,1-1.1,1.6c-0.5,0.6-1,1.2-1.5,1.7s-1.1,1-1.7,1.4c-0.6,0.4-1.1,0.6-1.7,0.6c-0.5,0-0.9-0.1-1.2-0.3
		c-0.2-0.2-0.4-0.5-0.4-0.9s0-0.8,0.1-1.3s0.3-1,0.5-1.6c0.2-0.5,0.5-1.1,0.8-1.6s0.5-1,0.8-1.5c0.3-0.6,0.5-0.9,0.4-1
		s-0.4,0.2-1,0.7c-0.6,0.6-1.2,1.2-1.8,1.8c-0.5,0.6-1.1,1.2-1.6,1.8s-1,1.2-1.6,1.8c-0.5,0.6-1.1,1.1-1.7,1.6
		c-0.3,0.2-0.6,0.4-0.9,0.4c-0.3,0.1-0.6,0-0.9-0.1s-0.5-0.3-0.7-0.5c-0.2-0.3-0.3-0.6-0.4-1s-0.1-0.9,0-1.4s0.2-1,0.4-1.5
		c0.2-0.5,0.4-0.9,0.6-1.3s0.4-0.8,0.5-1c0.5-0.9,1.1-1.8,1.9-2.7c0.7-0.9,1.5-1.7,2.4-2.4s1.8-1.2,2.8-1.7c1-0.4,2-0.6,3-0.5
		c0.4,0,0.9,0.1,1.3,0.2c0.4,0.1,0.8,0.3,1.2,0.5c0.2,0.1,0.3,0.3,0.2,0.5C40.1,13,39.9,13,39.7,12.9z"/>
	<path class="st0" d="M60.9,7.3c-0.2,0.7-0.6,1.3-1.1,1.6c-0.6,0.4-1.2,0.6-2,0.8c-0.7,0.2-1.5,0.2-2.3,0.2s-1.5,0-2,0
		c-0.7,0-1.4-0.1-2.1-0.1c-0.7,0-1.4-0.1-2.1-0.2c-0.6,0.9-1.2,1.7-1.9,2.4s-1.3,1.5-1.9,2.2c-0.1,0.3-0.3,0.6-0.4,0.8
		c-0.1,0.3-0.3,0.6-0.4,0.9c-0.4,0.7-0.7,1.4-1,2.1s-0.6,1.5-0.8,2.2c-0.1,0.2-0.2,0.5-0.3,0.9s-0.2,0.7-0.2,1.1s0,0.7,0,1.1
		c0.1,0.3,0.2,0.6,0.5,0.8c0.3,0.2,0.6,0.3,0.9,0.2c0.3,0,0.6-0.1,1-0.3c0.3-0.2,0.7-0.4,1-0.7c0.3-0.3,0.6-0.6,0.9-0.9
		c0.3-0.3,0.5-0.6,0.8-0.9c0.2-0.3,0.4-0.5,0.5-0.7c0.3-0.4,0.7-0.9,1-1.3c0.3-0.5,0.6-1,1-1.5c0.1-0.1,0.1-0.1,0.2-0.1
		c0.1,0,0.1,0.1,0.2,0.2c0,0.1,0,0.2-0.1,0.4s-0.2,0.3-0.2,0.4c-0.5,0.9-1,1.8-1.6,2.7c-0.6,0.9-1.2,1.7-2,2.4
		c-0.2,0.2-0.5,0.5-0.9,0.7c-0.3,0.2-0.7,0.4-1.1,0.5s-0.7,0.2-1.1,0.2s-0.7-0.1-1.1-0.4c-0.3-0.2-0.5-0.5-0.7-0.8
		c-0.1-0.3-0.2-0.6-0.3-1c0-0.4,0-0.7,0-1.1s0.1-0.7,0.1-1c0.1-0.7,0.3-1.5,0.6-2.2s0.5-1.4,0.8-2.1c0.6-1.3,1.2-2.7,1.9-4
		S46.2,10.2,47,9c-0.5,0-1-0.1-1.5-0.1s-1,0-1.5-0.1c-0.5,0-1,0-1.5,0.1s-0.9,0.2-1.3,0.4c-0.1,0.1-0.2,0.2-0.4,0.3
		c-0.1,0.1-0.2,0.2-0.4,0.2c-0.1,0-0.2,0.1-0.3,0c-0.1,0-0.1,0-0.1-0.1s0-0.1,0.1-0.2c0-0.1,0.1-0.1,0.2-0.2
		c0.2-0.2,0.5-0.5,0.8-0.6c0.3-0.2,0.6-0.3,0.9-0.4c1,0.1,2,0,2.9,0s1.8,0,2.7,0C47.7,8.1,47.9,8,48,7.8c0.1-0.2,0.3-0.3,0.5-0.4
		s0.4-0.2,0.5-0.2c0.2,0,0.4,0,0.5,0C49.8,7.3,50,7.5,50,7.7s0,0.5-0.1,0.7c1.2,0.1,2.3,0.2,3.4,0.2c1.1,0,2.2,0,3.3-0.2
		c0.3,0,0.6-0.1,1-0.1c0.3-0.1,0.7-0.1,1-0.3c0.3-0.1,0.6-0.3,0.9-0.5c0.3,0,0.5-0.2,0.6-0.5c0.1-0.1,0.1-0.2,0.2-0.2
		c0.1,0,0.2,0,0.3,0s0.2,0.1,0.2,0.2C60.9,7.1,60.9,7.2,60.9,7.3z"/>
	<path class="st0" d="M50.6,23.6c0.5,0.6,1.1,0.9,1.8,1s1.4,0,2.2-0.2s1.5-0.5,2.2-0.9s1.3-0.8,1.8-1.1c1.3-1,2.5-2.1,3.5-3.5
		c0.2-0.2,0.3-0.4,0.3-0.5s0.1-0.2,0.2-0.3c0.1-0.2,0.2-0.2,0.3-0.1s0.1,0.2,0,0.4c-0.1,0.2-0.2,0.5-0.4,0.7
		c-0.2,0.3-0.3,0.4-0.3,0.5c-0.5,0.7-1,1.3-1.5,1.9s-1.2,1.2-1.8,1.7c-0.7,0.5-1.4,1-2.1,1.4c-0.7,0.4-1.5,0.7-2.3,0.8
		c-0.7,0.2-1.5,0.2-2.2,0.1s-1.3-0.4-1.8-0.7s-0.9-0.8-1.2-1.5C49,22.7,48.9,22,49,21.1c0.1-0.8,0.2-1.6,0.5-2.5
		c0.3-0.8,0.7-1.6,1.2-2.4c0.5-0.8,1-1.4,1.6-2.1s1.3-1.2,1.9-1.6c0.3-0.2,0.7-0.4,1.1-0.6c0.4-0.2,0.8-0.3,1.2-0.4
		c0.4-0.1,0.8-0.1,1.2,0s0.8,0.2,1.2,0.4c0.4,0.3,0.7,0.6,0.9,1s0.3,0.8,0.2,1.3c0,0.5-0.1,0.9-0.3,1.4c-0.2,0.5-0.4,0.9-0.6,1.2
		c-0.5,0.7-1.1,1.3-1.7,1.8c-0.7,0.5-1.4,0.8-2.1,0.9s-1.5,0.2-2.3,0.1s-1.6-0.3-2.3-0.7c-0.1,0.4-0.3,0.7-0.4,1.1s-0.2,0.8-0.2,1.2
		s0,0.8,0.1,1.1C50.2,23,50.4,23.3,50.6,23.6z M58.3,16.4c0.2-0.3,0.3-0.6,0.4-0.9s0.2-0.7,0.2-1.1c0-0.4-0.1-0.7-0.2-1
		c-0.2-0.3-0.4-0.5-0.8-0.6c-0.4-0.1-0.8-0.2-1.2-0.1c-0.4,0.1-0.8,0.2-1.2,0.5c-0.4,0.2-0.7,0.5-1.1,0.8c-0.3,0.3-0.6,0.6-0.9,0.8
		c-0.5,0.5-1,1.1-1.5,1.8c-0.4,0.6-0.8,1.3-1.2,2c0.6,0.3,1.3,0.5,2,0.6s1.4,0,2.1-0.2c0.7-0.2,1.3-0.5,1.8-0.9S57.9,17.1,58.3,16.4
		z"/>
	<path class="st0" d="M60.8,20.4c0.4-0.5,0.8-1,1.1-1.5s0.7-1.1,1-1.6c0.3-0.6,0.7-1.2,1-1.9s0.7-1.3,1-2c-0.3-0.2-0.5-0.4-0.5-0.7
		s0-0.5,0.2-0.8c0.2-0.2,0.4-0.4,0.6-0.6c0.3-0.2,0.5-0.2,0.8-0.2c0.2,0,0.3,0.1,0.5,0.2c0.1,0.1,0.2,0.2,0.2,0.4c0,0.1,0,0.3,0,0.5
		s-0.1,0.3-0.2,0.5c0.5,0.1,0.9,0.3,1.4,0.4c0.5,0.2,0.9,0.4,1.3,0.6s0.7,0.6,0.9,0.9c0.2,0.4,0.2,0.8,0.1,1.4
		c-0.2,0.8-0.5,1.5-0.9,2.2s-0.8,1.4-1.2,2.1c-0.1,0.2-0.3,0.5-0.5,0.9S67.2,22,67,22.5c-0.2,0.4-0.3,0.9-0.4,1.3
		c0,0.4,0.1,0.7,0.3,0.9c0.3,0.2,0.6,0.3,0.9,0.2c0.4-0.1,0.7-0.3,1.1-0.5c0.4-0.3,0.8-0.6,1.1-1s0.7-0.8,1.1-1.1
		c0.3-0.4,0.6-0.7,0.9-1.1c0.2-0.3,0.4-0.6,0.6-0.7c0.3-0.4,0.6-0.8,0.9-1.1s0.5-0.7,0.7-1c0.1-0.1,0.2-0.2,0.3-0.1
		c0.1,0,0.1,0.1,0,0.3c-0.1,0.3-0.3,0.6-0.5,1s-0.4,0.7-0.7,1c-0.3,0.5-0.6,1-1,1.5s-0.7,1-1.1,1.5s-0.9,0.9-1.3,1.3
		c-0.5,0.4-1,0.7-1.5,0.9c-0.3,0.1-0.6,0.2-0.9,0.2s-0.6-0.1-0.9-0.2c-0.2-0.2-0.4-0.3-0.6-0.5s-0.2-0.5-0.2-0.7c0-0.3,0-0.5,0-0.8
		s0.1-0.5,0.2-0.8c0.2-0.7,0.5-1.4,0.8-2.1s0.7-1.3,1-2c0.2-0.5,0.5-1,0.8-1.5s0.5-1.1,0.5-1.7c0-0.3-0.1-0.5-0.4-0.7
		c-0.2-0.2-0.5-0.3-0.9-0.5s-0.7-0.2-1-0.3c-0.4-0.1-0.6-0.1-0.8-0.2c-0.5,0.9-0.9,1.6-1.3,2.2S64,17.4,63.6,18
		c-0.3,0.5-0.7,1.1-1.1,1.6c-0.4,0.6-0.8,1.1-1.2,1.5c-0.1,0.1-0.2,0.2-0.4,0.2c-0.1,0-0.2,0-0.2,0s-0.1-0.1-0.1-0.2
		C60.7,20.6,60.7,20.5,60.8,20.4z"/>
	<path class="st0" d="M78.4,13.3c-0.1,0.4-0.2,0.8-0.5,1.1c-0.2,0.4-0.5,0.7-0.7,1c-0.3,0.5-0.7,1-1,1.5s-0.7,1-1.1,1.5
		c-0.2,0.2-0.3,0.5-0.5,0.8s-0.4,0.7-0.6,1c-0.2,0.4-0.4,0.8-0.6,1.1c-0.2,0.4-0.3,0.8-0.3,1.1c-0.1,0.8,0,1.4,0.4,1.7
		c0.3,0.3,0.9,0.4,1.5,0.1c0.3-0.1,0.5-0.2,0.8-0.4c0.3-0.2,0.5-0.4,0.8-0.6c0.2-0.2,0.5-0.4,0.7-0.7c0.2-0.2,0.4-0.4,0.5-0.6
		c0.6-0.6,1.2-1.3,1.8-2c0.6-0.7,1.2-1.4,1.7-2.1c0.1-0.1,0.2-0.1,0.3,0c0.1,0.1,0.1,0.2-0.1,0.4c-0.2,0.2-0.4,0.5-0.6,0.8
		s-0.5,0.6-0.7,0.9s-0.5,0.6-0.7,0.9s-0.5,0.6-0.7,0.8c-0.3,0.3-0.6,0.8-1,1.2c-0.4,0.4-0.8,0.9-1.2,1.3c-0.4,0.4-0.9,0.7-1.4,1
		c-0.5,0.2-1,0.3-1.5,0.3c-0.6-0.1-1-0.2-1.2-0.5s-0.5-0.7-0.6-1.1s-0.1-0.9,0-1.3s0.2-0.9,0.3-1.3c0.4-1,0.9-2,1.5-2.9
		s1.2-1.8,1.9-2.7c0.3-0.4,0.6-0.8,0.8-1.2s0.5-0.8,0.7-1.3c0-0.1,0.1-0.2,0.1-0.2c0-0.1,0.1-0.2,0.2-0.2c0.2-0.1,0.4-0.1,0.6,0
		C78.4,12.9,78.5,13.1,78.4,13.3z M78.8,9.2C79,9,79.2,8.9,79.5,8.9c0.2,0,0.4,0.1,0.5,0.2c0.1,0.1,0.2,0.3,0.2,0.6
		c0,0.2-0.1,0.5-0.4,0.7s-0.5,0.3-0.7,0.3s-0.4-0.1-0.5-0.2c-0.1-0.1-0.2-0.3-0.2-0.5C78.5,9.6,78.6,9.4,78.8,9.2z"/>
	<path class="st0" d="M85.5,13.2c-0.1,0.4-0.3,0.8-0.5,1.2s-0.5,0.8-0.7,1.1c-0.3,0.5-0.7,1.1-1,1.6s-0.7,1-1,1.5
		c-0.4,0.7-0.9,1.4-1.3,2.2c-0.5,0.8-0.8,1.6-1,2.5c0.4-0.6,0.9-1.3,1.4-2.1s1.1-1.5,1.7-2.2c0.6-0.8,1.3-1.5,1.9-2.3
		c0.7-0.8,1.4-1.5,2-2.2c0.3-0.3,0.6-0.6,1-0.9c0.4-0.3,0.8-0.7,1.2-1s0.9-0.6,1.3-0.8s0.9-0.4,1.3-0.4c0.7,0,1.2,0.2,1.5,0.6
		c0.4,0.5,0.5,1,0.4,1.6c0,0.4-0.1,0.7-0.3,1.1c-0.1,0.4-0.3,0.8-0.6,1.3c-0.3,0.5-0.6,1-0.9,1.6c-0.4,0.6-0.8,1.4-1.3,2.2
		c-0.2,0.2-0.3,0.5-0.5,0.8s-0.4,0.6-0.5,0.9c-0.2,0.3-0.3,0.6-0.4,1c-0.1,0.3-0.1,0.6-0.1,1c0,0.2,0.1,0.4,0.2,0.6s0.3,0.2,0.5,0.3
		c0.2,0,0.4,0.1,0.6,0c0.2,0,0.4-0.1,0.6-0.1c0.5-0.2,1.1-0.6,1.7-1.1s1.2-1.1,1.8-1.7c0.6-0.6,1.1-1.3,1.6-1.9s0.9-1.2,1.3-1.6
		c0.1-0.1,0.2-0.2,0.3-0.1c0.1,0.1,0.1,0.2,0,0.3c-0.2,0.3-0.5,0.7-0.7,1s-0.5,0.6-0.8,0.9c-0.6,0.7-1.1,1.4-1.7,2.2s-1.2,1.4-1.9,2
		c-0.3,0.2-0.6,0.5-1,0.7s-0.7,0.3-1.1,0.4s-0.7,0.1-1.1,0s-0.7-0.3-0.9-0.7c-0.3-0.4-0.4-0.9-0.4-1.5s0.2-1.2,0.5-1.7
		c0.2-0.6,0.5-1.1,0.8-1.7c0.3-0.5,0.6-1,0.8-1.4c0.1-0.1,0.2-0.4,0.5-0.7c0.2-0.3,0.4-0.6,0.7-1c0.2-0.4,0.5-0.7,0.7-1.1
		c0.2-0.4,0.4-0.8,0.6-1.2s0.2-0.7,0.3-1c0-0.3,0-0.6-0.2-0.8c-0.3-0.3-0.6-0.4-1-0.3c-0.4,0.1-0.9,0.3-1.4,0.5
		c-0.5,0.3-1,0.7-1.5,1.1s-1,0.9-1.5,1.3c-0.4,0.5-0.8,0.9-1.2,1.2s-0.6,0.6-0.7,0.8c-1.1,1.2-2.1,2.4-3,3.7
		c-0.9,1.3-1.8,2.6-2.6,4.1c-0.1,0.1-0.2,0.2-0.3,0.3c-0.1,0.1-0.3,0-0.4,0c-0.2-0.1-0.3-0.3-0.3-0.6c0-0.3,0-0.6,0-0.9
		c0.1-0.3,0.1-0.6,0.2-0.9s0.2-0.5,0.2-0.7c0.2-0.6,0.5-1.2,0.8-1.8s0.6-1.2,1-1.7c0.3-0.6,0.7-1.2,1.1-1.7c0.4-0.6,0.7-1.1,1.1-1.7
		c0.2-0.4,0.5-0.8,0.8-1.2s0.5-0.8,0.6-1.3c0-0.2,0.1-0.3,0.2-0.4c0.1-0.1,0.3-0.1,0.4,0c0.1,0,0.3,0.1,0.3,0.2
		C85.5,12.9,85.6,13,85.5,13.2z"/>
	<path class="st0" d="M109,12.9c-1.1-0.4-2.2-0.5-3.3-0.2c-1.1,0.2-2.1,0.7-3,1.3s-1.8,1.4-2.6,2.2s-1.5,1.7-2,2.6
		c-0.3,0.5-0.5,0.9-0.8,1.4s-0.5,1-0.7,1.5c0,0.2-0.1,0.4-0.2,0.6c-0.1,0.3-0.1,0.5-0.2,0.8c0,0.3,0,0.5,0,0.8
		c0,0.2,0.2,0.4,0.3,0.5c0.2,0.1,0.4,0.2,0.6,0.1c0.2,0,0.4-0.1,0.6-0.3s0.4-0.3,0.6-0.5s0.3-0.3,0.5-0.5c0.8-0.8,1.6-1.7,2.5-2.7
		c0.8-0.9,1.7-1.8,2.5-2.7c0.2-0.2,0.4-0.4,0.6-0.6s0.5-0.4,0.7-0.5c0.3-0.1,0.5-0.2,0.8-0.3c0.3,0,0.6,0,0.9,0.1s0.4,0.3,0.4,0.6
		c-0.1,0.4-0.3,0.9-0.6,1.3c-0.3,0.4-0.5,0.8-0.8,1.2c-0.3,0.6-0.7,1.2-1,1.8c-0.3,0.6-0.6,1.2-0.7,1.8c-0.1,0.3-0.1,0.5,0,0.7
		c0,0.2,0.1,0.3,0.3,0.4s0.3,0.1,0.5,0.1s0.4-0.1,0.5-0.2c0.2-0.1,0.5-0.3,0.7-0.4c0.2-0.2,0.5-0.4,0.7-0.6s0.5-0.4,0.7-0.6
		s0.4-0.4,0.6-0.5c0.7-0.6,1.3-1.3,1.9-2s1.1-1.4,1.6-2.2c0-0.1,0.1-0.1,0.1-0.1c0.1,0,0.1,0.1,0.2,0.1c0,0.1,0,0.2-0.1,0.3
		c-0.1,0.2-0.1,0.2-0.2,0.3c-0.2,0.5-0.5,0.9-0.9,1.4c-0.3,0.5-0.7,1-1.2,1.6s-1,1.2-1.5,1.7s-1.1,1-1.7,1.4s-1.2,0.6-1.7,0.6
		s-0.9-0.1-1.2-0.3c-0.2-0.2-0.4-0.5-0.4-0.9s0-0.8,0.1-1.3s0.3-1,0.5-1.6s0.5-1.1,0.8-1.6s0.5-1,0.8-1.5c0.3-0.6,0.5-0.9,0.4-1
		s-0.4,0.2-1,0.7c-0.6,0.6-1.2,1.2-1.8,1.8c-0.5,0.6-1.1,1.2-1.6,1.8s-1,1.2-1.6,1.8c-0.5,0.6-1.1,1.1-1.7,1.6
		c-0.3,0.2-0.6,0.4-0.9,0.4c-0.3,0.1-0.6,0-0.9-0.1s-0.5-0.3-0.7-0.5c-0.2-0.3-0.3-0.6-0.4-1s-0.1-0.9,0-1.4s0.2-1,0.4-1.5
		c0.2-0.5,0.4-0.9,0.6-1.3s0.4-0.8,0.5-1c0.5-0.9,1.1-1.8,1.9-2.7c0.7-0.9,1.5-1.7,2.4-2.4s1.8-1.2,2.8-1.7c1-0.4,2-0.6,3-0.5
		c0.4,0,0.9,0.1,1.3,0.2s0.8,0.3,1.2,0.5c0.2,0.1,0.3,0.3,0.2,0.5S109.3,13,109,12.9z"/>
	<path class="st0" d="M121.2,25.6c-0.2,0-0.4-0.1-0.6-0.2s-0.4-0.3-0.6-0.5s-0.4-0.4-0.5-0.6c-0.2-0.2-0.3-0.4-0.4-0.6
		c-0.2-0.3-0.4-0.7-0.5-1.1s-0.2-0.8-0.2-1.2c0-1.4,0.3-2.8,0.8-4c0.5-1.3,1.3-2.4,2.2-3.5c0.9-1.1,1.9-2,3-2.9s2.3-1.6,3.5-2.2
		c0.5-0.3,1.2-0.5,1.8-0.8s1.4-0.5,2.1-0.6s1.4-0.2,2.1-0.2s1.3,0.2,1.9,0.5c0.5,0.2,0.8,0.5,1,0.9s0.4,0.8,0.5,1.2s0.1,0.9,0,1.3
		c-0.1,0.5-0.3,0.9-0.5,1.3c-0.4,0.6-0.8,1.2-1.3,1.6c0.3,0,0.6,0.1,0.9,0.1c0.3,0.1,0.6,0.2,0.8,0.3c0.6,0.3,1,0.7,1.2,1.1
		s0.3,1,0.2,1.5s-0.2,1.1-0.4,1.6s-0.5,1-0.8,1.4c-0.4,0.6-0.9,1.2-1.4,1.7c-0.6,0.5-1.1,1-1.8,1.5c-0.6,0.4-1.3,0.8-2,1.2
		s-1.4,0.6-2.1,0.7c-0.6,0.1-1.1,0.2-1.7,0.1s-1-0.2-1.5-0.4c-0.4-0.2-0.8-0.6-1-1c-0.3-0.4-0.4-1-0.4-1.7c0-0.8,0.2-1.7,0.5-2.5
		s0.7-1.6,1.1-2.3c0.5-0.8,1-1.6,1.5-2.3c0.6-0.8,1.2-1.5,1.8-2.2c0.1-0.1,0.2-0.2,0.3-0.2s0.2,0,0.2,0.1c0.1,0.1,0.1,0.2,0.1,0.3
		s0,0.2,0,0.3c-0.1,0.3-0.3,0.6-0.6,0.8c-0.3,0.3-0.5,0.5-0.6,0.8c-0.4,0.5-0.8,1.1-1.1,1.7s-0.7,1.2-1,1.8
		c-0.2,0.4-0.4,0.8-0.6,1.3s-0.4,0.9-0.5,1.4s-0.1,0.9,0,1.4s0.3,0.8,0.6,1.2c0.5,0.4,1,0.5,1.7,0.5c0.6-0.1,1.3-0.2,1.9-0.5
		c0.6-0.3,1.2-0.6,1.8-1s1.1-0.8,1.4-1.1c0.3-0.3,0.8-0.6,1.2-1.1s0.9-1,1.3-1.5s0.7-1.1,0.8-1.7c0.2-0.6,0.1-1.1-0.2-1.6
		c-0.1-0.2-0.3-0.4-0.5-0.6c-0.2-0.1-0.5-0.2-0.7-0.3c-0.3-0.1-0.5-0.1-0.8-0.1s-0.6,0-0.8,0c-0.3,0.2-0.6,0.4-0.9,0.6
		c-0.3,0.2-0.7,0.4-1.1,0.6c-0.1,0.1-0.4,0.1-0.7,0.2s-0.7,0.2-1,0.2s-0.6,0-0.8-0.1s-0.3-0.3-0.3-0.5c0.1-0.3,0.2-0.5,0.5-0.7
		s0.6-0.4,0.9-0.5c0.4-0.1,0.7-0.2,1.1-0.3c0.4-0.1,0.8-0.2,1.1-0.2c0.3-0.2,0.7-0.5,1.2-0.9c0.4-0.4,0.8-0.9,1.1-1.3
		c0.3-0.5,0.5-1,0.5-1.5s-0.1-0.9-0.5-1.3c-0.3-0.3-0.7-0.6-1.2-0.7c-0.5-0.1-1-0.1-1.5-0.1s-1,0.1-1.5,0.3
		c-0.5,0.1-0.9,0.3-1.3,0.4c-0.9,0.3-1.8,0.7-2.7,1.2c-0.8,0.5-1.7,1-2.4,1.5c-0.8,0.5-1.5,1.2-2.2,1.9s-1.3,1.4-1.9,2.2
		s-1,1.6-1.3,2.5c-0.3,0.9-0.5,1.8-0.4,2.8c0,0.7,0.2,1.3,0.5,1.8s0.7,1,1.4,1.4c0.1,0.1,0.2,0.1,0.3,0.2c0.1,0,0.1,0.1,0.2,0.2
		c0,0.1,0,0.2-0.1,0.3C121.4,25.5,121.3,25.6,121.2,25.6z"/>
	<path class="st0" d="M138.5,20.4c0.4-0.5,0.8-1,1.1-1.5s0.7-1.1,1-1.6c0.3-0.6,0.7-1.2,1-1.9s0.7-1.3,1-2c-0.3-0.2-0.5-0.4-0.5-0.7
		s0-0.5,0.2-0.8c0.2-0.2,0.4-0.4,0.6-0.6c0.3-0.2,0.5-0.2,0.8-0.2c0.2,0,0.3,0.1,0.5,0.2c0.1,0.1,0.2,0.2,0.2,0.4c0,0.1,0,0.3,0,0.5
		s-0.1,0.3-0.2,0.5c0.5,0.1,0.9,0.3,1.4,0.4c0.5,0.2,0.9,0.4,1.3,0.6s0.7,0.6,0.9,0.9c0.2,0.4,0.2,0.8,0.1,1.4
		c-0.2,0.8-0.5,1.5-0.9,2.2s-0.8,1.4-1.2,2.1c-0.1,0.2-0.3,0.5-0.5,0.9s-0.4,0.8-0.6,1.3c-0.2,0.4-0.3,0.9-0.4,1.3
		c0,0.4,0.1,0.7,0.3,0.9c0.3,0.2,0.6,0.3,0.9,0.2c0.4-0.1,0.7-0.3,1.1-0.5c0.4-0.3,0.8-0.6,1.1-1s0.7-0.8,1.1-1.1
		c0.3-0.4,0.6-0.7,0.9-1.1c0.2-0.3,0.4-0.6,0.6-0.7c0.3-0.4,0.6-0.8,0.9-1.1s0.5-0.7,0.7-1c0.1-0.1,0.2-0.2,0.3-0.1
		c0.1,0,0.1,0.1,0,0.3c-0.1,0.3-0.3,0.6-0.5,1s-0.4,0.7-0.7,1c-0.3,0.5-0.6,1-1,1.5s-0.7,1-1.1,1.5c-0.4,0.5-0.9,0.9-1.3,1.3
		c-0.5,0.4-1,0.7-1.5,0.9c-0.3,0.1-0.6,0.2-0.9,0.2c-0.3,0-0.6-0.1-0.9-0.2c-0.2-0.2-0.4-0.3-0.6-0.5s-0.2-0.5-0.2-0.7
		c0-0.3,0-0.5,0-0.8s0.1-0.5,0.2-0.8c0.2-0.7,0.5-1.4,0.8-2.1s0.7-1.3,1-2c0.2-0.5,0.5-1,0.8-1.5s0.5-1.1,0.5-1.7
		c0-0.3-0.1-0.5-0.4-0.7c-0.2-0.2-0.5-0.3-0.9-0.5s-0.7-0.2-1-0.3c-0.4-0.1-0.6-0.1-0.8-0.2c-0.5,0.9-0.9,1.6-1.3,2.2
		s-0.7,1.2-1.1,1.8c-0.3,0.5-0.7,1.1-1.1,1.6c-0.4,0.6-0.8,1.1-1.2,1.5c-0.1,0.1-0.2,0.2-0.4,0.2c-0.1,0-0.2,0-0.2,0
		s-0.1-0.1-0.1-0.2C138.4,20.6,138.5,20.5,138.5,20.4z"/>
	<path class="st0" d="M163.7,12.9c-1.1-0.4-2.2-0.5-3.3-0.2c-1.1,0.2-2.1,0.7-3,1.3s-1.8,1.4-2.6,2.2s-1.5,1.7-2,2.6
		c-0.3,0.5-0.5,0.9-0.8,1.4s-0.5,1-0.7,1.5c0,0.2-0.1,0.4-0.2,0.6c-0.1,0.3-0.1,0.5-0.2,0.8c0,0.3,0,0.5,0,0.8
		c0,0.2,0.2,0.4,0.3,0.5c0.2,0.1,0.4,0.2,0.6,0.1c0.2,0,0.4-0.1,0.6-0.3s0.4-0.3,0.6-0.5c0.2-0.2,0.3-0.3,0.5-0.5
		c0.8-0.8,1.6-1.7,2.5-2.7c0.8-0.9,1.7-1.8,2.5-2.7c0.2-0.2,0.4-0.4,0.6-0.6s0.5-0.4,0.7-0.5c0.3-0.1,0.5-0.2,0.8-0.3
		c0.3,0,0.6,0,0.9,0.1c0.3,0.1,0.4,0.3,0.4,0.6c-0.1,0.4-0.3,0.9-0.6,1.3s-0.5,0.8-0.8,1.2c-0.3,0.6-0.7,1.2-1,1.8
		c-0.3,0.6-0.6,1.2-0.7,1.8c-0.1,0.3-0.1,0.5,0,0.7c0,0.2,0.1,0.3,0.3,0.4s0.3,0.1,0.5,0.1s0.4-0.1,0.5-0.2c0.2-0.1,0.5-0.3,0.7-0.4
		c0.2-0.2,0.5-0.4,0.7-0.6s0.5-0.4,0.7-0.6s0.4-0.4,0.6-0.5c0.7-0.6,1.3-1.3,1.9-2c0.6-0.7,1.1-1.4,1.6-2.2c0-0.1,0.1-0.1,0.1-0.1
		c0.1,0,0.1,0.1,0.2,0.1c0,0.1,0,0.2-0.1,0.3c-0.1,0.2-0.1,0.2-0.2,0.3c-0.2,0.5-0.5,0.9-0.9,1.4c-0.3,0.5-0.7,1-1.2,1.6
		s-1,1.2-1.5,1.7s-1.1,1-1.7,1.4c-0.6,0.4-1.2,0.6-1.7,0.6s-0.9-0.1-1.2-0.3c-0.2-0.2-0.4-0.5-0.4-0.9s0-0.8,0.1-1.3s0.3-1,0.5-1.6
		s0.5-1.1,0.8-1.6s0.5-1,0.8-1.5c0.3-0.6,0.5-0.9,0.4-1s-0.4,0.2-1,0.7c-0.6,0.6-1.2,1.2-1.8,1.8c-0.5,0.6-1.1,1.2-1.6,1.8
		s-1,1.2-1.6,1.8c-0.5,0.6-1.1,1.1-1.7,1.6c-0.3,0.2-0.6,0.4-0.9,0.4c-0.3,0.1-0.6,0-0.9-0.1c-0.3-0.1-0.5-0.3-0.7-0.5
		c-0.2-0.3-0.3-0.6-0.4-1c-0.1-0.4-0.1-0.9,0-1.4s0.2-1,0.4-1.5s0.4-0.9,0.6-1.3c0.2-0.4,0.4-0.8,0.5-1c0.5-0.9,1.1-1.8,1.9-2.7
		c0.7-0.9,1.5-1.7,2.4-2.4s1.8-1.2,2.8-1.7c1-0.4,2-0.6,3-0.5c0.4,0,0.9,0.1,1.3,0.2s0.8,0.3,1.2,0.5c0.2,0.1,0.3,0.3,0.2,0.5
		S164,13,163.7,12.9z"/>
	<path class="st0" d="M170.5,13.2c-0.1,0.4-0.3,0.8-0.5,1.2s-0.5,0.8-0.7,1.1c-0.3,0.5-0.7,1.1-1,1.6s-0.7,1-1,1.5
		c-0.4,0.7-0.9,1.4-1.3,2.2c-0.5,0.8-0.8,1.6-1,2.5c0.4-0.6,0.9-1.3,1.4-2.1s1.1-1.5,1.7-2.2c0.6-0.8,1.3-1.5,1.9-2.3
		c0.7-0.8,1.4-1.5,2-2.2c0.3-0.3,0.6-0.6,1-0.9c0.4-0.3,0.8-0.7,1.2-1s0.9-0.6,1.3-0.8c0.4-0.2,0.9-0.4,1.3-0.4
		c0.7,0,1.2,0.2,1.5,0.6c0.4,0.5,0.5,1,0.4,1.6c0,0.4-0.1,0.7-0.3,1.1c-0.1,0.4-0.3,0.8-0.6,1.3c-0.3,0.5-0.6,1-0.9,1.6
		c-0.4,0.6-0.8,1.4-1.3,2.2c-0.2,0.2-0.3,0.5-0.5,0.8s-0.4,0.6-0.5,0.9c-0.2,0.3-0.3,0.6-0.4,1c-0.1,0.3-0.1,0.6-0.1,1
		c0,0.2,0.1,0.4,0.2,0.6s0.3,0.2,0.5,0.3c0.2,0,0.4,0.1,0.6,0c0.2,0,0.4-0.1,0.6-0.1c0.5-0.2,1.1-0.6,1.7-1.1
		c0.6-0.5,1.2-1.1,1.8-1.7s1.1-1.3,1.6-1.9s0.9-1.2,1.3-1.6c0.1-0.1,0.2-0.2,0.3-0.1s0.1,0.2,0,0.3c-0.2,0.3-0.5,0.7-0.7,1
		s-0.5,0.6-0.8,0.9c-0.6,0.7-1.1,1.4-1.7,2.2s-1.2,1.4-1.9,2c-0.3,0.2-0.6,0.5-1,0.7s-0.7,0.3-1.1,0.4s-0.7,0.1-1.1,0
		c-0.4-0.1-0.7-0.3-0.9-0.7c-0.3-0.4-0.4-0.9-0.4-1.5s0.2-1.2,0.5-1.7c0.2-0.6,0.5-1.1,0.8-1.7c0.3-0.5,0.6-1,0.8-1.4
		c0.1-0.1,0.2-0.4,0.5-0.7c0.2-0.3,0.4-0.6,0.7-1c0.2-0.4,0.5-0.7,0.7-1.1c0.2-0.4,0.4-0.8,0.6-1.2c0.2-0.4,0.2-0.7,0.3-1
		c0-0.3,0-0.6-0.2-0.8c-0.3-0.3-0.6-0.4-1-0.3c-0.4,0.1-0.9,0.3-1.4,0.5c-0.5,0.3-1,0.7-1.5,1.1s-1,0.9-1.5,1.3
		c-0.4,0.5-0.8,0.9-1.2,1.2s-0.6,0.6-0.7,0.8c-1.1,1.2-2.1,2.4-3,3.7c-0.9,1.3-1.8,2.6-2.6,4.1c-0.1,0.1-0.2,0.2-0.3,0.3
		c-0.1,0.1-0.3,0-0.4,0c-0.2-0.1-0.3-0.3-0.3-0.6c0-0.3,0-0.6,0-0.9c0.1-0.3,0.1-0.6,0.2-0.9c0.1-0.3,0.2-0.5,0.2-0.7
		c0.2-0.6,0.5-1.2,0.8-1.8s0.6-1.2,1-1.7c0.3-0.6,0.7-1.2,1.1-1.7c0.4-0.6,0.7-1.1,1.1-1.7c0.2-0.4,0.5-0.8,0.8-1.2s0.5-0.8,0.6-1.3
		c0-0.2,0.1-0.3,0.2-0.4c0.1-0.1,0.3-0.1,0.4,0c0.1,0,0.3,0.1,0.3,0.2C170.5,12.9,170.5,13,170.5,13.2z"/>
	<path class="st0" d="M186.4,13.3c-0.1,0.4-0.2,0.8-0.5,1.1c-0.2,0.4-0.5,0.7-0.7,1c-0.3,0.5-0.7,1-1,1.5s-0.7,1-1.1,1.5
		c-0.2,0.2-0.3,0.5-0.5,0.8s-0.4,0.7-0.6,1c-0.2,0.4-0.4,0.8-0.6,1.1c-0.2,0.4-0.3,0.8-0.3,1.1c-0.1,0.8,0,1.4,0.4,1.7
		c0.3,0.3,0.9,0.4,1.5,0.1c0.3-0.1,0.5-0.2,0.8-0.4c0.3-0.2,0.5-0.4,0.8-0.6c0.2-0.2,0.5-0.4,0.7-0.7c0.2-0.2,0.4-0.4,0.5-0.6
		c0.6-0.6,1.2-1.3,1.8-2s1.2-1.4,1.7-2.1c0.1-0.1,0.2-0.1,0.3,0s0.1,0.2-0.1,0.4c-0.2,0.2-0.4,0.5-0.6,0.8c-0.2,0.3-0.5,0.6-0.7,0.9
		s-0.5,0.6-0.7,0.9s-0.5,0.6-0.7,0.8c-0.3,0.3-0.6,0.8-1,1.2c-0.4,0.4-0.8,0.9-1.2,1.3s-0.9,0.7-1.4,1c-0.5,0.2-1,0.3-1.5,0.3
		c-0.6-0.1-1-0.2-1.2-0.5s-0.5-0.7-0.6-1.1s-0.1-0.9,0-1.3s0.2-0.9,0.3-1.3c0.4-1,0.9-2,1.5-2.9s1.2-1.8,1.9-2.7
		c0.3-0.4,0.6-0.8,0.8-1.2s0.5-0.8,0.7-1.3c0-0.1,0.1-0.2,0.1-0.2c0-0.1,0.1-0.2,0.2-0.2c0.2-0.1,0.4-0.1,0.6,0
		C186.4,12.9,186.5,13.1,186.4,13.3z M186.9,9.2c0.2-0.2,0.4-0.3,0.7-0.3c0.2,0,0.4,0.1,0.5,0.2c0.1,0.1,0.2,0.3,0.2,0.6
		c0,0.2-0.1,0.5-0.4,0.7s-0.5,0.3-0.7,0.3s-0.4-0.1-0.5-0.2c-0.1-0.1-0.2-0.3-0.2-0.5C186.6,9.6,186.7,9.4,186.9,9.2z"/>
</g>
<text transform="matrix(1 0 0 1 3.2364 -23.8043)" class="st0" style="font-family:'AveUtanPERSONALUSEONLY'; font-size:25px;">Katerina Brani</text>
</svg>
