<?xml version="1.0" encoding="utf-8"?>
<!-- Generator: Adobe Illustrator 19.2.0, SVG Export Plug-In . SVG Version: 6.00 Build 0)  -->
<svg version="1.1" id="Layer_1" xmlns="http://www.w3.org/2000/svg" xmlns:xlink="http://www.w3.org/1999/xlink" x="0px" y="0px"
	 viewBox="0 0 50 35" style="enable-background:new 0 0 50 35;" xml:space="preserve">
<style type="text/css">
	.st0{fill:#F1F6DE;}
	
		.st1{opacity:0.6;fill:#52CAF5;stroke:#00AEEF;stroke-width:0.3435;stroke-linecap:round;stroke-linejoin:round;stroke-miterlimit:10;}
	
		.st2{opacity:0.6;fill:#FFF200;stroke:#FFD200;stroke-width:0.3299;stroke-linecap:round;stroke-linejoin:round;stroke-miterlimit:10;}
	.st3{opacity:0.6;fill:#FFC60B;}
	.st4{opacity:0.6;fill:#ADD136;}
</style>
<g>
	<rect x="0" y="0" class="st0" width="50" height="35"/>
	<polygon class="st1" points="12.2,7.4 14.1,11.2 18.3,11.5 15.3,14.5 16.3,18.7 12.2,16.7 8.8,19 8.9,14.8 6.5,11.5 10.4,11.6 	"/>
	<polygon class="st2" points="36.3,13.9 38.7,17.4 42.3,18.3 39.5,21.1 40.8,24.3 36.7,23.4 33.2,24.9 34.2,21.4 31,18.3 34.9,17.8 
			"/>
	<circle class="st3" cx="12" cy="29" r="1.1"/>
	<circle class="st3" cx="44.5" cy="30.9" r="1.1"/>
	<circle class="st3" cx="25" cy="4.9" r="1.1"/>
	<circle class="st4" cx="42.6" cy="7.7" r="1.1"/>
	<ellipse transform="matrix(0.6544 -0.7561 0.7561 0.6544 -10.5906 28.8867)" class="st4" cx="26.3" cy="26" rx="1.1" ry="1.1"/>
</g>
</svg>
