<?xml version="1.0" encoding="utf-8"?>
<!-- Generator: Adobe Illustrator 19.2.0, SVG Export Plug-In . SVG Version: 6.00 Build 0)  -->
<svg version="1.1" id="Layer_1" xmlns="http://www.w3.org/2000/svg" xmlns:xlink="http://www.w3.org/1999/xlink" x="0px" y="0px"
	 viewBox="0 0 100 70" style="enable-background:new 0 0 100 70;" xml:space="preserve">
<style type="text/css">
	.st0{fill:#F1F6DE;}
	
		.st1{opacity:0.6;fill:#52CAF5;stroke:#00AEEF;stroke-width:0.687;stroke-linecap:round;stroke-linejoin:round;stroke-miterlimit:10;}
	
		.st2{opacity:0.6;fill:#FFF200;stroke:#FFD200;stroke-width:0.6598;stroke-linecap:round;stroke-linejoin:round;stroke-miterlimit:10;}
	.st3{opacity:0.6;fill:#FFC60B;}
	.st4{opacity:0.6;fill:#ADD136;}
</style>
<g>
	<rect class="st0" width="100" height="70"/>
	<polygon class="st1" points="24.5,14.9 28.2,22.5 36.6,23 30.6,28.9 32.7,37.3 24.5,33.4 17.7,38 17.7,29.6 13,23 20.7,23.2 	"/>
	<polygon class="st2" points="72.7,27.8 77.5,34.8 84.6,36.6 79,42.1 81.6,48.6 73.3,46.9 66.4,49.9 68.4,42.8 62.1,36.6 69.9,35.5 
			"/>
	<circle class="st3" cx="24" cy="57.9" r="2.2"/>
	<circle class="st3" cx="89" cy="61.7" r="2.2"/>
	<circle class="st3" cx="50" cy="9.8" r="2.2"/>
	<circle class="st4" cx="85.2" cy="15.4" r="2.2"/>
	<ellipse transform="matrix(0.6544 -0.7561 0.7561 0.6544 -21.1812 57.7734)" class="st4" cx="52.6" cy="52.1" rx="2.2" ry="2.2"/>
</g>
</svg>
